<?xml version="1.0" standalone="no"?>
<!DOCTYPE svg PUBLIC "-//W3C//DTD SVG 1.1//EN" "http://www.w3.org/Graphics/SVG/1.1/DTD/svg11.dtd" >
<svg xmlns="http://www.w3.org/2000/svg" xmlns:xlink="http://www.w3.org/1999/xlink" version="1.1">
<metadata>
Created by FontForge 20170731 at Fri Jul 22 08:32:33 2022
 By Aleksey,,,
Copyright (c) 2022 by Jincheon-gun. All rights reserved.
</metadata>
<defs>
<font id="SaenggeoJincheon" horiz-adv-x="1000" vert-adv-y="1000" >
  <font-face 
    font-family="Saenggeo Jincheon"
    font-weight="500"
    font-stretch="normal"
    units-per-em="1000"
    panose-1="0 0 0 0 0 0 0 0 0 0"
    ascent="800"
    descent="-200"
    x-height="458"
    cap-height="757"
    bbox="-10 -249 1005 900"
    underline-thickness="50"
    underline-position="-225"
    unicode-range="U+0020-FFE6"
  />
<missing-glyph horiz-adv-x="500" 
d="M410 -200h-317v1000h317v-1000zM333 -131v33h-102l70 47h32v33h-166v-33h70l-70 -47v-33h166zM333 5v113h-166v-113h166zM333 178v113h-100v-56h34v23h33v-47h-100v80h-33v-113h166zM333 313v100h-33v-66h-133v-34h166zM267 370v70h66v33h-166v-33h66v-37h-66v-33h100z
M333 500v34h-66v70h-100v-104h166zM333 630v33h-66v37h66v33h-165v-33h65v-37h-66v-33h166zM200 85h100v-47h-100v47zM200 570h33v-36h-33v36z" />
    <glyph glyph-name=".notdef" horiz-adv-x="500" 
d="M410 -200h-317v1000h317v-1000zM333 -131v33h-102l70 47h32v33h-166v-33h70l-70 -47v-33h166zM333 5v113h-166v-113h166zM333 178v113h-100v-56h34v23h33v-47h-100v80h-33v-113h166zM333 313v100h-33v-66h-133v-34h166zM267 370v70h66v33h-166v-33h66v-37h-66v-33h100z
M333 500v34h-66v70h-100v-104h166zM333 630v33h-66v37h66v33h-165v-33h65v-37h-66v-33h166zM200 85h100v-47h-100v47zM200 570h33v-36h-33v36z" />
    <glyph glyph-name=".null" horiz-adv-x="0" vert-adv-y="0" 
 />
    <glyph glyph-name="nonmarkingreturn" horiz-adv-x="333" 
 />
    <glyph glyph-name="space" unicode=" " horiz-adv-x="200" 
 />
    <glyph glyph-name="exclam" unicode="!" horiz-adv-x="353" 
d="M100 211q-20 260 -20 472q0 34 29 54t67 20q35 0 66 -20t31 -54q0 -212 -20 -472h-153zM107 -29.5q-29 28.5 -29 69.5t29 69t71 28q41 0 69 -28t28 -69t-28 -69.5t-69 -28.5q-42 0 -71 28.5z" />
    <glyph glyph-name="quotedbl" unicode="&#x22;" horiz-adv-x="520" 
d="M285 771h160l-20 -280h-120zM235 771l-20 -280h-120l-20 280h160z" />
    <glyph glyph-name="numbersign" unicode="#" horiz-adv-x="780" 
d="M143 156h-105v109h129l44 201h-133v109h157l37 167h126l-37 -167h156l37 167h126l-37 -167h95v-109h-119l-44 -201h123v-109h-147l-43 -195h-126l43 195h-156l-43 -195h-126zM449 265l44 201h-156l-44 -201h156z" />
    <glyph glyph-name="dollar" unicode="$" horiz-adv-x="791" 
d="M327 -14q-277 30 -292 251h186q16 -120 106 -160v242q-124 44 -187 95t-63 115q0 74 68 126.5t182 66.5v11q0 29 22 46.5t62 17.5q38 0 61 -17.5t23 -46.5v-15q100 -20 166 -77t76 -134h-186q-2 82 -56 117v-209q127 -42 194 -94t67 -128q0 -92 -73.5 -142.5
t-187.5 -63.5v-86h-168v85zM495 74q38 13 58.5 38.5t20.5 56.5q0 32 -18.5 55t-60.5 41v-191zM327 639q-68 -20 -68 -79q0 -27 16.5 -47.5t51.5 -38.5v165z" />
    <glyph glyph-name="percent" unicode="%" horiz-adv-x="861" 
d="M604 742h136l-481 -783h-136zM557.5 -33q-40.5 23 -64 63t-23.5 89q0 48 23.5 87.5t64 62.5t89.5 23t88.5 -23t62.5 -62.5t23 -87.5q0 -49 -23 -89t-62.5 -63t-88.5 -23t-89.5 23zM683 74.5q15 17.5 15 43.5t-15 43.5t-37 17.5t-37.5 -17.5t-15.5 -43.5t15.5 -43.5
t37.5 -17.5t37 17.5zM128 437.5q-41 23.5 -64.5 64t-23.5 89.5q0 48 23.5 88.5t64.5 63.5t91 23q49 0 89.5 -23t63.5 -63.5t23 -88.5q0 -49 -23 -89.5t-63.5 -64t-89.5 -23.5q-50 0 -91 23.5zM255 546.5q15 17.5 15 43.5t-15 43.5t-37 17.5t-37.5 -17.5t-15.5 -43.5
t15.5 -43.5t37.5 -17.5t37 17.5z" />
    <glyph glyph-name="ampersand" unicode="&#x26;" horiz-adv-x="794" 
d="M117 1.5q-82 49.5 -82 135.5q0 56 41 107t128 119l-27 29q-45 50 -67.5 93.5t-23.5 88.5q-1 53 29 94.5t86.5 65t133.5 23.5t132.5 -23.5t85 -65t30.5 -94.5q1 -112 -151 -228l117 -128q11 53 14 109h165q-9 -137 -70 -228l136 -147h-214l-39 43q-85 -43 -196 -43
q-146 0 -228 49.5zM471 71l-166 181q-92 -74 -92 -129q0 -42 34.5 -67t97.5 -25q75 0 126 40zM387.5 527.5q17.5 30.5 17.5 65.5q0 37 -18.5 61t-51.5 24t-52.5 -24.5t-17.5 -60.5q2 -37 16 -66.5t46 -66.5q43 37 60.5 67.5z" />
    <glyph glyph-name="quotesingle" unicode="'" horiz-adv-x="330" 
d="M75 771h180l-20 -280h-140z" />
    <glyph glyph-name="parenleft" unicode="(" horiz-adv-x="296" 
d="M156 -100q-57 91 -86.5 201t-29.5 225t29.5 225t86.5 201h110q-38 -102 -57 -212t-19 -214t19 -214t57 -212h-110z" />
    <glyph glyph-name="parenright" unicode=")" horiz-adv-x="296" 
d="M30 -100q38 102 57 212t19 214t-19 214t-57 212h110q57 -91 86.5 -201t29.5 -225t-29.5 -225t-86.5 -201h-110z" />
    <glyph glyph-name="asterisk" unicode="*" horiz-adv-x="503" 
d="M200 448l-108 -75l-62 108l119 56l-119 56l62 108l108 -75l-11 131h125l-11 -131l108 75l62 -108l-119 -56l119 -56l-62 -108l-108 75l11 -131h-125z" />
    <glyph glyph-name="plus" unicode="+" horiz-adv-x="670" 
d="M239 313h-181v80h181v205h193v-205h180v-80h-180v-204h-193v204z" />
    <glyph glyph-name="comma" unicode="," horiz-adv-x="335" 
d="M67 -151q35 27 49 60q15 34 -10 55q-17 13 -27 33t-10 43q0 41 29 69t71 28q41 0 69 -28.5t28 -71.5q0 -37 -13.5 -68t-38.5 -61q-50 -59 -123 -90z" />
    <glyph glyph-name="hyphen" unicode="-" horiz-adv-x="440" 
d="M53 390h334v-96h-334v96z" />
    <glyph glyph-name="period" unicode="." horiz-adv-x="335" 
d="M98 -29.5q-29 28.5 -29 69.5t29 69t71 28q41 0 69 -28t28 -69t-28 -69.5t-69 -28.5q-42 0 -71 28.5z" />
    <glyph glyph-name="slash" unicode="/" horiz-adv-x="361" 
d="M212 742h129l-192 -783h-129z" />
    <glyph glyph-name="zero" unicode="0" horiz-adv-x="747" 
d="M198.5 -1.5q-76.5 46.5 -120 137.5t-43.5 219q0 127 43.5 218t120 137.5t175.5 46.5t175.5 -46.5t119.5 -137.5t43 -218q0 -128 -43 -219t-119.5 -137.5t-175.5 -46.5t-175.5 46.5zM502 355q0 163 -32.5 243t-95.5 80q-128 0 -128 -323q0 -324 128 -324t128 324z" />
    <glyph glyph-name="one" unicode="1" horiz-adv-x="555" 
d="M35 42h161v485h-150v80h150v76q0 34 31 54t75 20q42 0 74.5 -20t32.5 -54v-641h111v-80h-485v80z" />
    <glyph glyph-name="two" unicode="2" horiz-adv-x="686" 
d="M51 42q1 27 34.5 63t102.5 96q76 67 124 115t83 106.5t35 116.5q0 67 -21 103t-63 36t-64.5 -44.5t-25.5 -117.5h-215q15 118 93.5 179.5t212.5 61.5q137 0 216 -64t79 -183q0 -72 -35 -136.5t-82 -113.5t-117 -111q-44 -39 -68.5 -63t-33.5 -44h340v-80h-595v80z" />
    <glyph glyph-name="three" unicode="3" horiz-adv-x="729" 
d="M132 7q-93 55 -107 166h215q4 -65 36 -103.5t89 -38.5q58 0 92 40.5t34 109.5q0 74 -33 112t-97 38h-183v80h169q54 0 79.5 35.5t25.5 92.5q0 61 -24 100t-68 39q-49 0 -72 -37.5t-28 -104.5h-215q14 105 99 163t216 58q95 0 164 -28t105 -77.5t36 -112.5
q0 -52 -25.5 -94t-73.5 -67q67 -24 102.5 -73t35.5 -121q0 -76 -44.5 -128.5t-120.5 -78t-170 -25.5q-144 0 -237 55z" />
    <glyph glyph-name="four" unicode="4" horiz-adv-x="767" 
d="M455 167h-158q-95 0 -142.5 8.5t-72.5 41.5t-25 106v360q0 34 32.5 54t74.5 20q44 0 75 -20t31 -54v-382q0 -27 3.5 -37t16.5 -13.5t45 -3.5h120v436q0 34 31 54t75 20q42 0 74.5 -20t32.5 -54v-436h89v-80h-89v-208h-213v208z" />
    <glyph glyph-name="five" unicode="5" horiz-adv-x="734" 
d="M128.5 23q-87.5 71 -93.5 200h215q6 -92 36.5 -141.5t81.5 -49.5q56 0 87 44.5t31 128.5q0 87 -29 137t-82 50q-25 0 -47.5 -12t-34.5 -30h-213v392h554v-80h-341v-208q45 17 101 17q147 0 226 -70t79 -193q0 -80 -40 -137.5t-114.5 -88t-176.5 -30.5q-152 0 -239.5 71z
" />
    <glyph glyph-name="six" unicode="6" horiz-adv-x="734" 
d="M120.5 49.5q-85.5 97.5 -85.5 305.5q0 198 90 300t249 102q67 0 130 -22t108.5 -67.5t58.5 -111.5h-215q-4 62 -28 92t-60 30q-51 0 -81.5 -59t-38.5 -201q26 21 62 32t75 11q99 0 170 -35t107.5 -93t36.5 -126t-36.5 -126t-109 -93.5t-174.5 -35.5q-173 0 -258.5 97.5z
M455.5 80q30.5 48 30.5 127t-30.5 127t-76.5 48q-56 0 -89.5 -47.5t-33.5 -127.5t33.5 -127.5t89.5 -47.5q46 0 76.5 48z" />
    <glyph glyph-name="seven" unicode="7" horiz-adv-x="594" 
d="M346 662h-356v80h574v-62l-190 -721h-213z" />
    <glyph glyph-name="eight" unicode="8" horiz-adv-x="757" 
d="M201 -19.5q-78 28.5 -122 81t-44 122.5q0 66 41 115.5t121 78.5q-70 28 -106 70.5t-36 98.5q0 62 43 110t116.5 74t164.5 26q90 0 164 -26t116.5 -74t42.5 -110q0 -56 -36 -98.5t-106 -70.5q80 -29 121 -78.5t41 -115.5q0 -70 -43.5 -122.5t-121.5 -81t-178 -28.5
t-178 28.5zM477 74q35 43 35 110t-35 110t-98 43q-64 0 -98.5 -43t-34.5 -110t34.5 -110t98.5 -43q63 0 98 43zM460 454.5q32 38.5 32 92.5q0 57 -31.5 94t-81.5 37q-51 0 -82 -36.5t-31 -94.5q0 -55 31.5 -93t81.5 -38q49 0 81 38.5z" />
    <glyph glyph-name="nine" unicode="9" horiz-adv-x="729" 
d="M149 0q-89 48 -112 153h215q14 -62 43 -92t66 -30q53 0 82 57.5t37 198.5q-17 -13 -51.5 -22t-78.5 -9q-103 0 -174 33t-106 89.5t-35 127.5q0 67 35.5 124t109 92t180.5 35q159 0 246.5 -99.5t87.5 -303.5q0 -201 -85 -301.5t-248 -100.5q-123 0 -212 48zM442 381
q30 46 30 125t-30 125t-82 46t-82 -46t-30 -125t30 -125t82 -46t82 46z" />
    <glyph glyph-name="colon" unicode=":" horiz-adv-x="335" 
d="M98 510.5q-29 28.5 -29 69.5t29 69t71 28q41 0 69 -28t28 -69t-28 -69.5t-69 -28.5q-42 0 -71 28.5zM98 60.5q-29 28.5 -29 69.5t29 69t71 28q41 0 69 -28t28 -69t-28 -69.5t-69 -28.5q-42 0 -71 28.5z" />
    <glyph glyph-name="semicolon" unicode=";" horiz-adv-x="335" 
d="M67 -62q35 27 49 60q15 34 -10 55q-17 13 -27 33t-10 43q0 41 29 69t71 28q41 0 69 -28.5t28 -71.5q0 -37 -13.5 -68t-38.5 -61q-50 -59 -123 -90zM98 510.5q-29 28.5 -29 69.5t29 69t71 28q41 0 69 -28t28 -69t-28 -69.5t-69 -28.5q-42 0 -71 28.5z" />
    <glyph glyph-name="less" unicode="&#x3c;" horiz-adv-x="694" 
d="M109 293q-37 16 -50.5 45t0 58.5t50.5 46.5l434 198l47 -97l-388 -176l388 -165l-47 -98z" />
    <glyph glyph-name="equal" unicode="=" horiz-adv-x="640" 
d="M58 522h524v-80h-524v80zM58 272h524v-80h-524v80z" />
    <glyph glyph-name="greater" unicode="&#x3e;" horiz-adv-x="694" 
d="M104 203l388 165l-388 176l47 97l434 -198q37 -17 50.5 -46.5t0 -58.5t-50.5 -45l-434 -188z" />
    <glyph glyph-name="question" unicode="?" horiz-adv-x="600" 
d="M240 211q-5 64 6.5 113t43.5 94q37 53 55 91t18 78q0 39 -17 65t-49 26q-68 0 -74 -142h-198q8 101 83.5 161t201.5 60q79 0 139 -21.5t93 -61t33 -92.5q0 -47 -22.5 -85.5t-76.5 -87.5q-83 -76 -83 -198h-153zM247 -29.5q-29 28.5 -29 69.5t29 69t71 28q41 0 69 -28
t28 -69t-28 -69.5t-69 -28.5q-42 0 -71 28.5z" />
    <glyph glyph-name="at" unicode="@" 
d="M234.5 -59.5q-107.5 59.5 -158 164t-36.5 236.5q13 130 82.5 230t180.5 155t246 55t234.5 -62.5t145.5 -164.5t29 -215q-16 -103 -70 -161t-144 -57q-90 2 -142 46q-49 -50 -141 -50q-62 0 -111.5 23t-76 70t-20.5 115q6 69 42 116t88 69.5t109 22.5q27 0 57 -6t54 -16
q25 19 67 19q36 0 57.5 -20.5t17.5 -53.5l-20 -177q-6 -50 2.5 -68t29.5 -18q24 0 41.5 46.5t24.5 109.5q10 100 -22 176.5t-99.5 118t-162.5 41.5t-173.5 -42t-127.5 -120t-60 -182q-11 -107 24 -189.5t112 -128.5t190 -46q68 0 145.5 29t134.5 76l79 -65
q-71 -61 -172.5 -98.5t-195.5 -37.5q-153 0 -260.5 59.5zM564 220q-13 37 -8 78l19 158v3q-17 10 -44 10q-47 0 -74.5 -35.5t-33.5 -102.5q-7 -76 12 -113t55 -37q41 0 74 39z" />
    <glyph glyph-name="A" unicode="A" horiz-adv-x="820" 
d="M60 426q0 106 44.5 180.5t123 112.5t181.5 38q104 0 183.5 -38.5t123.5 -113.5t44 -180v-465h-211v272h-277v-272h-212v466zM549 312v147q0 92 -33 155.5t-106 63.5q-63 0 -100.5 -55.5t-37.5 -164.5v-146h277z" />
    <glyph glyph-name="B" unicode="B" horiz-adv-x="795" 
d="M268 -38q-78 0 -119 8t-65 41.5t-24 106.5v624h414q109 0 175 -53t66 -147q0 -55 -25 -97t-73 -68q71 -24 109.5 -73t38.5 -122q0 -108 -71 -164t-190 -56h-236zM412 42q59 0 99.5 36.5t40.5 105.5q0 45 -19.5 77.5t-51.5 49.5t-69 17h-139v-232q0 -26 3 -36.5t14 -14
t38 -3.5h84zM382 408q54 0 87 37t33 92t-33 90t-87 35h-109v-254h109z" />
    <glyph glyph-name="C" unicode="C" horiz-adv-x="794" 
d="M205.5 1q-84.5 50 -127.5 141t-43 213q0 121 43 211.5t126.5 140.5t201.5 50q139 0 233 -62t108 -179h-198q-19 88 -54.5 125t-88.5 37q-83 0 -121 -89.5t-38 -234.5q0 -144 39.5 -234t122.5 -90q56 0 97.5 42t54.5 134h198q-14 -130 -108.5 -192.5t-241.5 -62.5
q-119 0 -203.5 50z" />
    <glyph glyph-name="D" unicode="D" horiz-adv-x="795" 
d="M268 -38q-78 0 -119 8t-65 41.5t-24 106.5v624h284q421 0 421 -387q0 -165 -54 -251.5t-137.5 -114t-199.5 -27.5h-106zM462 65q43 23 66.5 91.5t23.5 200.5q0 151 -55 233t-169 82h-55v-576q0 -27 4 -37t19 -13.5t52 -3.5q71 0 114 23z" />
    <glyph glyph-name="E" unicode="E" horiz-adv-x="689" 
d="M268 -38q-78 0 -119 8t-65 41.5t-24 106.5v624h569v-80h-356v-255h346v-80h-346v-231q0 -26 3 -36.5t14 -14t38 -3.5h310v-80h-370z" />
    <glyph glyph-name="F" unicode="F" horiz-adv-x="659" 
d="M60 742h569v-80h-356v-255h346v-80h-346v-365h-213v780z" />
    <glyph glyph-name="G" unicode="G" horiz-adv-x="803" 
d="M208.5 1q-86.5 50 -130 141t-43.5 213q0 121 44 211.5t130.5 140.5t209.5 50q83 0 155 -31.5t118.5 -88.5t55.5 -131h-198q-11 83 -45.5 127.5t-85.5 44.5q-90 0 -131 -89t-41 -235q0 -145 41 -234.5t131 -89.5q68 0 108.5 60t42.5 182h-153v80h351q6 -202 -83.5 -301.5
t-265.5 -99.5q-124 0 -210.5 50z" />
    <glyph glyph-name="H" unicode="H" horiz-adv-x="839" 
d="M60 683q0 34 32.5 54t74.5 20q44 0 75 -20t31 -54v-276h293v276q0 34 32.5 54t74.5 20q44 0 75 -20t31 -54v-724h-213v368h-293v-368h-213v724z" />
    <glyph glyph-name="I" unicode="I" horiz-adv-x="364" 
d="M70 683q0 34 32.5 54t74.5 20q44 0 75 -20t31 -54v-724h-213v724z" />
    <glyph glyph-name="J" unicode="J" horiz-adv-x="706" 
d="M160 -21.5q-67 33.5 -96 99t-29 166.5h212q0 -117 23 -168.5t70 -51.5q37 0 56.5 26.5t28 97t8.5 207.5v328q0 34 32.5 54t74.5 20q44 0 75 -20t31 -54v-328q0 -159 -25.5 -246t-91 -125.5t-190.5 -38.5q-112 0 -179 33.5z" />
    <glyph glyph-name="K" unicode="K" horiz-adv-x="772" 
d="M60 683q0 34 32.5 54t74.5 20q44 0 75 -20t31 -54v-332l350 391h113l-254 -284l290 -496h-233l-176 363l-90 -100v-266h-213v724z" />
    <glyph glyph-name="L" unicode="L" horiz-adv-x="668" 
d="M268 -38q-78 0 -119 8t-65 41.5t-24 106.5v565q0 34 32.5 54t74.5 20q44 0 75 -20t31 -54v-587q0 -26 3 -36.5t14 -14t38 -3.5h310v-80h-370z" />
    <glyph glyph-name="M" unicode="M" horiz-adv-x="910" 
d="M60 683q0 36 29.5 55t77.5 19q75 0 103 -53l185 -343l195 355q12 22 38 31.5t56 9.5q50 0 78 -19t28 -55v-724h-213v569l-114 -229q-9 -18 -22.5 -28.5t-29.5 -10.5h-32q-31 0 -51 38l-115 230v-569h-213v724z" />
    <glyph glyph-name="N" unicode="N" horiz-adv-x="839" 
d="M60 683q0 34 32.5 54t74.5 20q33 0 58.5 -9t36.5 -29l304 -577v541q0 34 32.5 54t74.5 20q44 0 75 -20t31 -54v-724h-213l-293 552v-552h-213v724z" />
    <glyph glyph-name="O" unicode="O" horiz-adv-x="855" 
d="M227 -1q-89 47 -140.5 138t-51.5 218t51.5 217.5t140.5 137.5t201 47t200.5 -47t140 -137.5t51.5 -217.5t-51.5 -218t-140 -138t-200.5 -47t-201 47zM561.5 114.5q48.5 83.5 48.5 240.5q0 156 -48.5 239.5t-133.5 83.5q-86 0 -134 -83.5t-48 -239.5q0 -157 48 -240.5
t134 -83.5q85 0 133.5 83.5z" />
    <glyph glyph-name="P" unicode="P" horiz-adv-x="770" 
d="M60 742h394q137 0 209 -59.5t72 -174.5q0 -116 -70 -173t-201 -57h-191v-319h-213v783zM382 358q140 0 140 155q0 76 -32.5 117.5t-87.5 41.5h-129v-314h109z" />
    <glyph glyph-name="Q" unicode="Q" horiz-adv-x="855" 
d="M485 -44q-25 -4 -57 -4q-112 0 -201 47t-140.5 138t-51.5 218t51.5 217.5t140.5 137.5t201 47t200.5 -47t140 -137.5t51.5 -217.5q0 -117 -48 -204.5t-129 -138.5l99 -181h-187zM442 31l-76 136q-17 31 -7.5 62t42.5 48q31 16 64 7t50 -40l63 -114q32 77 32 225
q0 156 -48.5 239.5t-133.5 83.5q-86 0 -134 -83.5t-48 -239.5q0 -157 48 -240.5t134 -83.5h14z" />
    <glyph glyph-name="R" unicode="R" horiz-adv-x="760" 
d="M60 742h384q135 0 208 -56.5t73 -157.5q0 -77 -39.5 -128t-110.5 -70l185 -368h-233l-143 356h-111v-359h-213v783zM392 398q55 0 87.5 36.5t32.5 98.5t-33 100.5t-87 38.5h-119v-274h119z" />
    <glyph glyph-name="S" unicode="S" horiz-adv-x="821" 
d="M155 13q-105 61 -120 204h206q19 -92 68.5 -139t122.5 -47q59 0 101.5 33.5t42.5 84.5q0 53 -40.5 84.5t-130.5 57.5q-167 48 -247.5 106.5t-80.5 146.5q0 64 41 112t117.5 74.5t178.5 26.5q97 0 174.5 -29t124 -81t54.5 -120h-206q-1 70 -41 110.5t-106 40.5
q-60 0 -93.5 -31.5t-33.5 -76.5q0 -54 37.5 -83t127.5 -53q163 -43 248.5 -104.5t85.5 -156.5q0 -117 -103.5 -169t-260.5 -52q-162 0 -267 61z" />
    <glyph glyph-name="T" unicode="T" horiz-adv-x="706" 
d="M252 662h-227v80h656v-80h-216v-703h-213v703z" />
    <glyph glyph-name="U" unicode="U" horiz-adv-x="839" 
d="M230.5 -10q-80.5 38 -125.5 112.5t-45 180.5v400q0 35 31 54.5t76 19.5q44 0 75 -20t31 -54v-432q0 -110 39 -165t108 -55q70 0 108 55t38 164v433q0 35 31 54.5t76 19.5q44 0 75 -20t31 -54v-399q0 -106 -45 -181t-126 -113t-189 -38t-188.5 38z" />
    <glyph glyph-name="V" unicode="V" horiz-adv-x="758" 
d="M25 742h213l205 -628l192 628h98l-240 -783h-213z" />
    <glyph glyph-name="W" unicode="W" horiz-adv-x="999" 
d="M25 742h212l109 -552l76 507q3 20 18.5 32.5t38.5 12.5h42q22 0 37.5 -11.5t18.5 -30.5l76 -511l110 553h211l-154 -783h-213l-107 692l-108 -692h-213z" />
    <glyph glyph-name="X" unicode="X" horiz-adv-x="768" 
d="M303 332l-273 410h233l165 -265l191 265h105l-246 -341l287 -442h-233l-179 297l-224 -297h-105z" />
    <glyph glyph-name="Y" unicode="Y" horiz-adv-x="758" 
d="M280 319l-255 423h213l203 -337l197 337h95l-240 -423v-360h-213v360z" />
    <glyph glyph-name="Z" unicode="Z" horiz-adv-x="676" 
d="M25 0l365 662h-365v80h601v-40l-365 -663h390v-80h-626v41z" />
    <glyph glyph-name="bracketleft" unicode="[" horiz-adv-x="347" 
d="M80 752h227v-90h-95v-672h95v-90h-227v852z" />
    <glyph glyph-name="backslash" unicode="\" horiz-adv-x="361" 
d="M20 742h129l192 -783h-129z" />
    <glyph glyph-name="bracketright" unicode="]" horiz-adv-x="347" 
d="M40 -10h95v672h-95v90h227v-852h-227v90z" />
    <glyph glyph-name="asciicircum" unicode="^" horiz-adv-x="490" 
d="M185 757h120l165 -300h-151l-74 149l-75 -149h-150z" />
    <glyph glyph-name="underscore" unicode="_" horiz-adv-x="540" 
d="M58 -54h424v-84h-424v84z" />
    <glyph glyph-name="grave" unicode="`" horiz-adv-x="486" 
d="M120 721l141 76l113 -257l-106 -57z" />
    <glyph glyph-name="a" unicode="a" horiz-adv-x="729" 
d="M114.5 16.5q-80.5 64.5 -80.5 195.5t82.5 195.5t218.5 64.5q81 0 145 -34q15 15 38.5 22.5t49.5 7.5q44 0 75 -20t31 -54v-435h-213v18q-25 -13 -61.5 -19t-74.5 -6q-130 0 -210.5 64.5zM428.5 43q26.5 11 32.5 19v297q-9 11 -35 22t-55 11q-58 0 -91 -42t-33 -131
q0 -95 34 -141t92 -46q29 0 55.5 11z" />
    <glyph glyph-name="b" unicode="b" horiz-adv-x="729" 
d="M268 -23v-18h-213v724q0 34 31 54t75 20q42 0 74.5 -20t32.5 -54v-236q25 13 61.5 19t74.5 6q80 0 145.5 -28t105.5 -86t40 -146q0 -132 -79.5 -196t-221.5 -64q-68 0 -126 25zM449 74q33 42 33 131q0 95 -34 141t-92 46q-29 0 -55.5 -11t-32.5 -19v-297q9 -11 35 -22
t55 -11q58 0 91 42z" />
    <glyph glyph-name="c" unicode="c" horiz-adv-x="686" 
d="M180.5 -15.5q-73.5 33.5 -110 93.5t-36.5 137q0 73 36.5 131t109 91.5t175.5 33.5q76 0 140 -21t105.5 -59t51.5 -87h-198q-26 88 -99 88q-58 0 -83.5 -50t-25.5 -128q0 -81 27 -132.5t88 -51.5q39 0 67 23t36 73h198q-13 -86 -93.5 -130.5t-207.5 -44.5
q-107 0 -180.5 33.5z" />
    <glyph glyph-name="d" unicode="d" horiz-adv-x="729" 
d="M114.5 16.5q-80.5 64.5 -80.5 195.5t82.5 195.5t218.5 64.5q68 0 126 -25v236q0 34 32.5 54t74.5 20q44 0 75 -20t31 -54v-724h-213v18q-25 -13 -61.5 -19t-74.5 -6q-130 0 -210.5 64.5zM428.5 43q26.5 11 32.5 19v297q-9 11 -35 22t-55 11q-58 0 -91 -42t-33 -131
q0 -95 34 -141t92 -46q29 0 55.5 11z" />
    <glyph glyph-name="e" unicode="e" horiz-adv-x="711" 
d="M183 -15.5q-73 33.5 -111 93t-38 137.5t37.5 136t111 89.5t176.5 31.5q96 0 167 -35.5t110 -99.5t41 -148h-430q3 -71 30 -115t82 -44q40 0 69 23t41 73h198q-17 -87 -95.5 -131t-212.5 -44q-103 0 -176 33.5zM463 269q-19 124 -104 124q-43 0 -71.5 -32.5t-37.5 -91.5
h213z" />
    <glyph glyph-name="f" unicode="f" horiz-adv-x="486" 
d="M127 378h-117v80h117v128q0 77 50 116.5t157 39.5h126v-80q-49 0 -75 -11t-35.5 -31.5t-9.5 -53.5v-108h135l1 -80h-136v-419h-213v419z" />
    <glyph glyph-name="g" unicode="g" horiz-adv-x="729" 
d="M169 -166h128q67 0 100.5 12.5t46.5 43.5t16 96q-25 -12 -61 -18t-74 -6q-129 0 -210 64t-81 191q0 128 82.5 191.5t218.5 63.5q81 0 145 -34q15 15 38.5 22.5t49.5 7.5q44 0 75 -20t31 -54v-348q0 -108 -27.5 -168.5t-108.5 -91.5t-241 -31h-128v79zM428.5 53
q26.5 11 32.5 19v287q-9 11 -35 22t-55 11q-58 0 -91 -41.5t-33 -126.5q0 -91 34 -136.5t92 -45.5q29 0 55.5 11z" />
    <glyph glyph-name="h" unicode="h" horiz-adv-x="730" 
d="M55 683q0 34 31 54t75 20q42 0 74.5 -20t32.5 -54v-252q71 41 166 41q241 0 241 -267v-246h-213v266q0 90 -19 128.5t-69 38.5q-54 0 -106 -47v-386h-213v724z" />
    <glyph glyph-name="i" unicode="i" horiz-adv-x="364" 
d="M70 458h213v-499h-213v499zM84 549q-36 36 -36 86t36 86t86 36t86 -36t36 -86t-36 -86t-86 -36t-86 36z" />
    <glyph glyph-name="j" unicode="j" horiz-adv-x="404" 
d="M10 -170q44 0 63 18t25 63.5t6 150.5v396h213v-416q0 -106 -24 -167.5t-90.5 -92.5t-192.5 -31v79zM124 549q-36 36 -36 86t36 86t86 36t86 -36t36 -86t-36 -86t-86 -36t-86 36z" />
    <glyph glyph-name="k" unicode="k" horiz-adv-x="662" 
d="M55 683q0 34 31 54t75 20q42 0 74.5 -20t32.5 -54v-447l242 222h105l-166 -152l213 -347h-223l-118 229l-53 -48v-181h-213v724z" />
    <glyph glyph-name="l" unicode="l" horiz-adv-x="368" 
d="M348 -41q-122 0 -177 8t-83 40.5t-28 107.5v568q0 34 32.5 54t74.5 20q44 0 75 -20t31 -54v-597q0 -27 4 -37t19 -13.5t52 -3.5v-73z" />
    <glyph glyph-name="m" unicode="m" horiz-adv-x="883" 
d="M55 394q0 34 31.5 54t69.5 20q23 0 48.5 -10t39.5 -27q51 41 132 41q93 0 130 -59q52 59 150 59q89 0 130.5 -52t41.5 -163v-298h-203v343q0 47 -8.5 68.5t-26.5 21.5q-17 0 -32.5 -12t-26.5 -34q7 -36 7 -89v-298h-193v343q0 47 -8.5 68.5t-26.5 21.5q-30 0 -52 -34
v-399h-203v435z" />
    <glyph glyph-name="n" unicode="n" horiz-adv-x="730" 
d="M55 394q0 34 31 54t75 20q31 0 58 -11t40 -32q71 47 175 47q241 0 241 -267v-246h-213v266q0 90 -19 128.5t-69 38.5q-54 0 -106 -47v-386h-213v435z" />
    <glyph glyph-name="o" unicode="o" horiz-adv-x="722" 
d="M190 -16.5q-74 32.5 -115 91t-41 135.5t41 136.5t115 92t171 32.5t171 -32.5t115 -92t41 -136.5t-41 -135.5t-115 -91t-171 -32.5t-171 32.5zM448 81q28 51 28 128t-28 130t-87 53t-87 -53t-28 -130t28 -128t87 -51t87 51z" />
    <glyph glyph-name="p" unicode="p" horiz-adv-x="729" 
d="M55 394q0 34 32.5 54t74.5 20q27 0 51 -8t38 -23q61 35 153 35q80 0 145.5 -28t105.5 -86t40 -146q0 -132 -79.5 -196t-221.5 -64q-68 0 -126 25v-226h-213v643zM449 74q33 42 33 131q0 95 -34 141t-92 46q-29 0 -55.5 -11t-32.5 -19v-297q9 -11 35 -22t55 -11
q58 0 91 42z" />
    <glyph glyph-name="q" unicode="q" horiz-adv-x="729" 
d="M461 -23q-25 -13 -61.5 -19t-74.5 -6q-130 0 -210.5 64.5t-80.5 195.5t82.5 195.5t218.5 64.5q81 0 145 -34q15 15 38.5 22.5t49.5 7.5q44 0 75 -20t31 -54v-643h-213v226zM428.5 43q26.5 11 32.5 19v297q-9 11 -35 22t-55 11q-58 0 -91 -42t-33 -131q0 -95 34 -141
t92 -46q29 0 55.5 11z" />
    <glyph glyph-name="r" unicode="r" horiz-adv-x="535" 
d="M60 394q0 34 31 54t75 20q30 0 57 -11t40 -31q74 46 170 46q52 0 82 -12v-127q-44 36 -107 36q-75 0 -135 -37v-373h-213v435z" />
    <glyph glyph-name="s" unicode="s" horiz-adv-x="628" 
d="M121 -7q-84 41 -96 131h198q13 -46 40.5 -72t62.5 -26t57 16t22 40q0 21 -20 38t-73 35q-127 40 -190.5 81.5t-63.5 95.5q0 67 70 103t190 36t196 -43.5t83 -122.5h-207q-1 46 -20.5 69t-51.5 23q-28 0 -45 -15t-17 -38q0 -26 20.5 -41.5t67.5 -32.5q79 -26 132.5 -49.5
t90 -56.5t36.5 -76q0 -71 -74.5 -103.5t-202.5 -32.5q-121 0 -205 41z" />
    <glyph glyph-name="t" unicode="t" horiz-adv-x="506" 
d="M485 -41q-160 0 -228 8t-99 40t-31 108v263h-117v80h117v105q0 34 32.5 54t74.5 20q44 0 75 -20t31 -54v-105h155l1 -80h-156v-292q0 -27 7.5 -37t35.5 -13.5t102 -3.5v-73z" />
    <glyph glyph-name="u" unicode="u" horiz-adv-x="725" 
d="M112 22q-57 63 -57 204v168q0 34 31 54t75 20q42 0 74.5 -20t32.5 -54v-188q0 -85 15.5 -126t58.5 -41q62 0 115 44v311q0 34 31 54t75 20q42 0 74.5 -20t32.5 -54v-435h-213v37q-66 -37 -161 -37q-127 0 -184 63z" />
    <glyph glyph-name="v" unicode="v" horiz-adv-x="627" 
d="M20 458h215l147 -372l130 372h95l-175 -499h-213z" />
    <glyph glyph-name="w" unicode="w" horiz-adv-x="822" 
d="M20 458h195l72 -377l74 352q2 12 12 18.5t25 6.5h23q31 0 37 -25l77 -352l72 377h195l-114 -499h-193l-85 385l-83 -385h-193z" />
    <glyph glyph-name="x" unicode="x" horiz-adv-x="610" 
d="M227 183l-212 275h213l109 -154l124 154h104l-177 -219l222 -280h-213l-117 161l-130 -161h-105z" />
    <glyph glyph-name="y" unicode="y" horiz-adv-x="725" 
d="M165 -166h128q73 0 106.5 14.5t45 52.5t12.5 120q-57 -52 -146 -52q-125 0 -190.5 66t-65.5 201v158q0 34 31 54t75 20q42 0 74.5 -20t32.5 -54v-178q0 -167 79 -167q34 0 60.5 18.5t49.5 52.5v274q0 34 32.5 54t74.5 20q44 0 75 -20t31 -54v-348q0 -108 -27.5 -168.5
t-108.5 -91.5t-241 -31h-128v79z" />
    <glyph glyph-name="z" unicode="z" horiz-adv-x="586" 
d="M55 0l235 378h-245v80h481v-40l-235 -379h260v-80h-496v41z" />
    <glyph glyph-name="braceleft" unicode="{" horiz-adv-x="361" 
d="M321 -100q-109 0 -168 61.5t-59 177.5q0 59 -13.5 96.5t-60.5 37.5v106q47 0 60.5 37.5t13.5 96.5q0 116 59 177.5t168 61.5v-106q-48 0 -71 -31.5t-23 -100.5q0 -63 -9.5 -109t-37.5 -79q28 -33 37.5 -79t9.5 -109q0 -69 23 -100.5t71 -31.5v-106z" />
    <glyph glyph-name="bar" unicode="|" horiz-adv-x="382" 
d="M120 800h142v-1045h-142v1045z" />
    <glyph glyph-name="braceright" unicode="}" horiz-adv-x="361" 
d="M40 6q48 0 71 31.5t23 100.5q0 63 9.5 109t37.5 79q-28 33 -37.5 79t-9.5 109q0 69 -23 100.5t-71 31.5v106q103 0 165 -62.5t62 -176.5q0 -59 13.5 -96.5t60.5 -37.5v-106q-47 0 -60.5 -37.5t-13.5 -96.5q0 -114 -62 -176.5t-165 -62.5v106z" />
    <glyph glyph-name="asciitilde" unicode="~" horiz-adv-x="910" 
d="M488 201.5q-41 21.5 -78 73.5q-28 41 -42 57t-32 16q-23 0 -39 -37.5t-19 -106.5l-198 3q5 104 68.5 163t167.5 59q65 0 106 -21.5t78 -73.5q28 -41 42 -57t32 -16q23 0 39 37.5t19 106.5l198 -3q-5 -104 -68.5 -163t-167.5 -59q-65 0 -106 21.5z" />
    <glyph glyph-name="uni00A0" unicode="&#xa0;" horiz-adv-x="200" 
 />
    <glyph glyph-name="exclamdown" unicode="&#xa1;" horiz-adv-x="353" 
d="M109 -225q-29 20 -29 54q0 212 20 472h153q20 -260 20 -472q0 -34 -31 -54t-66 -20q-38 0 -67 20zM107 403q-29 28 -29 69t29 69.5t71 28.5q41 0 69 -28.5t28 -69.5q0 -40 -28 -68.5t-69 -28.5q-42 0 -71 28z" />
    <glyph glyph-name="cent" unicode="&#xa2;" horiz-adv-x="686" 
d="M230 -33q-96 26 -146 91.5t-50 156.5q0 73 36.5 131t109 91.5t175.5 33.5h17l20 71h129l-26 -92q64 -21 105.5 -59t51.5 -87h-198l-77 -273q33 4 56 27t31 68h198q-13 -86 -93.5 -130.5t-207.5 -44.5h-6l-26 -92h-129zM350 392q-63 -2 -93.5 -53t-30.5 -125
q0 -86 36 -135z" />
    <glyph glyph-name="sterling" unicode="&#xa3;" horiz-adv-x="667" 
d="M265 -38q-103 0 -155.5 23.5t-52.5 82.5q0 17 6 32.5t19 40.5q17 30 26 56t9 58v21h-82v109h82v31q0 110 41 187t113 115.5t165 38.5q57 0 108.5 -16.5t92.5 -43.5l-91 -81q-62 62 -109 62q-27 0 -51.5 -25t-40.5 -77t-16 -128v-63h196v-109h-196v-21q0 -36 -10 -66
t-28 -64q-12 -22 -17 -35t-5 -24q0 -13 12.5 -18.5t43.5 -5.5h310v-80h-370z" />
    <glyph glyph-name="currency" unicode="&#xa4;" horiz-adv-x="600" 
d="M45 118l62 61q-33 50 -33 114q0 58 33 113l-62 63l74 77l65 -65q47 31 116 31t116 -31l65 65l74 -77l-62 -63q33 -55 33 -113q0 -64 -33 -114l62 -61l-73 -77l-67 64q-53 -31 -115 -31t-115 31l-67 -64zM372 209q28 33 28 85t-28 84.5t-72 32.5t-72 -32.5t-28 -84.5
t28 -85t72 -33t72 33z" />
    <glyph glyph-name="yen" unicode="&#xa5;" horiz-adv-x="758" 
d="M280 122h-160v80h160v80h-160v80h160v27l-255 353h213l202 -280l198 280h95l-240 -353v-27h146v-80h-146v-80h146v-80h-146v-163h-213v163z" />
    <glyph glyph-name="section" unicode="&#xa7;" horiz-adv-x="600" 
d="M155.5 -219q-63.5 17 -124.5 51l58 94q103 -62 213 -61q54 0 84.5 16.5t30.5 40.5q0 25 -30.5 48t-88.5 48q-77 31 -130 60.5t-89.5 73.5t-36.5 105q0 52 21 95t86 91q-118 71 -118 155t72.5 122t199.5 38q78 0 141.5 -17t124.5 -51l-58 -94q-103 62 -213 61
q-54 0 -84.5 -16.5t-30.5 -40.5q0 -25 30.5 -48t88.5 -48q80 -35 130 -62.5t88 -72t38 -104.5q0 -52 -21 -95t-86 -91q118 -71 118 -155t-72.5 -122t-199.5 -38q-78 0 -141.5 17zM363 199.5q15 28.5 15 65.5q0 40 -23.5 65t-65.5 45q-37 -24 -52 -52.5t-15 -65.5
q0 -40 23.5 -65t65.5 -45q37 24 52 52.5z" />
    <glyph glyph-name="dieresis" unicode="&#xa8;" horiz-adv-x="689" 
d="M392 570.5q-29 28.5 -29 69.5t29 69t71 28q41 0 69 -28t28 -69t-28 -69.5t-69 -28.5q-42 0 -71 28.5zM122 570.5q-29 28.5 -29 69.5t29 69t71 28q41 0 69 -28t28 -69t-28 -69.5t-69 -28.5q-42 0 -71 28.5z" />
    <glyph glyph-name="ordfeminine" unicode="&#xaa;" horiz-adv-x="440" 
d="M77 498q-42 47 -42 134q0 93 40.5 137t107.5 44q51 0 94 -23q10 9 24.5 14.5t28.5 5.5q19 0 37 -13.5t18 -35.5v-305h-120v11q-16 -8 -38.5 -12t-40.5 -4q-67 0 -109 47zM245.5 511.5q15.5 7.5 19.5 12.5v214q-5 7 -20.5 14.5t-28.5 7.5q-30 0 -45.5 -29t-15.5 -94
q0 -64 16.5 -98.5t45.5 -34.5q13 0 28.5 7.5z" />
    <glyph glyph-name="guillemotleft" unicode="&#xab;" horiz-adv-x="616" vert-adv-y="1100" 
d="M255 326l192 356h129l-172 -356l172 -357h-129zM217 682h129l-172 -356l172 -357h-129l-192 357z" />
    <glyph glyph-name="registered" unicode="&#xae;" 
d="M265 -99q-105 60 -165 165t-60 235t60 235t165 165t235 60t235 -60t165 -165t60 -235t-60 -235t-165 -165t-235 -60t-235 60zM678.5 -20.5q79.5 48.5 125 133t45.5 188.5t-45.5 188.5t-125 133t-178.5 48.5t-178.5 -48.5t-125 -133t-45.5 -188.5t45.5 -188.5t125 -133
t178.5 -48.5t178.5 48.5zM323 510h201q72 0 111.5 -30.5t39.5 -83.5q0 -37 -18 -62.5t-51 -38.5l92 -182h-145l-70 172h-27v-174h-133v399zM498 343q43 0 43 56q0 28 -11 42.5t-32 14.5h-42v-113h42z" />
    <glyph glyph-name="degree" unicode="&#xb0;" horiz-adv-x="600" 
d="M138 507q-35 20 -55.5 54t-20.5 74q0 41 20.5 75t55.5 54t78 20t78 -20t55.5 -54t20.5 -75q0 -40 -20.5 -74t-55.5 -54t-78 -20t-78 20zM262 588.5q18 19.5 18 47.5t-18 47t-47 19q-27 0 -45.5 -19.5t-18.5 -46.5q0 -28 18.5 -47.5t45.5 -19.5q29 0 47 19.5z" />
    <glyph glyph-name="plusminus" unicode="&#xb1;" horiz-adv-x="670" 
d="M239 383h-181v80h181v180h193v-180h180v-80h-180v-180h-193v180zM58 157h554v-80h-554v80z" />
    <glyph glyph-name="uni00B2" unicode="&#xb2;" horiz-adv-x="421" 
d="M64 509q5 13 17.5 24.5t50.5 44.5q51 44 77 76t26 68q0 51 -23 51q-14 0 -20.5 -18t-7.5 -55h-124q4 64 43 97.5t111 33.5q69 0 109.5 -32.5t40.5 -93.5q0 -44 -26.5 -80.5t-74.5 -81.5q-25 -22 -35 -34h138v-58h-302v58z" />
    <glyph glyph-name="uni00B3" unicode="&#xb3;" horiz-adv-x="426" 
d="M98.5 471.5q-45.5 30.5 -48.5 90.5h123q1 -35 11 -49t32 -14q21 0 30.5 12t9.5 42q0 29 -10 41t-31 12h-113v58h106q17 0 24 12t7 40q0 25 -7 38.5t-19 13.5q-16 0 -22.5 -14.5t-8.5 -49.5h-123q3 56 45 88.5t110 32.5q71 0 112.5 -31t41.5 -78q0 -46 -34 -75
q52 -27 52 -87q0 -54 -48.5 -83.5t-119.5 -29.5q-74 0 -119.5 30.5z" />
    <glyph glyph-name="acute" unicode="&#xb4;" horiz-adv-x="486" 
d="M120 540l113 257l141 -76l-148 -238z" />
    <glyph glyph-name="paragraph" unicode="&#xb6;" horiz-adv-x="753" 
d="M411 293q-86 0 -160 23.5t-119.5 74t-45.5 127.5q0 78 46 128t119.5 73t159.5 23h166q39 0 60.5 -17t21.5 -49v-806h-95v778h-58v-778h-95v423z" />
    <glyph glyph-name="periodcentered" unicode="&#xb7;" horiz-adv-x="335" 
d="M98 270.5q-29 28.5 -29 69.5t29 69t71 28q41 0 69 -28t28 -69t-28 -69.5t-69 -28.5q-42 0 -71 28.5z" />
    <glyph glyph-name="cedilla" unicode="&#xb8;" horiz-adv-x="447" 
d="M77 -189l7 45q39 -1 77 -1q29 0 40.5 10.5t11.5 31.5q0 42 -57 50q-18 3 -18 17l1 7l10 61q3 17 26 22t44.5 -3t21.5 -25l-7 -47q56 -4 92.5 -25.5t36.5 -61.5q0 -45 -46 -68.5t-135 -23.5q-71 0 -105 11z" />
    <glyph glyph-name="uni00B9" unicode="&#xb9;" horiz-adv-x="353" 
d="M50 509h73v196h-68v58h68v23q0 21 19 33t46 12q24 0 44.5 -12t20.5 -33v-277h50v-58h-253v58z" />
    <glyph glyph-name="ordmasculine" unicode="&#xba;" horiz-adv-x="433" 
d="M87 502q-49 50 -49 133t49 132.5t130 49.5t129.5 -49.5t48.5 -132.5t-49 -133t-129 -50q-81 0 -130 50zM256.5 545.5q14.5 33.5 14.5 89.5t-14.5 89t-39.5 33t-39.5 -33t-14.5 -89t14.5 -89.5t39.5 -33.5t39.5 33.5z" />
    <glyph glyph-name="guillemotright" unicode="&#xbb;" horiz-adv-x="616" vert-adv-y="1100" 
d="M442 326l-172 356h129l192 -356l-192 -357h-129zM212 326l-172 356h129l192 -356l-192 -357h-129z" />
    <glyph glyph-name="onequarter" unicode="&#xbc;" horiz-adv-x="916" 
d="M614 742h136l-481 -783h-136zM50 429h73v196h-68v58h68v23q0 21 19 33t46 12q24 0 44.5 -12t20.5 -33v-277h50v-58h-253v58zM721 53h-54q-45 0 -70 4.5t-40 22t-15 54.5v162q0 20 20 32t45 12q26 0 45 -12t19 -32v-172q0 -10 1.5 -11.5t11.5 -1.5h37v185q0 20 19 32
t45 12q25 0 45 -12t20 -32v-185h41v-58h-41v-94h-129v94z" />
    <glyph glyph-name="onehalf" unicode="&#xbd;" horiz-adv-x="901" 
d="M614 742h136l-481 -783h-136zM50 429h73v196h-68v58h68v23q0 21 19 33t46 12q24 0 44.5 -12t20.5 -33v-277h50v-58h-253v58zM544 17h3q5 13 20.5 28.5t44.5 40.5q51 44 77 76t26 68q0 51 -23 51q-14 0 -20.5 -18t-7.5 -55h-124q4 64 43 97.5t111 33.5q69 0 109.5 -32.5
t40.5 -93.5q0 -44 -26.5 -80.5t-74.5 -81.5q-25 -22 -35 -34h138v-58h-302v58z" />
    <glyph glyph-name="threequarters" unicode="&#xbe;" horiz-adv-x="936" 
d="M634 742h136l-481 -783h-136zM98.5 397.5q-45.5 30.5 -48.5 90.5h123q1 -35 11 -49t32 -14q21 0 30.5 12t9.5 42q0 29 -10 41t-31 12h-113v58h106q17 0 24 12t7 40q0 25 -7 38.5t-19 13.5q-16 0 -22.5 -14.5t-8.5 -49.5h-123q3 56 45 88.5t110 32.5q71 0 112.5 -31
t41.5 -78q0 -46 -34 -75q52 -27 52 -87q0 -54 -48.5 -83.5t-119.5 -29.5q-74 0 -119.5 30.5zM741 53h-54q-45 0 -70 4.5t-40 22t-15 54.5v162q0 20 20 32t45 12q26 0 45 -12t19 -32v-172q0 -10 1.5 -11.5t11.5 -1.5h37v185q0 20 19 32t45 12q25 0 45 -12t20 -32v-185h41v-58
h-41v-94h-129v94z" />
    <glyph glyph-name="questiondown" unicode="&#xbf;" horiz-adv-x="600" 
d="M151 -223.5q-60 21.5 -93 61t-33 92.5q0 47 22.5 85.5t76.5 87.5q83 76 83 198h153q5 -64 -6.5 -113t-43.5 -94q-37 -53 -55 -91t-18 -78q0 -39 17 -65t49 -26q68 0 74 142h198q-8 -101 -83.5 -161t-201.5 -60q-79 0 -139 21.5zM213.5 403.5q-28.5 28.5 -28.5 68.5
q0 41 28 69.5t69 28.5q42 0 71 -28.5t29 -69.5t-29 -69t-71 -28q-40 0 -68.5 28.5z" />
    <glyph glyph-name="AE" unicode="&#xc6;" horiz-adv-x="909" 
d="M60 412q0 106 44.5 180t123.5 112t182 38h439v-80h-226v-255h216v-80h-216v-231q0 -26 3 -36.5t14 -14t38 -3.5h180v-80h-240q-78 0 -119 8t-65 41.5t-24 106.5v114h-138v-272h-212v452zM410 663q-63 -1 -100.5 -56t-37.5 -163v-132h138v351z" />
    <glyph glyph-name="Eth" unicode="&#xd0;" horiz-adv-x="825" 
d="M298 -38q-78 0 -119 8t-65 41.5t-24 106.5v204h-65v80h65v340h284q421 0 421 -387q0 -165 -54 -251.5t-137.5 -114t-199.5 -27.5h-106zM492 65q43 23 66.5 91.5t23.5 200.5q0 151 -55 233t-169 82h-55v-270h131v-80h-131v-226q0 -27 4 -37t19 -13.5t52 -3.5q71 0 114 23z
" />
    <glyph glyph-name="multiply" unicode="&#xd7;" horiz-adv-x="597" 
d="M228 356l-178 211h142l107 -127l106 127h142l-177 -211l177 -212h-142l-106 127l-107 -127h-142z" />
    <glyph glyph-name="Oslash" unicode="&#xd8;" horiz-adv-x="855" 
d="M229 -2l-30 -39h-136l79 103q-52 52 -79.5 126t-27.5 167q0 127 51.5 217.5t140.5 137.5t201 47q118 0 208 -51l28 36h136l-79 -103q48 -51 73.5 -123t25.5 -161q0 -127 -51.5 -218t-140 -138t-200.5 -47q-110 0 -199 46zM561.5 114.5q48.5 83.5 48.5 240.5q0 73 -10 126
l-295 -384q47 -66 123 -66q85 0 133.5 83.5zM557 602q-47 76 -129 76q-86 0 -134 -83.5t-48 -239.5q0 -82 13 -141z" />
    <glyph glyph-name="Thorn" unicode="&#xde;" horiz-adv-x="770" 
d="M60 683q0 34 32.5 54t74.5 20q44 0 75 -20t31 -54v-111h181q137 0 209 -59.5t72 -174.5q0 -116 -70 -173t-201 -57h-191v-149h-213v724zM382 188q140 0 140 155q0 76 -32.5 117.5t-87.5 41.5h-129v-314h109z" />
    <glyph glyph-name="germandbls" unicode="&#xdf;" horiz-adv-x="795" 
d="M60 483q0 125 74.5 192t224.5 67h85q129 0 200 -52.5t71 -147.5q0 -55 -25 -97t-73 -68q71 -24 109.5 -73t38.5 -122q0 -108 -71 -164t-190 -56h-151v80h59q59 0 99.5 36.5t40.5 105.5q0 45 -19.5 77.5t-51.5 49.5t-69 17h-60v80h30q54 0 87 37t33 92t-33 90t-87 35
q-49 0 -79 -41.5t-30 -123.5v-535h-213v521z" />
    <glyph glyph-name="ae" unicode="&#xe6;" 
d="M594 -40v-1h-193v17q-43 -24 -116 -24q-64 0 -119 28t-88.5 86.5t-33.5 145.5q0 88 31.5 146t84 86t115.5 28q81 0 145 -34q14 14 35.5 22t42.5 8q34 0 59 -15q55 19 122 19q82 0 146.5 -35.5t102 -100t39.5 -147.5h-370q3 -68 24.5 -113.5t57.5 -45.5q29 0 49 25.5
t31 70.5h198q-17 -86 -91 -130.5t-187 -44.5q-46 0 -85 9zM367 42q26 10 34 20v297q-9 11 -33 22t-47 11q-36 0 -60 -43t-24 -130q0 -187 86 -187q18 0 44 10zM754 269q-13 124 -75 124q-37 0 -56.5 -31.5t-24.5 -92.5h156z" />
    <glyph glyph-name="eth" unicode="&#xf0;" horiz-adv-x="722" 
d="M192.5 -18.5q-74.5 30.5 -116 85t-41.5 123.5q0 70 41.5 124.5t116 85.5t169.5 31q56 0 106 -11q-23 86 -102 113l-11 4l-58 -51q-20 -18 -42 -18.5t-41 14.5q-18 15 -14.5 41t27.5 47l6 5q-31 10 -52 19l-10 96q75 -26 145 -42l75 67q17 15 39 16t40 -13
q20 -14 16.5 -42t-28.5 -49l-11 -10q238 -82 242 -423v-4q0 -69 -41.5 -123.5t-116 -85t-169.5 -30.5t-169.5 30.5zM444.5 74.5q32.5 44.5 32.5 114.5q0 71 -32.5 117t-82.5 46t-82.5 -46t-32.5 -117q0 -70 32.5 -114.5t82.5 -44.5t82.5 44.5z" />
    <glyph glyph-name="divide" unicode="&#xf7;" horiz-adv-x="670" 
d="M58 393h554v-80h-554v80zM271 112q-26 26 -26 64t26 63.5t65 25.5q38 0 63.5 -25.5t25.5 -63.5t-25.5 -64t-63.5 -26q-39 0 -65 26zM271 467q-27 26 -27 64q0 37 27 63t65 26t64 -26t26 -63q0 -38 -26 -64t-64 -26t-65 26z" />
    <glyph glyph-name="oslash" unicode="&#xf8;" horiz-adv-x="722" 
d="M213 -26l-14 -15h-136l60 63q-43 33 -66 78.5t-23 99.5q0 72 41 129.5t115.5 89.5t170.5 32q80 0 146 -23l28 30h136l-73 -78q43 -33 66.5 -79.5t23.5 -100.5q0 -72 -41 -128.5t-115 -88.5t-171 -32q-82 0 -148 23zM447.5 79.5q28.5 49.5 28.5 119.5q0 28 -4 49
l-180 -191q27 -27 69 -27q58 0 86.5 49.5zM428 345q-27 27 -67 27q-58 0 -86.5 -51.5t-28.5 -121.5q0 -22 3 -43z" />
    <glyph glyph-name="thorn" unicode="&#xfe;" horiz-adv-x="729" 
d="M55 684q0 34 32.5 54t74.5 20q44 0 75 -20t31 -54v-238q56 26 136 26t145.5 -28t105.5 -86t40 -146q0 -132 -79.5 -196t-221.5 -64q-68 0 -126 25v-226h-213v933zM449 74q33 42 33 131q0 95 -34 141t-92 46q-29 0 -55.5 -11t-32.5 -19v-297q9 -11 35 -22t55 -11
q58 0 91 42z" />
    <glyph glyph-name="dcroat" unicode="&#x111;" horiz-adv-x="766" 
d="M114.5 16.5q-80.5 64.5 -80.5 195.5t82.5 195.5t218.5 64.5q68 0 126 -25v131h-131v80h131v25q0 34 32.5 54t74.5 20q44 0 75 -20t31 -54v-25h71l1 -80h-72v-619h-213v18q-25 -13 -61.5 -19t-74.5 -6q-130 0 -210.5 64.5zM428.5 43q26.5 11 32.5 19v297q-9 11 -35 22
t-55 11q-58 0 -91 -42t-33 -131q0 -95 34 -141t92 -46q29 0 55.5 11z" />
    <glyph glyph-name="Hbar" unicode="&#x126;" horiz-adv-x="859" 
d="M70 592h-45v80h45v11q0 34 32.5 54t74.5 20q44 0 75 -20t31 -54v-11h293v11q0 34 32.5 54t74.5 20q44 0 75 -20t31 -54v-11h45v-80h-45v-633h-213v368h-293v-368h-213v633zM576 407v185h-293v-185h293z" />
    <glyph glyph-name="hbar" unicode="&#x127;" horiz-adv-x="780" 
d="M105 578h-85v80h85v25q0 34 31 54t75 20q42 0 74.5 -20t32.5 -54v-25h137l1 -80h-138v-147q71 41 166 41q241 0 241 -267v-246h-213v266q0 90 -19 128.5t-69 38.5q-54 0 -106 -47v-386h-213v619z" />
    <glyph glyph-name="dotlessi" unicode="&#x131;" horiz-adv-x="364" 
d="M70 458h213v-499h-213v499z" />
    <glyph glyph-name="IJ" unicode="&#x132;" horiz-adv-x="1070" 
d="M506.5 -25q-60.5 30 -89 95.5t-28.5 173.5h212q0 -86 6.5 -133.5t20.5 -67t40 -19.5t40.5 22t21.5 80t7 169v388q0 34 32.5 54t74.5 20q44 0 75 -20t31 -54v-388q0 -127 -26 -202.5t-87 -111.5t-170 -36q-100 0 -160.5 30zM120 683q0 34 32.5 54t74.5 20q44 0 75 -20
t31 -54v-724h-213v724z" />
    <glyph glyph-name="ij" unicode="&#x133;" horiz-adv-x="708" 
d="M314 -170q44 0 63 18t25 63.5t6 150.5v396h213v-416q0 -106 -24 -167.5t-90.5 -92.5t-192.5 -31v79zM70 458h213v-499h-213v499zM84 549q-36 36 -36 86t36 86t86 36t86 -36t36 -86t-36 -86t-86 -36t-86 36zM428 549q-36 36 -36 86t36 86t86 36t86 -36t36 -86t-36 -86
t-86 -36t-86 36z" />
    <glyph glyph-name="kgreenlandic" unicode="&#x138;" horiz-adv-x="600" 
d="M55 393q0 34 31 54t75 20q42 0 74.5 -20t32.5 -54v-157l242 222h105l-166 -152l213 -347h-223l-118 229l-53 -48v-181h-213v434z" />
    <glyph glyph-name="Ldot" unicode="&#x13f;" horiz-adv-x="668" 
d="M268 -38q-78 0 -119 8t-65 41.5t-24 106.5v565q0 34 32.5 54t74.5 20q44 0 75 -20t31 -54v-587q0 -26 3 -36.5t14 -14t38 -3.5h310v-80h-370zM384 299q-36 36 -36 86t36 86t86 36t86 -36t36 -86t-36 -86t-86 -36t-86 36z" />
    <glyph glyph-name="ldot" unicode="&#x140;" horiz-adv-x="622" 
d="M348 -41q-122 0 -177 8t-83 40.5t-28 107.5v568q0 34 32.5 54t74.5 20q44 0 75 -20t31 -54v-597q0 -27 4 -37t19 -13.5t52 -3.5v-73zM384 299q-36 36 -36 86t36 86t86 36t86 -36t36 -86t-36 -86t-86 -36t-86 36z" />
    <glyph glyph-name="Lslash" unicode="&#x141;" horiz-adv-x="732" 
d="M332 -38q-78 0 -119 8t-65 41.5t-24 106.5v189l-39 -16q-23 -10 -44.5 -3t-34.5 27q-12 20 -0.5 42.5t41.5 35.5l77 31v259q0 34 32.5 54t74.5 20q44 0 75 -20t31 -54v-172l56 23q21 8 42 2t34 -25q14 -20 1.5 -44.5t-43.5 -37.5l-90 -36v-297q0 -26 3 -36.5t14 -14
t38 -3.5h310v-80h-370z" />
    <glyph glyph-name="lslash" unicode="&#x142;" horiz-adv-x="506" 
d="M428 -41q-122 0 -177 8t-83 40.5t-28 107.5v194l-45 -18q-23 -10 -44.5 -3t-34.5 27q-12 20 -0.5 43t41.5 35l83 34v256q0 34 32.5 54t74.5 20q44 0 75 -20t31 -54v-169l50 20q21 8 42 2t34 -25q14 -20 1.5 -44.5t-43.5 -37.5l-84 -34v-309q0 -27 4 -37t19 -13.5t52 -3.5
v-73z" />
    <glyph glyph-name="napostrophe" unicode="&#x149;" horiz-adv-x="840" 
d="M165 394q0 34 31 54t75 20q31 0 58 -11t40 -32q71 47 175 47q241 0 241 -267v-246h-213v266q0 90 -19 128.5t-69 38.5q-54 0 -106 -47v-386h-213v435zM13 378.5q-17 17.5 -11 44.5l38 161q6 27 25.5 40t45.5 13q22 0 41.5 -9.5t29 -26t1.5 -36.5l-59 -159
q-9 -23 -25.5 -34t-38.5 -11q-30 0 -47 17.5z" />
    <glyph glyph-name="Eng" unicode="&#x14a;" horiz-adv-x="839" 
d="M472 -170q35 0 53.5 11t27 38.5t11.5 82.5l-291 549v-552h-213v724q0 34 32.5 54t74.5 20q33 0 58.5 -9t36.5 -29l304 -577v541q0 34 32.5 54t74.5 20q44 0 75 -20t31 -54v-641q0 -106 -24 -167.5t-90.5 -92.5t-192.5 -31v79z" />
    <glyph glyph-name="eng" unicode="&#x14b;" horiz-adv-x="730" 
d="M368 -170q44 0 63 18t25 63.5t6 150.5v163q0 90 -19 128.5t-69 38.5q-54 0 -106 -47v-386h-213v435q0 34 31 54t75 20q31 0 58 -11t40 -32q71 47 175 47q241 0 241 -267v-163q0 -106 -24 -167.5t-90.5 -92.5t-192.5 -31v79z" />
    <glyph glyph-name="OE" unicode="&#x152;" horiz-adv-x="949" 
d="M227 -1q-89 47 -140.5 138t-51.5 218t51.5 217.5t140.5 137.5t201 47q63 0 120 -15h341v-80h-226v-255h216v-80h-216v-231q0 -26 3 -36.5t14 -14t38 -3.5h180v-80h-240q-30 0 -58.5 1t-48.5 5q-57 -16 -123 -16q-112 0 -201 47zM462 35q-12 32 -12 83v559q-7 1 -22 1
q-86 0 -134 -83.5t-48 -239.5q0 -157 48 -240.5t134 -83.5q19 0 34 4z" />
    <glyph glyph-name="oe" unicode="&#x153;" 
d="M176.5 -16.5q-66.5 32.5 -104.5 91.5t-38 135q0 77 38 136t104.5 92t149.5 33q101 0 174 -48q70 49 187 49q82 0 146.5 -35.5t102 -100t39.5 -147.5h-360q2 -69 20.5 -114t51.5 -45q24 0 46 23t34 73h198q-17 -86 -91 -130.5t-187 -44.5q-105 0 -179 52q-77 -52 -182 -52
q-83 0 -149.5 32.5zM382.5 81.5q18.5 51.5 18.5 127.5q0 77 -18.5 130t-56.5 53t-59 -54t-21 -129q0 -74 21 -126.5t59 -52.5t56.5 51.5zM761 269q-9 61 -28.5 92.5t-45.5 31.5q-32 0 -49 -30.5t-22 -93.5h145z" />
    <glyph glyph-name="Tbar" unicode="&#x166;" horiz-adv-x="706" 
d="M247 377h-152v80h152v205h-222v80h656v-80h-221v-205h151v-80h-151v-418h-213v418z" />
    <glyph glyph-name="tbar" unicode="&#x167;" horiz-adv-x="506" 
d="M485 -41q-160 0 -228 8t-99 40t-31 108v93h-77v80h77v90h-117v80h117v105q0 34 32.5 54t74.5 20q44 0 75 -20t31 -54v-105h155l1 -80h-156v-90h115l1 -80h-116v-122q0 -27 7.5 -37t35.5 -13.5t102 -3.5v-73z" />
    <glyph glyph-name="caron" unicode="&#x2c7;" horiz-adv-x="609" 
d="M37 618l78 106l190 -149l190 149l77 -106l-220 -121q-21 -12 -42.5 -13.5t-38.5 7.5z" />
    <glyph glyph-name="uni02D0" unicode="&#x2d0;" horiz-adv-x="600" 
d="M47 683h235l-117 -235zM165 261l117 -235h-235z" />
    <glyph glyph-name="breve" unicode="&#x2d8;" horiz-adv-x="613" 
d="M137 549.5q-64 52.5 -84 153.5l139 36q10 -93 39.5 -140t74.5 -47t75 47t40 139l139 -36q-20 -100 -84.5 -152.5t-169.5 -52.5t-169 52.5z" />
    <glyph glyph-name="dotaccent" unicode="&#x2d9;" horiz-adv-x="600" 
d="M231 570.5q-29 28.5 -29 69.5t29 69t71 28q41 0 69 -28t28 -69t-28 -69.5t-69 -28.5q-42 0 -71 28.5z" />
    <glyph glyph-name="ring" unicode="&#x2da;" horiz-adv-x="496" 
d="M170 547q-35 20 -55.5 54t-20.5 74q0 41 20.5 75t55.5 54t78 20t78 -20t55.5 -54t20.5 -75q0 -40 -20.5 -74t-55.5 -54t-78 -20t-78 20zM294 628.5q18 19.5 18 47.5t-18 47t-47 19q-27 0 -45.5 -19.5t-18.5 -46.5q0 -28 18.5 -47.5t45.5 -19.5q29 0 47 19.5z" />
    <glyph glyph-name="ogonek" unicode="&#x2db;" horiz-adv-x="458" 
d="M132.5 -175.5q-38.5 24.5 -38.5 74.5q0 39 33 68.5t82 45.5t96 16l7 -43q-36 -11 -52.5 -25t-16.5 -43q0 -23 12 -32.5t31 -11t53 0.5l33 1l5 -60q-44 -9 -67.5 -12.5t-64.5 -3.5q-74 0 -112.5 24.5z" />
    <glyph glyph-name="tilde" unicode="&#x2dc;" horiz-adv-x="910" 
d="M488 491.5q-41 21.5 -78 73.5q-28 41 -42 57t-32 16q-23 0 -39 -37.5t-19 -106.5l-198 3q5 104 68.5 163t167.5 59q65 0 106 -21.5t78 -73.5q28 -41 42 -57t32 -16q23 0 39 37.5t19 106.5l198 -3q-5 -104 -68.5 -163t-167.5 -59q-65 0 -106 21.5z" />
    <glyph glyph-name="hungarumlaut" unicode="&#x2dd;" horiz-adv-x="554" 
d="M260 530l113 257l141 -76l-148 -238zM153 797l141 -76l-148 -238l-106 57z" />
    <glyph glyph-name="Alpha" unicode="&#x391;" horiz-adv-x="820" 
d="M60 426q0 106 44.5 180.5t123 112.5t181.5 38q133 0 221 -60q62 -42 96 -111t34 -161v-465h-211v272h-277v-272h-212v466zM549 312v147q0 76 -20 127q-17 46 -47.5 69t-71.5 23q-63 0 -100.5 -55.5t-37.5 -164.5v-146h277z" />
    <glyph glyph-name="Beta" unicode="&#x392;" horiz-adv-x="795" 
d="M268 -38q-78 0 -119 8t-65 41.5t-24 106.5v624h414q109 0 175 -53t66 -147q0 -55 -25 -97t-73 -68q71 -24 109.5 -73t38.5 -122q0 -108 -71 -164t-190 -56h-236zM412 42q59 0 99.5 36.5t40.5 105.5q0 45 -19.5 77.5t-51.5 49.5t-69 17h-139v-232q0 -26 3 -36.5t14 -14
t38 -3.5h84zM382 408q54 0 87 37t33 92t-33 90t-87 35h-109v-254h109z" />
    <glyph glyph-name="Gamma" unicode="&#x393;" horiz-adv-x="654" 
d="M60 742h569v-80h-356v-700h-213v780z" />
    <glyph glyph-name="uni0394" unicode="&#x394;" horiz-adv-x="862" 
d="M139 531q15 80 46.5 128t90.5 72t156 24t156.5 -24t91 -72.5t45.5 -127.5l102 -569h-792zM571 42l-64 525q-7 58 -24.5 84.5t-50.5 26.5q-32 0 -49 -26t-25 -85l-67 -525h280z" />
    <glyph glyph-name="Epsilon" unicode="&#x395;" horiz-adv-x="689" 
d="M268 -38q-78 0 -119 8t-65 41.5t-24 106.5v624h569v-80h-356v-255h346v-80h-346v-231q0 -26 3 -36.5t14 -14t38 -3.5h310v-80h-370z" />
    <glyph glyph-name="Zeta" unicode="&#x396;" horiz-adv-x="676" 
d="M25 0l365 662h-365v80h601v-40l-365 -663h390v-80h-626v41z" />
    <glyph glyph-name="Eta" unicode="&#x397;" horiz-adv-x="839" 
d="M60 683q0 34 32.5 54t74.5 20q44 0 75 -20t31 -54v-276h293v276q0 34 32.5 54t74.5 20q44 0 75 -20t31 -54v-724h-213v368h-293v-368h-213v724z" />
    <glyph glyph-name="Theta" unicode="&#x398;" horiz-adv-x="855" 
d="M227 -1q-89 47 -140.5 138t-51.5 218t51.5 217.5t140.5 137.5t201 47t200.5 -47t140 -137.5t51.5 -217.5t-51.5 -218t-140 -138t-200.5 -47t-201 47zM561.5 114.5q48.5 83.5 48.5 240.5q0 156 -48.5 239.5t-133.5 83.5q-86 0 -134 -83.5t-48 -239.5q0 -157 48 -240.5
t134 -83.5q85 0 133.5 83.5zM301 407h254v-80h-254v80z" />
    <glyph glyph-name="Iota" unicode="&#x399;" horiz-adv-x="364" 
d="M70 683q0 34 32.5 54t74.5 20q44 0 75 -20t31 -54v-724h-213v724z" />
    <glyph glyph-name="Kappa" unicode="&#x39a;" horiz-adv-x="772" 
d="M60 683q0 34 32.5 54t74.5 20q44 0 75 -20t31 -54v-332l350 391h113l-254 -284l290 -496h-233l-176 363l-90 -100v-266h-213v724z" />
    <glyph glyph-name="Lambda" unicode="&#x39b;" horiz-adv-x="862" 
d="M139 531q15 80 46.5 128t90.5 72t156 24t156.5 -24t91 -72.5t45.5 -127.5l102 -569h-246l-74 605q-7 58 -24.5 84.5t-50.5 26.5q-32 0 -49 -26t-25 -85l-77 -605h-246z" />
    <glyph glyph-name="Mu" unicode="&#x39c;" horiz-adv-x="910" 
d="M60 683q0 36 29.5 55t77.5 19q75 0 103 -53l185 -343l195 355q12 22 38 31.5t56 9.5q50 0 78 -19t28 -55v-724h-213v569l-114 -229q-9 -18 -22.5 -28.5t-29.5 -10.5h-32q-31 0 -51 38l-115 230v-569h-213v724z" />
    <glyph glyph-name="Nu" unicode="&#x39d;" horiz-adv-x="839" 
d="M60 683q0 34 32.5 54t74.5 20q33 0 58.5 -9t36.5 -29l304 -577v541q0 34 32.5 54t74.5 20q44 0 75 -20t31 -54v-724h-213l-293 552v-552h-213v724z" />
    <glyph glyph-name="Xi" unicode="&#x39e;" horiz-adv-x="689" 
d="M61 742h568v-80h-568v80zM61 42h568v-80h-568v80zM93 397h526v-80h-526v80z" />
    <glyph glyph-name="Omicron" unicode="&#x39f;" horiz-adv-x="855" 
d="M227 -1q-89 47 -140.5 138t-51.5 218t51.5 217.5t140.5 137.5t201 47t200.5 -47t140 -137.5t51.5 -217.5t-51.5 -218t-140 -138t-200.5 -47t-201 47zM561.5 114.5q48.5 83.5 48.5 240.5q0 156 -48.5 239.5t-133.5 83.5q-86 0 -134 -83.5t-48 -239.5q0 -157 48 -240.5
t134 -83.5q85 0 133.5 83.5z" />
    <glyph glyph-name="Pi" unicode="&#x3a0;" horiz-adv-x="839" 
d="M60 683q0 34 32.5 54t74.5 20h506q44 0 75 -20t31 -54v-724h-213v718h-293v-718h-213v724z" />
    <glyph glyph-name="Rho" unicode="&#x3a1;" horiz-adv-x="770" 
d="M60 742h394q137 0 209 -59.5t72 -174.5q0 -116 -70 -173t-201 -57h-191v-319h-213v783zM382 358q140 0 140 155q0 76 -32.5 117.5t-87.5 41.5h-129v-314h109z" />
    <glyph glyph-name="Sigma" unicode="&#x3a3;" horiz-adv-x="651" 
d="M69 -38q-27 0 -39 20.5t1 43.5l180 326l-180 326q-13 23 -1 43.5t39 20.5h531v-80h-347l171 -310l-171 -310h347v-80h-531z" />
    <glyph glyph-name="Tau" unicode="&#x3a4;" horiz-adv-x="706" 
d="M252 662h-227v80h656v-80h-216v-703h-213v703z" />
    <glyph glyph-name="Upsilon" unicode="&#x3a5;" horiz-adv-x="758" 
d="M280 319l-255 423h213l203 -337l197 337h95l-240 -423v-360h-213v360z" />
    <glyph glyph-name="Phi" unicode="&#x3a6;" horiz-adv-x="855" 
d="M343 63q-91 13 -161 54.5t-108.5 104t-38.5 138.5t38.5 138.5t108 103.5t161.5 54v47q0 29 22 46.5t63 17.5q38 0 61.5 -17.5t23.5 -46.5v-47q91 -13 161 -54t108 -103.5t38 -138.5t-38.5 -138.5t-108 -104t-160.5 -54.5v-102h-170v102zM343 564q-51 -26 -79 -79
t-28 -125t28.5 -125.5t78.5 -79.5v409zM513 156q50 25 78.5 79t28.5 125t-28.5 124.5t-78.5 79.5v-408z" />
    <glyph glyph-name="Chi" unicode="&#x3a7;" horiz-adv-x="768" 
d="M303 332l-273 410h233l165 -265l191 265h105l-246 -341l287 -442h-233l-179 297l-224 -297h-105z" />
    <glyph glyph-name="Psi" unicode="&#x3a8;" horiz-adv-x="839" 
d="M338 98q-129 20 -203.5 103.5t-74.5 221.5v260q0 34 29.5 54t67.5 20t67 -20t29 -54v-292q0 -158 85 -202v514q0 30 23 47t67 17q42 0 66 -17.5t24 -46.5v-504q68 48 68 191v293q0 34 29.5 54t67.5 20t67 -20t29 -54v-259q0 -134 -69.5 -216.5t-191.5 -106.5v-140h-180
v137z" />
    <glyph glyph-name="uni03A9" unicode="&#x3a9;" horiz-adv-x="855" 
d="M43 42h122q-62 51 -96 130.5t-34 182.5q0 127 51.5 217.5t140.5 137.5t201 47t200.5 -47t140 -137.5t51.5 -217.5q0 -103 -34 -182.5t-96 -130.5h121v-80h-338v80q65 18 101 98t36 215q0 156 -48.5 239.5t-133.5 83.5q-86 0 -134 -83.5t-48 -239.5q0 -135 35.5 -215.5
t99.5 -97.5v-80h-338v80z" />
    <glyph glyph-name="alpha" unicode="&#x3b1;" horiz-adv-x="769" 
d="M114.5 16.5q-80.5 64.5 -80.5 195.5t82.5 195.5t218.5 64.5q35 0 73.5 -8t72.5 -27q15 15 38.5 22.5t48.5 7.5q44 0 75 -20t31 -54v-307q0 -27 4 -37t19 -13.5t52 -3.5v-73q-117 0 -171 7t-83 34q-71 -48 -170 -48q-130 0 -210.5 64.5zM465 62q-4 20 -4 53v244
q-9 11 -35 22t-55 11q-58 0 -91 -42t-33 -131q0 -95 34 -141t92 -46q46 0 92 30z" />
    <glyph glyph-name="beta" unicode="&#x3b2;" horiz-adv-x="795" 
d="M60 483q0 125 74.5 192t224.5 67h85q129 0 200 -52.5t71 -147.5q0 -55 -25 -97t-73 -68q71 -24 109.5 -73t38.5 -122q0 -108 -77 -164t-204 -56q-101 0 -211 40v-247h-213v728zM511.5 78.5q40.5 36.5 40.5 105.5q0 45 -19.5 77.5t-51.5 49.5t-69 17h-60v80h30q54 0 87 37
t33 92t-33 90t-87 35q-49 0 -79 -41.5t-30 -123.5v-423q70 -32 139 -32q59 0 99.5 36.5z" />
    <glyph glyph-name="gamma" unicode="&#x3b3;" horiz-adv-x="627" 
d="M195 -41l-175 499h95l130 -372q58 83 95 179.5t52 192.5h215q-24 -128 -74.5 -257.5t-124.5 -241.5v-204h-213v204z" />
    <glyph glyph-name="delta" unicode="&#x3b4;" horiz-adv-x="722" 
d="M190 -16.5q-74 32.5 -115 91t-41 135.5q0 94 59 160.5t162 89.5q-60 39 -81 75t-21 79q0 53 41.5 85.5t101 45.5t117.5 13q83 0 184 -28v-88q-98 34 -184 33q-44 0 -80 -19t-36 -52q0 -35 51 -71.5t176 -90.5q77 -32 120.5 -92.5t43.5 -139.5q0 -77 -41 -135.5t-115 -91
t-171 -32.5t-171 32.5zM448 81q28 51 28 128t-28 130t-87 53t-87 -53t-28 -130t28 -128t87 -51t87 51z" />
    <glyph glyph-name="epsilon" unicode="&#x3b5;" horiz-adv-x="499" 
d="M87.5 -9.5q-62.5 38.5 -62.5 110.5q0 95 90 124q-31 17 -47.5 44.5t-16.5 57.5q0 39 23.5 70.5t68.5 50t107 18.5q86 0 138.5 -38t62.5 -108h-150q-6 83 -48 83q-17 0 -29.5 -21t-12.5 -55q0 -30 13.5 -53.5t34.5 -23.5h131v-62h-140q-28 0 -46.5 -24.5t-18.5 -64.5
q0 -39 18.5 -62t43.5 -23q26 0 45 22t22 61h150q-9 -73 -67.5 -109t-151.5 -36q-95 0 -157.5 38.5z" />
    <glyph glyph-name="zeta" unicode="&#x3b6;" horiz-adv-x="539" 
d="M301 -238.5q-6 10.5 -0.5 23t19.5 14.5q33 7 50 26.5t17 50.5t-15 47t-57 32q-95 37 -152 74.5t-86.5 92t-29.5 135.5q0 85 38.5 163t106 139.5t151.5 98.5h-260v80h414v-80q-69 -21 -133 -83.5t-104 -147.5t-40 -170q0 -65 17 -107t49.5 -68.5t84.5 -48.5
q65 -27 98 -67.5t33 -89.5q0 -118 -180 -125q-15 0 -21 10.5z" />
    <glyph glyph-name="eta" unicode="&#x3b7;" horiz-adv-x="730" 
d="M462 225q0 90 -19 128.5t-69 38.5q-54 0 -106 -47v-386h-213v435q0 34 31 54t75 20q31 0 58 -11t40 -32q71 47 175 47q241 0 241 -267v-450h-213v470z" />
    <glyph glyph-name="theta" unicode="&#x3b8;" horiz-adv-x="663" 
d="M185 -1q-65 47 -102.5 138t-37.5 218t37.5 217.5t102.5 137.5t147 47q81 0 146 -47t102.5 -137.5t37.5 -217.5t-37.5 -218t-102.5 -138t-146 -47q-82 0 -147 47zM408 107q28 76 31 220h-215q3 -144 31 -220t77 -76q48 0 76 76zM438 407q-4 131 -32 201t-74 70t-74.5 -70
t-32.5 -201h213z" />
    <glyph glyph-name="iota" unicode="&#x3b9;" horiz-adv-x="368" 
d="M348 -41q-122 0 -177 8t-83 40.5t-28 107.5v278q0 34 32.5 54t74.5 20q44 0 75 -20t31 -54v-307q0 -27 4 -37t19 -13.5t52 -3.5v-73z" />
    <glyph glyph-name="kappa" unicode="&#x3ba;" horiz-adv-x="662" 
d="M55 393q0 34 31 54t75 20q42 0 74.5 -20t32.5 -54v-157l242 222h105l-166 -152l213 -347h-223l-118 229l-53 -48v-181h-213v434z" />
    <glyph glyph-name="lambda" unicode="&#x3bb;" horiz-adv-x="751" 
d="M305 454l-6 31q-17 84 -27.5 117t-31 47t-64.5 14h-98v79h98q129 0 193.5 -31t92.5 -88t61 -183l7 -26l176 -659h-205l-98 485l-98 -485h-205z" />
    <glyph glyph-name="uni03BC" unicode="&#x3bc;" horiz-adv-x="725" 
d="M55 394q0 34 31 54t75 20q42 0 74.5 -20t32.5 -54l1 -233q0 -122 73 -122q62 0 115 44v311q0 34 31 54t75 20q42 0 74.5 -20t32.5 -54v-435h-213v33q-54 -33 -121 -33q-20 0 -38.5 5.5t-28.5 15.5v-225h-213z" />
    <glyph glyph-name="nu" unicode="&#x3bd;" horiz-adv-x="627" 
d="M20 458h95l130 -372q58 83 95 179.5t52 192.5h215q-24 -128 -74.5 -257.5t-124.5 -241.5h-213z" />
    <glyph glyph-name="xi" unicode="&#x3be;" horiz-adv-x="547" 
d="M301 -238.5q-6 10.5 -0.5 23t19.5 14.5q33 7 50 29.5t17 56.5q0 23 -11.5 39t-40.5 26q-105 36 -165 64t-97.5 68t-37.5 97q0 68 41.5 112.5t133.5 65.5q-74 24 -105 63t-31 94q0 84 83 144h-74v80h414v-80h-45q-34 0 -72.5 -17.5t-65.5 -50.5t-27 -76q0 -51 27 -88
t68 -37h69v-80h-83q-51 0 -85.5 -36.5t-34.5 -96.5q0 -41 15.5 -68.5t42 -45t71.5 -37.5q68 -30 96.5 -63.5t28.5 -80.5q0 -30 -19.5 -59t-60 -49t-100.5 -22q-15 0 -21 10.5z" />
    <glyph glyph-name="omicron" unicode="&#x3bf;" horiz-adv-x="722" 
d="M190 -16.5q-74 32.5 -115 91t-41 135.5t41 136.5t115 92t171 32.5t171 -32.5t115 -92t41 -136.5t-41 -135.5t-115 -91t-171 -32.5t-171 32.5zM448 81q28 51 28 128t-28 130t-87 53t-87 -53t-28 -130t28 -128t87 -51t87 51z" />
    <glyph glyph-name="pi" unicode="&#x3c0;" horiz-adv-x="706" 
d="M87 378h-77v80h685l1 -80h-106v-292q0 -27 5 -37t23.5 -13.5t66.5 -3.5v-73q-127 0 -184 8t-85.5 40.5t-28.5 107.5v263h-97v-420h-203v420z" />
    <glyph glyph-name="rho" unicode="&#x3c1;" horiz-adv-x="722" 
d="M34 210q0 77 41 136.5t115 92t171 32.5t171 -32.5t115 -92t41 -136.5t-41 -135.5t-115 -91t-171 -32.5q-74 0 -115 33v-229h-212v455zM448 81q28 51 28 128t-28 130t-87 53t-87 -53t-28 -130t28 -128t87 -51t87 51z" />
    <glyph glyph-name="sigma" unicode="&#x3c3;" horiz-adv-x="730" 
d="M190 -16.5q-74 32.5 -115 91t-41 135.5t41 136.5t115 92t171 32.5q62 0 113 -13h230l1 -80h-84q67 -69 67 -168q0 -77 -41 -135.5t-115 -91t-171 -32.5t-171 32.5zM448 81q28 51 28 128t-28 130t-87 53t-87 -53t-28 -130t28 -128t87 -51t87 51z" />
    <glyph glyph-name="tau" unicode="&#x3c4;" horiz-adv-x="506" 
d="M485 -41q-160 0 -228 8t-99 40t-31 108v263h-117v80h485l1 -80h-156v-292q0 -27 7.5 -37t35.5 -13.5t102 -3.5v-73z" />
    <glyph glyph-name="upsilon" unicode="&#x3c5;" horiz-adv-x="662" 
d="M185.5 -38q-62.5 27 -95.5 76.5t-33 115.5l2 86q3 124 2 155q-1 36 24 55.5t62 19.5q35 0 61 -19.5t26 -55.5q0 -198 -3 -281q-2 -44 25.5 -75.5t78.5 -31.5q47 0 69 31t26.5 73t4.5 108q0 90 -17 166q-8 34 12 57t54 29q33 7 60 -5.5t36 -46.5q16 -60 21.5 -112
t5.5 -123q0 -76 -33 -132t-94 -86.5t-145 -30.5q-87 0 -149.5 27z" />
    <glyph glyph-name="phi" unicode="&#x3c6;" horiz-adv-x="855" 
d="M343 -63q-91 13 -161 51t-108.5 94t-38.5 122t38.5 122t108.5 93.5t161 50.5l-1 127q0 29 22 46.5t63 17.5q38 0 61.5 -17.5t23.5 -46.5l1 -127q91 -13 160.5 -50.5t108 -93.5t38.5 -122t-38.5 -122t-108 -94t-160.5 -51v-182h-170v182zM344 378q-50 -26 -78.5 -71.5
t-28.5 -102.5t28.5 -103t78.5 -72v349zM514 30q50 25 78.5 71.5t28.5 102.5t-28.5 102t-78.5 72v-348z" />
    <glyph glyph-name="chi" unicode="&#x3c7;" horiz-adv-x="625" 
d="M229 57l-214 394h213l120 -246l113 246h104l-168 -321l213 -375h-213l-120 229l-127 -229h-105z" />
    <glyph glyph-name="psi" unicode="&#x3c8;" horiz-adv-x="742" 
d="M283 -58q-110 16 -168 72t-58 140l2 86q3 124 2 155q-1 36 23 55.5t58 19.5q32 0 57 -19.5t25 -55.5q0 -198 -3 -281q-1 -29 14.5 -53t47.5 -38v474q0 29 22 46.5t63 17.5q38 0 61.5 -17.5t23.5 -46.5v-475q34 16 49.5 47.5t19 65t3.5 84.5q0 90 -17 166q-8 33 11 56
t50 30q29 7 55.5 -5.5t35.5 -46.5q16 -60 21.5 -112t5.5 -123q0 -101 -59 -164.5t-175 -79.5v-185h-170v187z" />
    <glyph glyph-name="omega" unicode="&#x3c9;" horiz-adv-x="826" 
d="M120 -12q-56 53 -64 136q-15 167 7 278q7 35 28.5 51.5t59.5 16.5q35 0 60.5 -19t18.5 -51q-24 -112 -11 -266q6 -66 19 -96.5t45 -30.5q39 0 50 37t11 115q0 47 -10 137q-4 30 20.5 46.5t60.5 16.5t60.5 -16.5t20.5 -46.5q-11 -82 -11 -137q0 -77 9.5 -114.5t41.5 -37.5
q39 0 54 30.5t20 96.5q13 154 -11 266q-7 32 18.5 51t60.5 19q38 0 59.5 -16.5t28.5 -51.5q22 -111 7 -278q-7 -83 -63.5 -136t-163.5 -53q-48 0 -81 15.5t-51 54.5q-17 -39 -50 -54.5t-81 -15.5q-107 0 -163 53z" />
    <glyph glyph-name="uni0401" unicode="&#x401;" horiz-adv-x="689" 
d="M268 -38q-78 0 -119 8t-65 41.5t-24 106.5v544h569v-80h-356v-225h346v-80h-346v-181q0 -26 3 -36.5t14 -14t38 -3.5h310v-80h-370zM160.5 741.5q-20.5 20.5 -20.5 49.5t20.5 49t49.5 20t49 -20t20 -49t-20 -49.5t-49 -20.5t-49.5 20.5zM440.5 741.5
q-20.5 20.5 -20.5 49.5t20.5 49t49.5 20t49 -20t20 -49t-20 -49.5t-49 -20.5t-49.5 20.5z" />
    <glyph glyph-name="uni0410" unicode="&#x410;" horiz-adv-x="820" 
d="M60 426q0 106 44.5 180.5t123 112.5t181.5 38q133 0 221 -60q62 -42 96 -111t34 -161v-465h-211v272h-277v-272h-212v466zM549 312v147q0 76 -20 127q-17 46 -47.5 69t-71.5 23q-63 0 -100.5 -55.5t-37.5 -164.5v-146h277z" />
    <glyph glyph-name="uni0411" unicode="&#x411;" horiz-adv-x="795" 
d="M268 -38q-78 0 -119 8t-65 41.5t-24 106.5v624h569v-80h-356v-264h191q141 0 221 -54.5t80 -161.5q0 -108 -71 -164t-190 -56h-236zM412 42q59 0 99.5 36.5t40.5 105.5q0 45 -19.5 77.5t-51.5 49.5t-69 17h-139v-232q0 -26 3 -36.5t14 -14t38 -3.5h84z" />
    <glyph glyph-name="uni0412" unicode="&#x412;" horiz-adv-x="795" 
d="M268 -38q-78 0 -119 8t-65 41.5t-24 106.5v624h414q109 0 175 -53t66 -147q0 -55 -25 -97t-73 -68q71 -24 109.5 -73t38.5 -122q0 -108 -71 -164t-190 -56h-236zM412 42q59 0 99.5 36.5t40.5 105.5q0 45 -19.5 77.5t-51.5 49.5t-69 17h-139v-232q0 -26 3 -36.5t14 -14
t38 -3.5h84zM382 408q54 0 87 37t33 92t-33 90t-87 35h-109v-254h109z" />
    <glyph glyph-name="uni0413" unicode="&#x413;" horiz-adv-x="654" 
d="M60 742h569v-80h-356v-700h-213v780z" />
    <glyph glyph-name="uni0414" unicode="&#x414;" horiz-adv-x="825" 
d="M35 42h70q37 146 54.5 298.5t17.5 336.5v65h547v-700h51v-287h-183v207h-374v-207h-183v287zM541 42v620h-171q-1 -179 -18 -328t-54 -292h243z" />
    <glyph glyph-name="uni0415" unicode="&#x415;" horiz-adv-x="689" 
d="M268 -38q-78 0 -119 8t-65 41.5t-24 106.5v624h569v-80h-356v-255h346v-80h-346v-231q0 -26 3 -36.5t14 -14t38 -3.5h310v-80h-370z" />
    <glyph glyph-name="uni0416" unicode="&#x416;" 
d="M394 242l-57 82l-89 -362h-223l184 542l-168 238h113l240 -340v281q0 34 31 54t75 20q42 0 74.5 -20t32.5 -54v-281l240 340h113l-168 -238l184 -542h-223l-89 362l-57 -82v-283h-213v283z" />
    <glyph glyph-name="uni0417" unicode="&#x417;" horiz-adv-x="662" 
d="M128 1q-80 49 -93 150h178q9 -128 119 -128q54 0 83.5 33t29.5 98q0 62 -29.5 95t-87.5 33h-191v72h179q49 0 71.5 34t22.5 92q0 56 -22 90.5t-63 34.5q-46 0 -67.5 -33.5t-26.5 -93.5h-178q13 95 85.5 147t189.5 52q85 0 147 -25.5t94.5 -70t32.5 -101.5
q0 -51 -22.5 -90.5t-65.5 -63.5q123 -40 123 -170q0 -66 -40.5 -112t-108.5 -69t-152 -23q-128 0 -208 49z" />
    <glyph glyph-name="uni0418" unicode="&#x418;" horiz-adv-x="839" 
d="M60 683q0 34 31 54t75 20q42 0 74.5 -20t32.5 -54v-541l304 577q11 20 36.5 29t58.5 9q42 0 74.5 -20t32.5 -54v-724h-213v552l-293 -552h-213v724z" />
    <glyph glyph-name="uni0419" unicode="&#x419;" horiz-adv-x="839" 
d="M60 613q0 34 31 54t75 20q42 0 74.5 -20t32.5 -54v-471l304 507q23 38 95 38q42 0 74.5 -20t32.5 -54v-654h-213v482l-293 -482h-213v654zM294.5 718q-51.5 29 -74.5 86q-10 26 3 39t37 13q19 0 35 -7.5t21 -22.5q15 -40 37.5 -57.5t63.5 -17.5t64 17.5t38 57.5
q5 15 21 22.5t35 7.5q24 0 36.5 -13.5t3.5 -38.5q-23 -57 -75 -86t-123 -29t-122.5 29z" />
    <glyph glyph-name="uni041A" unicode="&#x41a;" horiz-adv-x="772" 
d="M60 683q0 34 32.5 54t74.5 20q44 0 75 -20t31 -54v-332l350 391h113l-254 -284l290 -496h-233l-176 363l-90 -100v-266h-213v724z" />
    <glyph glyph-name="uni041B" unicode="&#x41b;" horiz-adv-x="829" 
d="M16 38q42 0 64 19t31 56.5t14 106.5l34 471q1 22 16.5 36.5t38.5 14.5h499q24 0 40 -16t16 -40v-724h-213v700h-176l-35 -482q-7 -96 -35 -142t-93.5 -62.5t-200.5 -16.5v79z" />
    <glyph glyph-name="uni041C" unicode="&#x41c;" horiz-adv-x="910" 
d="M60 683q0 36 29.5 55t77.5 19q75 0 103 -53l185 -343l195 355q12 22 38 31.5t56 9.5q50 0 78 -19t28 -55v-724h-213v569l-114 -229q-9 -18 -22.5 -28.5t-29.5 -10.5h-32q-31 0 -51 38l-115 230v-569h-213v724z" />
    <glyph glyph-name="uni041D" unicode="&#x41d;" horiz-adv-x="839" 
d="M60 683q0 34 32.5 54t74.5 20q44 0 75 -20t31 -54v-276h293v276q0 34 32.5 54t74.5 20q44 0 75 -20t31 -54v-724h-213v368h-293v-368h-213v724z" />
    <glyph glyph-name="uni041E" unicode="&#x41e;" horiz-adv-x="855" 
d="M227 -1q-89 47 -140.5 138t-51.5 218t51.5 217.5t140.5 137.5t201 47t200.5 -47t140 -137.5t51.5 -217.5t-51.5 -218t-140 -138t-200.5 -47t-201 47zM561.5 114.5q48.5 83.5 48.5 240.5q0 156 -48.5 239.5t-133.5 83.5q-86 0 -134 -83.5t-48 -239.5q0 -157 48 -240.5
t134 -83.5q85 0 133.5 83.5z" />
    <glyph glyph-name="uni041F" unicode="&#x41f;" horiz-adv-x="839" 
d="M60 683q0 34 32.5 54t74.5 20h506q44 0 75 -20t31 -54v-724h-213v718h-293v-718h-213v724z" />
    <glyph glyph-name="uni0420" unicode="&#x420;" horiz-adv-x="770" 
d="M60 742h394q137 0 209 -59.5t72 -174.5q0 -116 -70 -173t-201 -57h-191v-319h-213v783zM382 358q140 0 140 155q0 76 -32.5 117.5t-87.5 41.5h-129v-314h109z" />
    <glyph glyph-name="uni0421" unicode="&#x421;" horiz-adv-x="794" 
d="M205.5 1q-84.5 50 -127.5 141t-43 213q0 121 43 211.5t126.5 140.5t201.5 50q139 0 233 -62t108 -179h-198q-19 88 -54.5 125t-88.5 37q-83 0 -121 -89.5t-38 -234.5q0 -144 39.5 -234t122.5 -90q56 0 97.5 42t54.5 134h198q-14 -130 -108.5 -192.5t-241.5 -62.5
q-119 0 -203.5 50z" />
    <glyph glyph-name="uni0422" unicode="&#x422;" horiz-adv-x="706" 
d="M252 662h-227v80h656v-80h-216v-703h-213v703z" />
    <glyph glyph-name="uni0423" unicode="&#x423;" horiz-adv-x="725" 
d="M165 38h128q77 0 111 22t43.5 70.5t9.5 154.5q-57 -52 -146 -52q-125 0 -190.5 66t-65.5 201v183q0 34 31 54t75 20q42 0 74.5 -20t32.5 -54v-203q0 -167 79 -167q34 0 60.5 18.5t49.5 52.5v299q0 34 32.5 54t74.5 20q44 0 75 -20t31 -54v-413q0 -109 -27.5 -174.5
t-109.5 -101t-240 -35.5h-128v79z" />
    <glyph glyph-name="uni0424" unicode="&#x424;" horiz-adv-x="855" 
d="M343 63q-91 13 -161 54.5t-108.5 104t-38.5 138.5t38.5 138.5t108 103.5t161.5 54v47q0 29 22 46.5t63 17.5q38 0 61.5 -17.5t23.5 -46.5v-47q91 -13 161 -54t108 -103.5t38 -138.5t-38.5 -138.5t-108 -104t-160.5 -54.5v-102h-170v102zM343 564q-51 -26 -79 -79
t-28 -125t28.5 -125.5t78.5 -79.5v409zM513 156q50 25 78.5 79t28.5 125t-28.5 124.5t-78.5 79.5v-408z" />
    <glyph glyph-name="uni0425" unicode="&#x425;" horiz-adv-x="768" 
d="M303 332l-273 410h233l165 -265l191 265h105l-246 -341l287 -442h-233l-179 297l-224 -297h-105z" />
    <glyph glyph-name="uni0426" unicode="&#x426;" horiz-adv-x="870" 
d="M637 -41h-577v724q0 34 32.5 54t74.5 20q44 0 75 -20t31 -54v-644h245v644q0 34 32.5 54t74.5 20q44 0 75 -20t31 -54v-644h89v-284h-183v204z" />
    <glyph glyph-name="uni0427" unicode="&#x427;" horiz-adv-x="740" 
d="M467 285q-71 -41 -166 -41q-235 0 -241 255v184q0 34 31 54t75 20q42 0 74.5 -20t32.5 -54v-192q0 -90 19 -128.5t69 -38.5q54 0 106 47v312q0 34 32.5 54t74.5 20q44 0 75 -20t31 -54v-724h-213v326z" />
    <glyph glyph-name="uni0428" unicode="&#x428;" horiz-adv-x="880" 
d="M60 683q0 35 29 54.5t67 19.5q40 0 68 -19.5t28 -54.5v-644h98v644q0 35 29 54.5t67 19.5q40 0 68 -19.5t28 -54.5v-644h86v644q0 34 29.5 54t67.5 20q40 0 67.5 -20t27.5 -54v-724h-760v724z" />
    <glyph glyph-name="uni0429" unicode="&#x429;" horiz-adv-x="950" 
d="M717 -41h-657v724q0 35 29 54.5t67 19.5q40 0 68 -19.5t28 -54.5v-644h98v644q0 35 29 54.5t67 19.5q40 0 68 -19.5t28 -54.5v-644h86v644q0 34 29.5 54t67.5 20q40 0 67.5 -20t27.5 -54v-644h80v-284h-183v204z" />
    <glyph glyph-name="uni042A" unicode="&#x42a;" horiz-adv-x="835" 
d="M348 -38q-78 0 -119 8t-65 41.5t-24 106.5v544h-107v80h320v-344h151q141 0 221 -54.5t80 -161.5q0 -108 -71 -164t-190 -56h-196zM551.5 78.5q40.5 36.5 40.5 105.5q0 45 -19.5 77.5t-51.5 49.5t-69 17h-99v-232q0 -24 9 -35.5t29 -15t61 -3.5q59 0 99.5 36.5z" />
    <glyph glyph-name="uni042B" unicode="&#x42b;" 
d="M268 -38q-78 0 -119 8t-65 41.5t-24 106.5v565q0 34 31 54t75 20q42 0 74.5 -20t32.5 -54v-285h111q127 0 204 -55t77 -161q0 -108 -71 -164t-190 -56h-136zM412.5 79q39.5 37 39.5 105q0 44 -18.5 77t-46 50t-55.5 17h-59v-232q0 -26 3 -36.5t11.5 -14t30.5 -3.5
q55 0 94.5 37zM727 683q0 34 31 54t75 20q42 0 74.5 -20t32.5 -54v-721h-213v721z" />
    <glyph glyph-name="uni042C" unicode="&#x42c;" horiz-adv-x="795" 
d="M268 -38q-78 0 -119 8t-65 41.5t-24 106.5v565q0 34 31 54t75 20q42 0 74.5 -20t32.5 -54v-285h191q141 0 221 -54.5t80 -161.5q0 -108 -71 -164t-190 -56h-236zM412 42q59 0 99.5 36.5t40.5 105.5q0 45 -19.5 77.5t-51.5 49.5t-69 17h-139v-232q0 -26 3 -36.5t14 -14
t38 -3.5h84z" />
    <glyph glyph-name="uni042D" unicode="&#x42d;" horiz-adv-x="794" 
d="M143.5 13.5q-94.5 62.5 -108.5 192.5h198q13 -92 54.5 -134t97.5 -42q77 0 116.5 78t44.5 205h-323v80h323q-5 129 -43 207t-115 78q-53 0 -88.5 -37t-54.5 -125h-198q14 117 108 179t233 62q118 0 201.5 -50t126.5 -140.5t43 -211.5q0 -122 -43 -213t-127.5 -141
t-203.5 -50q-147 0 -241.5 62.5z" />
    <glyph glyph-name="uni042E" unicode="&#x42e;" 
d="M512 -6.5q-66 41.5 -106.5 123t-46.5 196.5h-86v-351h-213v721q0 34 32.5 54t74.5 20q44 0 75 -20t31 -54v-290h86q6 116 46 198t106.5 124t150.5 42q88 0 157 -46.5t107.5 -137.5t38.5 -218q0 -128 -38.5 -219t-107.5 -137.5t-157 -46.5q-84 0 -150 41.5zM718.5 68.5
q25.5 37.5 40 110.5t14.5 176q0 102 -14.5 175t-40 110.5t-56.5 37.5q-32 0 -57 -37.5t-39.5 -110.5t-14.5 -175q0 -103 14.5 -176t39.5 -110.5t57 -37.5q31 0 56.5 37.5z" />
    <glyph glyph-name="uni042F" unicode="&#x42f;" horiz-adv-x="760" 
d="M487 318h-111l-143 -356h-233l185 368q-71 19 -110.5 70t-39.5 128q0 101 73 157.5t208 56.5h384v-783h-213v359zM487 398v274h-119q-54 0 -87 -38.5t-33 -100.5t32.5 -98.5t87.5 -36.5h119z" />
    <glyph glyph-name="uni0430" unicode="&#x430;" horiz-adv-x="729" 
d="M114.5 16.5q-80.5 64.5 -80.5 195.5t82.5 195.5t218.5 64.5q81 0 145 -34q15 15 38.5 22.5t49.5 7.5q44 0 75 -20t31 -54v-435h-213v18q-25 -13 -61.5 -19t-74.5 -6q-130 0 -210.5 64.5zM428.5 43q26.5 11 32.5 19v297q-9 11 -35 22t-55 11q-58 0 -91 -42t-33 -131
q0 -95 34 -141t92 -46q29 0 55.5 11z" />
    <glyph glyph-name="uni0431" unicode="&#x431;" horiz-adv-x="722" 
d="M192.5 -18.5q-74.5 30.5 -116 85t-41.5 123.5v4q1 129 34 215t99.5 135.5t171.5 69.5q113 22 213 56l-10 -76q-99 -41 -185 -71q-75 -26 -100 -103q50 11 104 11q95 0 169.5 -31t116 -85.5t41.5 -124.5q0 -69 -41.5 -123.5t-116 -85t-169.5 -30.5t-169.5 30.5z
M444.5 74.5q32.5 44.5 32.5 114.5q0 71 -32.5 117t-82.5 46t-82.5 -46t-32.5 -117q0 -70 32.5 -114.5t82.5 -44.5t82.5 44.5z" />
    <glyph glyph-name="uni0432" unicode="&#x432;" horiz-adv-x="558" 
d="M196 -38q-51 0 -77.5 5.5t-42.5 27t-16 69.5v394h272q71 0 114.5 -34.5t43.5 -93.5q0 -35 -16.5 -62.5t-48.5 -44.5q47 -15 72.5 -46.5t25.5 -77.5q0 -66 -47.5 -101.5t-124.5 -35.5h-155zM291 32q31 0 53 18.5t22 50.5t-22 52t-53 20h-74v-112q0 -20 4.5 -24.5
t25.5 -4.5h44zM272 260q29 0 46.5 19t17.5 47q0 27 -17.5 45t-46.5 18h-58v-129h58z" />
    <glyph glyph-name="uni0433" unicode="&#x433;" horiz-adv-x="494" 
d="M61 384q0 34 32.5 54t74.5 20h316v-80h-210v-419h-213v425z" />
    <glyph glyph-name="uni0434" unicode="&#x434;" horiz-adv-x="561" 
d="M30 58h46q47 132 47 358v42h359v-400h34v-243h-141v136h-204v-136h-141v243zM341 58v293h-82q-2 -152 -34 -293h116z" />
    <glyph glyph-name="uni0435" unicode="&#x435;" horiz-adv-x="711" 
d="M183 -15.5q-73 33.5 -111 93t-38 137.5t37.5 136t111 89.5t176.5 31.5q96 0 167 -35.5t110 -99.5t41 -148h-430q3 -71 30 -115t82 -44q40 0 69 23t41 73h198q-17 -87 -95.5 -131t-212.5 -44q-103 0 -176 33.5zM463 269q-19 124 -104 124q-43 0 -71.5 -32.5t-37.5 -91.5
h213z" />
    <glyph glyph-name="uni0436" unicode="&#x436;" horiz-adv-x="875" 
d="M213 306l-166 152h105l179 -164v129q0 34 31 54t75 20q42 0 74.5 -20t32.5 -54v-129l179 164h105l-166 -152l213 -347h-193l-128 248l-10 -9v-239h-213v239l-10 9l-128 -248h-193z" />
    <glyph glyph-name="uni0437" unicode="&#x437;" horiz-adv-x="499" 
d="M102.5 -12q-58.5 36 -67.5 109h150q3 -39 22 -61t45 -22q25 0 43.5 23t18.5 62q0 40 -18.5 64.5t-46.5 24.5h-140v62h131q21 0 34.5 23.5t13.5 53.5q0 34 -12.5 55t-29.5 21q-42 0 -48 -83h-150q10 70 62.5 108t138.5 38q62 0 107 -18.5t68.5 -50t23.5 -70.5
q0 -30 -16.5 -57.5t-47.5 -44.5q90 -29 90 -124q0 -72 -62.5 -110.5t-157.5 -38.5q-93 0 -151.5 36z" />
    <glyph glyph-name="uni0438" unicode="&#x438;" horiz-adv-x="729" 
d="M55 394q0 34 32.5 54t74.5 20q44 0 75 -20t31 -54v-254l205 290q14 18 40.5 28t54.5 10q44 0 75 -20t31 -54v-435h-213v267l-193 -267h-213v435z" />
    <glyph glyph-name="uni0439" unicode="&#x439;" horiz-adv-x="729" 
d="M55 364q0 34 32.5 54t74.5 20q44 0 75 -20t31 -54v-235l205 271q14 18 40.5 28t54.5 10q44 0 75 -20t31 -54v-405h-213v250l-193 -250h-213v405zM234.5 468q-51.5 29 -74.5 86q-10 26 3 39t37 13q19 0 35 -7.5t21 -22.5q15 -40 37.5 -57.5t63.5 -17.5t64 17.5t38 57.5
q5 15 21 22.5t35 7.5q24 0 36.5 -13.5t3.5 -38.5q-23 -57 -75 -86t-123 -29t-122.5 29z" />
    <glyph glyph-name="uni043A" unicode="&#x43a;" horiz-adv-x="662" 
d="M55 393q0 34 31 54t75 20q42 0 74.5 -20t32.5 -54v-157l242 222h105l-166 -152l213 -347h-223l-118 229l-53 -48v-181h-213v434z" />
    <glyph glyph-name="uni043B" unicode="&#x43b;" horiz-adv-x="772" 
d="M36 38q32 0 50 19.5t26 57.5t13 105l12 163q1 33 23 54t54 21h425q34 0 56 -22t22 -56v-421h-211v392h-152l-13 -171q-7 -96 -34 -142t-87.5 -62.5t-183.5 -16.5v79z" />
    <glyph glyph-name="uni043C" unicode="&#x43c;" horiz-adv-x="882" 
d="M55 393q0 36 29.5 55t77.5 19q26 0 44 -7.5t25.5 -14t33.5 -31.5l175 -173l187 185q43 41 94 41q50 0 78 -19t28 -55v-434h-213v329l-106 -99q-15 -14 -29.5 -22t-32.5 -8h-10q-19 0 -36 10.5t-47 38.5l-85 79v-328h-213v434z" />
    <glyph glyph-name="uni043D" unicode="&#x43d;" horiz-adv-x="729" 
d="M55 394q0 34 32.5 54t74.5 20q44 0 75 -20t31 -54v-147h193v147q0 34 32.5 54t74.5 20q44 0 75 -20t31 -54v-435h-213v208h-193v-208h-213v435z" />
    <glyph glyph-name="uni043E" unicode="&#x43e;" horiz-adv-x="722" 
d="M190 -16.5q-74 32.5 -115 91t-41 135.5t41 136.5t115 92t171 32.5t171 -32.5t115 -92t41 -136.5t-41 -135.5t-115 -91t-171 -32.5t-171 32.5zM448 81q28 51 28 128t-28 130t-87 53t-87 -53t-28 -130t28 -128t87 -51t87 51z" />
    <glyph glyph-name="uni043F" unicode="&#x43f;" horiz-adv-x="729" 
d="M55 394q0 34 32.5 54t74.5 20h406q44 0 75 -20t31 -54v-435h-213v429h-193v-429h-213v435z" />
    <glyph glyph-name="uni0440" unicode="&#x440;" horiz-adv-x="729" 
d="M55 394q0 34 32.5 54t74.5 20q27 0 51 -8t38 -23q61 35 153 35q80 0 145.5 -28t105.5 -86t40 -146q0 -132 -79.5 -196t-221.5 -64q-68 0 -126 25v-226h-213v643zM449 74q33 42 33 131q0 95 -34 141t-92 46q-29 0 -55.5 -11t-32.5 -19v-297q9 -11 35 -22t55 -11
q58 0 91 42z" />
    <glyph glyph-name="uni0441" unicode="&#x441;" horiz-adv-x="686" 
d="M180.5 -15.5q-73.5 33.5 -110 93.5t-36.5 137q0 73 36.5 131t109 91.5t175.5 33.5q76 0 140 -21t105.5 -59t51.5 -87h-198q-26 88 -99 88q-58 0 -83.5 -50t-25.5 -128q0 -81 27 -132.5t88 -51.5q39 0 67 23t36 73h198q-13 -86 -93.5 -130.5t-207.5 -44.5
q-107 0 -180.5 33.5z" />
    <glyph glyph-name="uni0442" unicode="&#x442;" horiz-adv-x="506" 
d="M485 -41q-160 0 -228 8t-99 40t-31 108v263h-117v80h485l1 -80h-156v-292q0 -27 7.5 -37t35.5 -13.5t102 -3.5v-73z" />
    <glyph glyph-name="uni0443" unicode="&#x443;" horiz-adv-x="725" 
d="M165 -166h128q73 0 106.5 14.5t45 52.5t12.5 120q-57 -52 -146 -52q-125 0 -190.5 66t-65.5 201v158q0 34 31 54t75 20q42 0 74.5 -20t32.5 -54v-178q0 -167 79 -167q34 0 60.5 18.5t49.5 52.5v274q0 34 32.5 54t74.5 20q44 0 75 -20t31 -54v-348q0 -108 -27.5 -168.5
t-108.5 -91.5t-241 -31h-128v79z" />
    <glyph glyph-name="uni0444" unicode="&#x444;" horiz-adv-x="855" 
d="M343 -63q-91 13 -161 51t-108.5 94t-38.5 122t38.5 122t108.5 93.5t161 50.5v223q0 29 22 46.5t63 17.5q38 0 61.5 -17.5t23.5 -46.5v-223q91 -13 160.5 -50.5t108 -93.5t38.5 -122t-38.5 -122t-108 -94t-160.5 -51v-182h-170v182zM344 378q-50 -26 -78.5 -71.5
t-28.5 -102.5t28.5 -103t78.5 -72v349zM514 30q50 25 78.5 71.5t28.5 102.5t-28.5 102t-78.5 72v-348z" />
    <glyph glyph-name="uni0445" unicode="&#x445;" horiz-adv-x="610" 
d="M227 183l-212 275h213l109 -154l124 154h104l-177 -219l222 -280h-213l-117 161l-130 -161h-105z" />
    <glyph glyph-name="uni0446" unicode="&#x446;" horiz-adv-x="729" 
d="M481 -41h-426v435q0 34 31.5 54t70.5 20q41 0 71 -20t30 -54v-355h153v355q0 34 31.5 54t70.5 20q41 0 71 -20t30 -54v-355h70v-236h-203v156z" />
    <glyph glyph-name="uni0447" unicode="&#x447;" horiz-adv-x="725" 
d="M457 156q-66 -37 -161 -37q-127 0 -184 64t-57 211q0 34 31 54t75 20q42 0 74.5 -20t32.5 -54q0 -70 6 -111.5t22 -62.5t46 -21q62 0 115 44v151q0 34 31 54t75 20q42 0 74.5 -20t32.5 -54v-435h-213v197z" />
    <glyph glyph-name="uni0448" unicode="&#x448;" horiz-adv-x="870" 
d="M55 393q0 35 29 54.5t67 19.5q40 0 68 -19.5t28 -54.5v-354h98v354q0 35 29 54.5t67 19.5q40 0 68 -19.5t28 -54.5v-354h86v354q0 34 29.5 54t67.5 20q40 0 67.5 -20t27.5 -54v-434h-760v434z" />
    <glyph glyph-name="uni0449" unicode="&#x449;" horiz-adv-x="890" 
d="M653 -41h-598v434q0 35 29 54.5t67 19.5q40 0 68 -19.5t28 -54.5v-354h78v354q0 35 29 54.5t67 19.5q40 0 68 -19.5t28 -54.5v-354h66v354q0 34 29.5 54t67.5 20q40 0 67.5 -20t27.5 -54v-395h70v-195h-192v156z" />
    <glyph glyph-name="uni044A" unicode="&#x44a;" horiz-adv-x="628" 
d="M296 -38q-56 0 -84.5 5.5t-45 27t-16.5 69.5v314h-92v80h174q37 0 59.5 -20.5t22.5 -52.5v-122h78q107 0 164 -33.5t57 -120.5q0 -44 -27 -77.5t-73.5 -51.5t-101.5 -18h-115zM371 42q37 0 56 17.5t19 51.5t-19.5 53t-55.5 19h-54v-112q0 -20 4.5 -24.5t25.5 -4.5h24z
" />
    <glyph glyph-name="uni044B" unicode="&#x44b;" horiz-adv-x="795" 
d="M206 -38q-56 0 -84.5 5.5t-45 27t-16.5 69.5v331q0 32 22.5 52.5t59.5 20.5t59.5 -20.5t22.5 -52.5v-132h78q107 0 164 -33.5t57 -120.5q0 -44 -27 -77.5t-73.5 -51.5t-101.5 -18h-115zM281 42q37 0 56 17.5t19 51.5t-19.5 53t-55.5 19h-54v-112q0 -20 4.5 -24.5
t25.5 -4.5h24zM570 394q0 35 24.5 54.5t58.5 19.5q36 0 59 -19.5t23 -54.5v-435h-165v435z" />
    <glyph glyph-name="uni044C" unicode="&#x44c;" horiz-adv-x="558" 
d="M206 -38q-56 0 -84.5 5.5t-45 27t-16.5 69.5v331q0 32 22.5 52.5t59.5 20.5t59.5 -20.5t22.5 -52.5v-132h78q107 0 164 -33.5t57 -120.5q0 -44 -27 -77.5t-73.5 -51.5t-101.5 -18h-115zM281 42q37 0 56 17.5t19 51.5t-19.5 53t-55.5 19h-54v-112q0 -20 4.5 -24.5
t25.5 -4.5h24z" />
    <glyph glyph-name="uni044D" unicode="&#x44d;" horiz-adv-x="686" 
d="M117.5 -4.5q-80.5 44.5 -93.5 130.5h198q8 -50 36 -73t67 -23q54 0 81 40.5t33 107.5h-211v80h210q-7 61 -32.5 97.5t-74.5 36.5q-73 0 -99 -88h-198q10 49 51.5 87t105.5 59t140 21q103 0 175.5 -33.5t109 -91.5t36.5 -131q0 -77 -36.5 -137t-110 -93.5t-180.5 -33.5
q-127 0 -207.5 44.5z" />
    <glyph glyph-name="uni044E" unicode="&#x44e;" horiz-adv-x="723" 
d="M327.5 11.5q-57.5 60.5 -66.5 161.5h-51v-214h-155v435q0 34 24 54t54 20q32 0 54.5 -19.5t22.5 -54.5v-141h51q11 100 68 159t144 59q64 0 112.5 -32.5t75.5 -92t27 -136.5t-27 -135.5t-75.5 -91t-112.5 -32.5q-88 0 -145.5 60.5zM524.5 81q16.5 51 16.5 128t-16.5 130
t-51.5 53q-34 0 -50.5 -53t-16.5 -130t16.5 -128t50.5 -51q35 0 51.5 51z" />
    <glyph glyph-name="uni044F" unicode="&#x44f;" horiz-adv-x="578" 
d="M161 205q-101 35 -101 126q0 66 47.5 101.5t124.5 35.5h155q51 0 77.5 -5.5t42.5 -27t16 -69.5v-407h-154v228h-58l-118 -228h-183zM366 257v112q0 20 -4.5 24.5t-25.5 4.5h-44q-31 0 -53 -18.5t-22 -50.5t22 -52t53 -20h74z" />
    <glyph glyph-name="uni0451" unicode="&#x451;" horiz-adv-x="711" 
d="M184.5 -17.5q-73.5 31.5 -112 83t-38.5 109.5q0 68 38 122t111.5 84.5t175.5 30.5q95 0 166.5 -34.5t110.5 -94t41 -134.5h-429q6 -48 33.5 -83.5t77.5 -35.5q38 0 68 19.5t42 56.5h198q-17 -74 -97 -114.5t-211 -40.5q-101 0 -174.5 31.5zM461 229q-22 104 -102 104
q-41 0 -69 -28t-38 -76h209zM160.5 461.5q-20.5 20.5 -20.5 49.5t20.5 49t49.5 20t49 -20t20 -49t-20 -49.5t-49 -20.5t-49.5 20.5zM440.5 461.5q-20.5 20.5 -20.5 49.5t20.5 49t49.5 20t49 -20t20 -49t-20 -49.5t-49 -20.5t-49.5 20.5z" />
    <glyph glyph-name="uni2010" unicode="&#x2010;" horiz-adv-x="527" vert-adv-y="1100" 
d="M30 387h467v-90h-467v90z" />
    <glyph glyph-name="emdash" unicode="&#x2014;" vert-adv-y="1100" 
d="M30 387h940v-90h-940v90z" />
    <glyph glyph-name="uni2015" unicode="&#x2015;" 
d="M30 387h940v-90h-940v90z" />
    <glyph glyph-name="uni2016" unicode="&#x2016;" horiz-adv-x="880" vert-adv-y="1100" 
d="M499 800h132v-1045h-132v1045zM249 800h132v-1045h-132v1045z" />
    <glyph glyph-name="quoteleft" unicode="&#x2018;" horiz-adv-x="335" 
d="M95 506.5q-28 28.5 -28 71.5q0 37 13.5 68t38.5 61q50 59 123 90l24 -31q-35 -27 -49 -60q-15 -34 10 -55q17 -13 27 -33t10 -43q0 -41 -29 -69t-71 -28q-41 0 -69 28.5z" />
    <glyph glyph-name="quoteright" unicode="&#x2019;" horiz-adv-x="335" 
d="M67 499q35 27 49 60q15 34 -10 55q-17 13 -27 33t-10 43q0 41 29 69t71 28q41 0 69 -28.5t28 -71.5q0 -37 -13.5 -68t-38.5 -61q-50 -59 -123 -90z" />
    <glyph glyph-name="quotedblleft" unicode="&#x201c;" horiz-adv-x="595" 
d="M357 506.5q-28 28.5 -28 71.5q0 37 13.5 68t38.5 61q50 59 123 90l24 -31q-35 -27 -49 -60q-15 -34 10 -55q17 -13 27 -33t10 -43q0 -41 -29 -69t-71 -28q-41 0 -69 28.5zM95 506.5q-28 28.5 -28 71.5q0 37 13.5 68t38.5 61q50 59 123 90l24 -31q-35 -27 -49 -60
q-15 -34 10 -55q17 -13 27 -33t10 -43q0 -41 -29 -69t-71 -28q-41 0 -69 28.5z" />
    <glyph glyph-name="quotedblright" unicode="&#x201d;" horiz-adv-x="595" 
d="M329 499q35 27 49 60q15 34 -10 55q-17 13 -27 33t-10 43q0 41 29 69t71 28q41 0 69 -28.5t28 -71.5q0 -37 -13.5 -68t-38.5 -61q-50 -59 -123 -90zM67 499q35 27 49 60q15 34 -10 55q-17 13 -27 33t-10 43q0 41 29 69t71 28q41 0 69 -28.5t28 -71.5q0 -37 -13.5 -68
t-38.5 -61q-50 -59 -123 -90z" />
    <glyph glyph-name="dagger" unicode="&#x2020;" horiz-adv-x="600" 
d="M223 378h-198v80h198v299h142v-299h196l1 -80h-197v-623h-142v623z" />
    <glyph glyph-name="daggerdbl" unicode="&#x2021;" horiz-adv-x="600" 
d="M223 -41h-197v80h197v339h-198v80h198v299h142v-299h196l1 -80h-197v-339h197v-80h-197v-204h-142v204z" />
    <glyph glyph-name="twodotenleader" unicode="&#x2025;" horiz-adv-x="653" 
d="M392 -29.5q-29 28.5 -29 69.5t29 69t71 28q41 0 69 -28t28 -69t-28 -69.5t-69 -28.5q-42 0 -71 28.5zM122 -29.5q-29 28.5 -29 69.5t29 69t71 28q41 0 69 -28t28 -69t-28 -69.5t-69 -28.5q-42 0 -71 28.5z" />
    <glyph glyph-name="ellipsis" unicode="&#x2026;" horiz-adv-x="915" 
d="M649 -29.5q-29 28.5 -29 69.5t29 69t71 28q41 0 69 -28t28 -69t-28 -69.5t-69 -28.5q-42 0 -71 28.5zM127 -29.5q-29 28.5 -29 69.5t29 69t71 28q41 0 69 -28t28 -69t-28 -69.5t-69 -28.5q-42 0 -71 28.5zM388 -29.5q-29 28.5 -29 69.5t29 69t71 28q41 0 69 -28t28 -69
t-28 -69.5t-69 -28.5q-42 0 -71 28.5z" />
    <glyph glyph-name="perthousand" unicode="&#x2030;" 
d="M492 742h110l-390 -783h-110zM449 -33q-33 23 -52 63t-19 89q0 48 19 87.5t52 62.5t73 23q39 0 71.5 -23t51 -62.5t18.5 -87.5q0 -49 -18.5 -89t-51 -63t-71.5 -23q-40 0 -73 23zM550.5 75q12.5 18 12.5 43t-12.5 43t-29.5 18q-18 0 -30.5 -17.5t-12.5 -43.5t12.5 -43.5
t30.5 -17.5q17 0 29.5 18zM111.5 437.5q-33.5 23.5 -52.5 64t-19 89.5q0 48 19 88.5t52.5 63.5t73.5 23t72.5 -23t51.5 -63t19 -89t-19 -89.5t-51.5 -64t-72.5 -23.5t-73.5 23.5zM214 546.5q12 17.5 12 43.5t-12 43.5t-30 17.5t-30.5 -17.5t-12.5 -43.5t12.5 -43.5
t30.5 -17.5t30 17.5zM769 -33q-33 23 -52 63t-19 89q0 48 19 87.5t52 62.5t73 23q39 0 71.5 -23t51 -62.5t18.5 -87.5q0 -49 -18.5 -89t-51 -63t-71.5 -23q-40 0 -73 23zM870.5 75q12.5 18 12.5 43t-12.5 43t-29.5 18q-18 0 -30.5 -17.5t-12.5 -43.5t12.5 -43.5t30.5 -17.5
q17 0 29.5 18z" />
    <glyph glyph-name="minute" unicode="&#x2032;" horiz-adv-x="325" 
d="M82 505l28 279l158 -28l-68 -272z" />
    <glyph glyph-name="second" unicode="&#x2033;" horiz-adv-x="575" 
d="M332 505l28 279l158 -28l-68 -272zM110 784l158 -28l-68 -272l-118 21z" />
    <glyph glyph-name="uni203B" unicode="&#x203b;" 
d="M159 77l254 257l-254 257l87 87l254 -257l254 257l87 -87l-254 -257l254 -257l-87 -87l-254 257l-254 -257zM442 -7q-24 23 -24 59q0 37 24 59q23 23 58 23q34 0 59 -23q23 -23 23 -59t-23 -59q-25 -23 -59 -23q-35 0 -58 23zM163 275q-24 23 -24 59q0 37 24 59
q23 23 58 23q34 0 59 -23q23 -23 23 -59t-23 -59q-25 -23 -59 -23q-35 0 -58 23zM721 275q-24 23 -24 59q0 37 24 59q23 23 58 23q34 0 59 -23q23 -23 23 -59t-23 -59q-25 -23 -59 -23q-35 0 -58 23zM442 557q-24 23 -24 59q0 37 24 59q23 23 58 23q34 0 59 -23
q23 -23 23 -59t-23 -59q-25 -23 -59 -23q-35 0 -58 23z" />
    <glyph glyph-name="uni2074" unicode="&#x2074;" horiz-adv-x="446" 
d="M251 545h-54q-45 0 -70 4.5t-40 22t-15 54.5v162q0 20 20 32t45 12q26 0 45 -12t19 -32v-172q0 -10 1.5 -11.5t11.5 -1.5h37v185q0 20 19 32t45 12q25 0 45 -12t20 -32v-185h41v-58h-41v-94h-129v94z" />
    <glyph glyph-name="uni207F" unicode="&#x207f;" horiz-adv-x="522" 
d="M50 768q0 25 22.5 39.5t54.5 14.5q23 0 43 -8.5t29 -23.5q23 15 50.5 24.5t46.5 9.5q176 0 176 -194v-179h-155v193q0 61 -9.5 91.5t-24.5 30.5q-39 0 -78 -34v-281h-155v317z" />
    <glyph glyph-name="uni2081" unicode="&#x2081;" horiz-adv-x="353" 
d="M50 -101h73v196h-68v58h68v23q0 21 19 33t46 12q24 0 44.5 -12t20.5 -33v-277h50v-58h-253v58z" />
    <glyph glyph-name="uni2082" unicode="&#x2082;" horiz-adv-x="421" 
d="M64 -101q5 13 17.5 24.5t50.5 44.5q51 44 77 76t26 68q0 51 -23 51q-14 0 -20.5 -18t-7.5 -55h-124q4 64 43 97.5t111 33.5q69 0 109.5 -32.5t40.5 -93.5q0 -44 -26.5 -80.5t-74.5 -81.5q-25 -22 -35 -34h138v-58h-302v58z" />
    <glyph glyph-name="uni2083" unicode="&#x2083;" horiz-adv-x="426" 
d="M98.5 -138.5q-45.5 30.5 -48.5 90.5h123q1 -35 11 -49t32 -14q21 0 30.5 12t9.5 42q0 29 -10 41t-31 12h-113v58h106q17 0 24 12t7 40q0 25 -7 38.5t-19 13.5q-16 0 -22.5 -14.5t-8.5 -49.5h-123q3 56 45 88.5t110 32.5q71 0 112.5 -31t41.5 -78q0 -46 -34 -75
q52 -27 52 -87q0 -54 -48.5 -83.5t-119.5 -29.5q-74 0 -119.5 30.5z" />
    <glyph glyph-name="uni2084" unicode="&#x2084;" horiz-adv-x="446" 
d="M251 -65h-54q-45 0 -70 4.5t-40 22t-15 54.5v162q0 20 20 32t45 12q26 0 45 -12t19 -32v-172q0 -10 1.5 -11.5t11.5 -1.5h37v185q0 20 19 32t45 12q25 0 45 -12t20 -32v-185h41v-58h-41v-94h-129v94z" />
    <glyph glyph-name="Euro" unicode="&#x20ac;" horiz-adv-x="854" 
d="M230 25.5q-93 74.5 -122 206.5h-73v80h61q-1 14 -1 43q0 30 3 57h-63v80h76q32 125 123 195t232 70q139 0 233 -62t108 -179h-198q-19 88 -54.5 125t-88.5 37q-61 0 -97.5 -49.5t-51.5 -136.5h137v-80h-145q-2 -38 -2 -58q0 -28 1 -42h146v-80h-139q14 -94 52 -148
t102 -54q56 0 97.5 42t54.5 134h198q-14 -130 -108.5 -192.5t-241.5 -62.5q-146 0 -239 74.5z" />
    <glyph glyph-name="uni2103" unicode="&#x2103;" 
d="M510 0.5q-70 49.5 -107.5 140.5t-37.5 214t37 213.5t107 139.5t166 49q76 0 136.5 -31.5t98 -86t47.5 -123.5h-188q-10 77 -33.5 119.5t-60.5 42.5q-55 0 -82 -85t-27 -239q0 -151 28 -237.5t81 -86.5q80 0 106 176h188q-9 -73 -47 -131t-101.5 -91t-145.5 -33
q-95 0 -165 49.5zM118 457q-35 20 -55.5 54t-20.5 74q0 41 20.5 75t55.5 54t78 20t78 -20t55.5 -54t20.5 -75q0 -40 -20.5 -74t-55.5 -54t-78 -20t-78 20zM242 538.5q18 19.5 18 47.5t-18 47t-47 19q-27 0 -45.5 -19.5t-18.5 -46.5q0 -28 18.5 -47.5t45.5 -19.5
q29 0 47 19.5z" />
    <glyph glyph-name="uni2109" unicode="&#x2109;" 
d="M420 742h519v-80h-306v-255h296v-80h-296v-365h-213v780zM118 457q-35 20 -55.5 54t-20.5 74q0 41 20.5 75t55.5 54t78 20t78 -20t55.5 -54t20.5 -75q0 -40 -20.5 -74t-55.5 -54t-78 -20t-78 20zM242 538.5q18 19.5 18 47.5t-18 47t-47 19q-27 0 -45.5 -19.5t-18.5 -46.5
q0 -28 18.5 -47.5t45.5 -19.5q29 0 47 19.5z" />
    <glyph glyph-name="uni2113" unicode="&#x2113;" horiz-adv-x="537" 
d="M448 -41q-122 0 -177 8t-83 40.5t-28 107.5v568q0 34 32.5 54t74.5 20q44 0 75 -20t31 -54v-597q0 -27 4 -37t19 -13.5t52 -3.5v-73z" />
    <glyph glyph-name="uni2116" unicode="&#x2116;" 
d="M49 683q0 35 26 54.5t61 19.5q28 0 50.5 -10t28.5 -28l153 -460v424q0 35 26 54.5t61 19.5q37 0 62 -19.5t25 -54.5v-724h-173l-146 436v-436h-174v724zM607 342h344v-80h-344v80zM643 450q-48 48 -48 135q0 86 48 134t134 48q85 0 133 -48t48 -134q0 -87 -48 -135
t-133 -48q-86 0 -134 48zM818.5 494q12.5 32 12.5 91q0 58 -12.5 90t-41.5 32t-41.5 -32t-12.5 -90q0 -59 12.5 -91t41.5 -32t41.5 32z" />
    <glyph glyph-name="uni2121" unicode="&#x2121;" 
d="M174 662h-107v80h339v-80h-100v-703h-132v703zM405 24q-47 73 -47 191t46.5 187.5t136.5 69.5q84 0 130.5 -77t48.5 -206h-218q2 -69 12 -114t27 -45q26 0 37 96h137q-9 -88 -55 -131.5t-119 -43.5q-89 0 -136 73zM576 269q-4 61 -13.5 92.5t-21.5 31.5q-13 0 -23 -33
t-14 -91h72zM933 -41q-73 1 -101.5 6t-46 38t-17.5 112v568q0 35 19.5 54.5t45.5 19.5q27 0 46 -19t19 -55v-597q0 -35 1.5 -43.5t0 -8.5t33.5 -2v-73z" />
    <glyph glyph-name="trademark" unicode="&#x2122;" 
d="M163 695h-149v72h450q22 11 52 11t50 -11t30 -29l109 -203l116 211q10 17 30.5 24.5t43.5 7.5q38 0 60.5 -15.5t22.5 -43.5v-405h-168v245l-48 -97q-7 -14 -19 -22t-27 -8h-21q-31 0 -47 31l-48 97v-246h-168v381h-102v-381h-167v381z" />
    <glyph glyph-name="uni2126" unicode="&#x2126;" horiz-adv-x="855" 
d="M43 42h122q-62 51 -96 130.5t-34 182.5q0 127 51.5 217.5t140.5 137.5t201 47t200.5 -47t140 -137.5t51.5 -217.5q0 -103 -34 -182.5t-96 -130.5h121v-80h-338v80q65 18 101 98t36 215q0 156 -48.5 239.5t-133.5 83.5q-86 0 -134 -83.5t-48 -239.5q0 -135 35.5 -215.5
t99.5 -97.5v-80h-338v80z" />
    <glyph glyph-name="uni212B" unicode="&#x212b;" horiz-adv-x="820" 
d="M60 275q0 125 61 206t168 110q-27 38 -27 84q0 41 20.5 75t55.5 54t78 20t78 -20t55.5 -54t20.5 -75q0 -48 -29 -87q102 -32 160.5 -112t58.5 -202v-314h-211v212h-277v-212h-212v315zM549 252v56q0 108 -38 163.5t-101 55.5t-100.5 -55.5t-37.5 -164.5v-55h277z
M462 628.5q18 19.5 18 47.5t-18 47t-47 19q-27 0 -45.5 -19.5t-18.5 -46.5q0 -28 18.5 -47.5t45.5 -19.5q29 0 47 19.5z" />
    <glyph glyph-name="uni2153" unicode="&#x2153;" horiz-adv-x="905" 
d="M614 742h136l-481 -783h-136zM50 429h73v196h-68v58h68v23q0 21 19 33t46 12q24 0 44.5 -12t20.5 -33v-277h50v-58h-253v58zM577.5 -15.5q-45.5 30.5 -48.5 90.5h123q1 -35 11 -49t32 -14q21 0 30.5 12t9.5 42q0 29 -10 41t-31 12h-113v58h106q17 0 24 12t7 40
q0 25 -7 38.5t-19 13.5q-16 0 -22.5 -14.5t-8.5 -49.5h-123q3 56 45 88.5t110 32.5q71 0 112.5 -31t41.5 -78q0 -46 -34 -75q52 -27 52 -87q0 -54 -48.5 -83.5t-119.5 -29.5q-74 0 -119.5 30.5z" />
    <glyph glyph-name="uni2154" unicode="&#x2154;" horiz-adv-x="915" 
d="M654 742h136l-481 -783h-136zM64 429h3q5 13 20.5 28.5t44.5 40.5q51 44 77 76t26 68q0 51 -23 51q-14 0 -20.5 -18t-7.5 -55h-124q4 64 43 97.5t111 33.5q69 0 109.5 -32.5t40.5 -93.5q0 -44 -26.5 -80.5t-74.5 -81.5q-25 -22 -35 -34h138v-58h-302v58zM587.5 -15.5
q-45.5 30.5 -48.5 90.5h123q1 -35 11 -49t32 -14q21 0 30.5 12t9.5 42q0 29 -10 41t-31 12h-113v58h106q17 0 24 12t7 40q0 25 -7 38.5t-19 13.5q-16 0 -22.5 -14.5t-8.5 -49.5h-123q3 56 45 88.5t110 32.5q71 0 112.5 -31t41.5 -78q0 -46 -34 -75q52 -27 52 -87
q0 -54 -48.5 -83.5t-119.5 -29.5q-74 0 -119.5 30.5z" />
    <glyph glyph-name="oneeighth" unicode="&#x215b;" horiz-adv-x="925" 
d="M614 742h136l-481 -783h-136zM50 429h73v196h-68v58h68v23q0 21 19 33t46 12q24 0 44.5 -12t20.5 -33v-277h50v-58h-253v58zM736 28q11 15 11 42q0 28 -11 43t-32 15q-43 0 -43 -58q0 -57 43 -57q21 0 32 15zM580.5 -13.5q-48.5 31.5 -48.5 83.5q0 57 61 88
q-52 28 -52 76q0 46 47 75.5t116 29.5q68 0 115 -29.5t47 -75.5q0 -48 -52 -76q61 -31 61 -88q0 -52 -48 -83.5t-123 -31.5t-123.5 31.5zM728.5 199q9.5 13 9.5 35q0 23 -9 35.5t-25 12.5t-25 -12t-9 -36q0 -22 9 -35t25 -13q15 0 24.5 13z" />
    <glyph glyph-name="threeeighths" unicode="&#x215c;" horiz-adv-x="917" 
d="M634 742h136l-481 -783h-136zM728 28q11 15 11 42q0 28 -11 43t-32 15q-43 0 -43 -58q0 -57 43 -57q21 0 32 15zM98.5 397.5q-45.5 30.5 -48.5 90.5h123q1 -35 11 -49t32 -14q21 0 30.5 12t9.5 42q0 29 -10 41t-31 12h-113v58h106q17 0 24 12t7 40q0 25 -7 38.5t-19 13.5
q-16 0 -22.5 -14.5t-8.5 -49.5h-123q3 56 45 88.5t110 32.5q71 0 112.5 -31t41.5 -78q0 -46 -34 -75q52 -27 52 -87q0 -54 -48.5 -83.5t-119.5 -29.5q-74 0 -119.5 30.5zM572.5 -13.5q-48.5 31.5 -48.5 83.5q0 57 61 88q-52 28 -52 76q0 46 47 75.5t116 29.5q68 0 115 -29.5
t47 -75.5q0 -48 -52 -76q61 -31 61 -88q0 -52 -48 -83.5t-123 -31.5t-123.5 31.5zM720.5 199q9.5 13 9.5 35q0 23 -9 35.5t-25 12.5t-25 -12t-9 -36q0 -22 9 -35t25 -13q15 0 24.5 13z" />
    <glyph glyph-name="fiveeighths" unicode="&#x215d;" horiz-adv-x="917" 
d="M634 742h136l-481 -783h-136zM728 28q11 15 11 42q0 28 -11 43t-32 15q-43 0 -43 -58q0 -57 43 -57q21 0 32 15zM93.5 405.5q-44.5 38.5 -43.5 105.5h123q1 -86 43 -86q37 0 37 67q0 36 -9 54.5t-24 18.5q-9 0 -14.5 -4t-11.5 -15h-124v199h283v-58h-153v-67q14 3 28 3
q74 0 114 -35t40 -95q0 -59 -45 -92.5t-121 -33.5q-78 0 -122.5 38.5zM572.5 -13.5q-48.5 31.5 -48.5 83.5q0 57 61 88q-52 28 -52 76q0 46 47 75.5t116 29.5q68 0 115 -29.5t47 -75.5q0 -48 -52 -76q61 -31 61 -88q0 -52 -48 -83.5t-123 -31.5t-123.5 31.5zM720.5 199
q9.5 13 9.5 35q0 23 -9 35.5t-25 12.5t-25 -12t-9 -36q0 -22 9 -35t25 -13q15 0 24.5 13z" />
    <glyph glyph-name="seveneighths" unicode="&#x215e;" horiz-adv-x="897" 
d="M601 742h136l-481 -783h-136zM708 28q11 15 11 42q0 28 -11 43t-32 15q-43 0 -43 -58q0 -57 43 -57q21 0 32 15zM208 684h-157v58h292v-40l-88 -334h-130zM552.5 -13.5q-48.5 31.5 -48.5 83.5q0 57 61 88q-52 28 -52 76q0 46 47 75.5t116 29.5q68 0 115 -29.5t47 -75.5
q0 -48 -52 -76q61 -31 61 -88q0 -52 -48 -83.5t-123 -31.5t-123.5 31.5zM700.5 199q9.5 13 9.5 35q0 23 -9 35.5t-25 12.5t-25 -12t-9 -36q0 -22 9 -35t25 -13q15 0 24.5 13z" />
    <glyph glyph-name="uni2160" unicode="&#x2160;" 
d="M394 683q0 34 32.5 54t74.5 20q44 0 75 -20t31 -54v-724h-213v724z" />
    <glyph glyph-name="uni2161" unicode="&#x2161;" 
d="M569 683q0 34 32.5 54t74.5 20q44 0 75 -20t31 -54v-724h-213v724zM219 683q0 34 32.5 54t74.5 20q44 0 75 -20t31 -54v-724h-213v724z" />
    <glyph glyph-name="uni2162" unicode="&#x2162;" 
d="M689 683q0 34 32.5 54t74.5 20q44 0 75 -20t31 -54v-724h-213v724zM99 683q0 34 32.5 54t74.5 20q44 0 75 -20t31 -54v-724h-213v724zM394 683q0 34 32.5 54t74.5 20q44 0 75 -20t31 -54v-724h-213v724z" />
    <glyph glyph-name="uni2163" unicode="&#x2163;" 
d="M282 742h213l189 -618l178 618h98l-225 -783h-213zM41 683q0 34 32.5 54t74.5 20q44 0 75 -20t31 -54v-724h-213v724z" />
    <glyph glyph-name="uni2164" unicode="&#x2164;" 
d="M146 742h213l205 -628l192 628h98l-240 -783h-213z" />
    <glyph glyph-name="uni2165" unicode="&#x2165;" 
d="M41 742h213l189 -618l178 618h98l-225 -783h-213zM747 683q0 34 31 54t75 20q42 0 74.5 -20t32.5 -54v-724h-213v724z" />
    <glyph glyph-name="uni2166" unicode="&#x2166;" 
d="M28 742h179l117 -545l110 545h98l-157 -783h-179zM549 683q0 35 26 54.5t63 19.5t63.5 -20t26.5 -54v-724h-179v724zM774 683q0 35 26 54.5t63 19.5t63.5 -20t26.5 -54v-724h-179v724z" />
    <glyph glyph-name="uni2167" unicode="&#x2167;" 
d="M32 742h155l61 -561l68 561h99l-110 -783h-156zM426 683q0 35 23 54.5t55 19.5q33 0 55.5 -20.5t22.5 -53.5v-724h-156v724zM619 683q0 36 22.5 55t54.5 19q33 0 55.5 -20.5t22.5 -53.5v-724h-155v724zM814 683q0 36 22.5 55t54.5 19q33 0 55.5 -20.5t22.5 -53.5v-724
h-155v724z" />
    <glyph glyph-name="uni2168" unicode="&#x2168;" 
d="M545 332l-192 410h227l87 -198l100 198h135l-171 -341l201 -442h-227l-98 230l-121 -230h-136zM99 683q0 34 32.5 54t74.5 20q44 0 75 -20t31 -54v-724h-213v724z" />
    <glyph glyph-name="uni2169" unicode="&#x2169;" 
d="M409 332l-273 410h233l165 -265l191 265h105l-246 -341l287 -442h-233l-179 297l-224 -297h-105z" />
    <glyph glyph-name="uni2170" unicode="&#x2170;" 
d="M400 458h213v-499h-213v499zM414 549q-36 36 -36 86t36 86t86 36t86 -36t36 -86t-36 -86t-86 -36t-86 36z" />
    <glyph glyph-name="uni2171" unicode="&#x2171;" 
d="M569 458h213v-499h-213v499zM219 458h213v-499h-213v499zM239 549q-36 36 -36 86t36 86t86 36t86 -36t36 -86t-36 -86t-86 -36t-86 36zM589 549q-36 36 -36 86t36 86t86 36t86 -36t36 -86t-36 -86t-86 -36t-86 36z" />
    <glyph glyph-name="uni2172" unicode="&#x2172;" 
d="M689 458h213v-499h-213v499zM99 458h213v-499h-213v499zM394 458h213v-499h-213v499zM119 549q-36 36 -36 86t36 86t86 36t86 -36t36 -86t-36 -86t-86 -36t-86 36zM414 549q-36 36 -36 86t36 86t86 36t86 -36t36 -86t-36 -86t-86 -36t-86 36zM709 549q-36 36 -36 86
t36 86t86 36t86 -36t36 -86t-36 -86t-86 -36t-86 36z" />
    <glyph glyph-name="uni2173" unicode="&#x2173;" 
d="M345 458h215l147 -372l130 372h95l-175 -499h-213zM84 458h213v-499h-213v499zM104 549q-36 36 -36 86t36 86t86 36t86 -36t36 -86t-36 -86t-86 -36t-86 36z" />
    <glyph glyph-name="uni2174" unicode="&#x2174;" 
d="M207 458h215l147 -372l130 372h95l-175 -499h-213z" />
    <glyph glyph-name="uni2175" unicode="&#x2175;" 
d="M68 458h215l147 -372l130 372h95l-175 -499h-213zM703 458h213v-499h-213v499zM723 549q-36 36 -36 86t36 86t86 36t86 -36t36 -86t-36 -86t-86 -36t-86 36z" />
    <glyph glyph-name="uni2176" unicode="&#x2176;" 
d="M49 458h183l85 -308l75 308h101l-123 -499h-182zM532 458h179v-499h-179v499zM762 458h179v-499h-179v499zM549 549q-28 36 -28 86t28 86t72 36t72 -36t28 -86t-28 -86t-72 -36t-72 36zM779 549q-28 36 -28 86t28 86t72 36t72 -36t28 -86t-28 -86t-72 -36t-72 36z" />
    <glyph glyph-name="uni2177" unicode="&#x2177;" 
d="M19 458h155l72 -308l64 308h86l-104 -499h-155zM429 458h152v-499h-152v499zM625 458h152v-499h-152v499zM821 458h152v-499h-152v499zM443.5 549q-23.5 36 -23.5 86t23.5 86t61.5 36t61.5 -36t23.5 -86t-23.5 -86t-61.5 -36t-61.5 36zM639 549q-24 36 -24 86t24 86
t61 36q38 0 61.5 -36t23.5 -86t-23.5 -86t-61.5 -36q-37 0 -61 36zM835 549q-24 36 -24 86t24 86t61 36q38 0 61.5 -36t23.5 -86t-23.5 -86t-61.5 -36q-37 0 -61 36z" />
    <glyph glyph-name="uni2178" unicode="&#x2178;" 
d="M551 183l-212 275h213l109 -154l124 154h104l-177 -219l222 -280h-213l-117 161l-130 -161h-105zM83 458h213v-499h-213v499zM103 549q-36 36 -36 86t36 86t86 36t86 -36t36 -86t-36 -86t-86 -36t-86 36z" />
    <glyph glyph-name="uni2179" unicode="&#x2179;" 
d="M415 183l-212 275h213l109 -154l124 154h104l-177 -219l222 -280h-213l-117 161l-130 -161h-105z" />
    <glyph glyph-name="arrowleft" unicode="&#x2190;" 
d="M105 345l344 348l80 -96l-211 -193l594 9l1 -137l-594 9l210 -193l-80 -96z" />
    <glyph glyph-name="arrowup" unicode="&#x2191;" 
d="M441 558l-193 -211l-96 80l348 344l348 -344l-96 -80l-193 211l10 -594h-138z" />
    <glyph glyph-name="arrowright" unicode="&#x2192;" 
d="M489 92l210 193l-594 -9l1 137l594 -9l-211 193l80 96l344 -348l-344 -349z" />
    <glyph glyph-name="arrowdown" unicode="&#x2193;" 
d="M152 308l96 80l193 -211l-10 594h138l-10 -594l193 211l96 -80l-348 -344z" />
    <glyph glyph-name="arrowboth" unicode="&#x2194;" 
d="M-9 345l344 348l80 -96l-211 -203h536l-211 203l80 96l344 -348l-344 -349l-80 96l210 203h-534l210 -203l-80 -96z" />
    <glyph glyph-name="arrowupdn" unicode="&#x2195;" 
d="M123 208l96 80l188 -211l1 536l-189 -211l-95 80l348 344l349 -344l-96 -80l-188 210l-1 -534l188 210l97 -80l-350 -344z" />
    <glyph glyph-name="uni2196" unicode="&#x2196;" 
d="M278 460l12 -285l-124 -12l3 490l489 3l-11 -125l-286 13l427 -413l-97 -98z" />
    <glyph glyph-name="uni2197" unicode="&#x2197;" 
d="M166 131l427 413l-286 -13l-11 125l489 -3l3 -490l-124 12l12 285l-413 -427z" />
    <glyph glyph-name="uni2198" unicode="&#x2198;" 
d="M307 158l286 -13l-427 413l97 98l413 -427l-12 285l124 12l-3 -490l-489 -3z" />
    <glyph glyph-name="uni2199" unicode="&#x2199;" 
d="M169 36l-3 490l124 -12l-12 -285l413 427l97 -98l-427 -413l286 13l11 -125z" />
    <glyph glyph-name="arrowdblright" unicode="&#x21d2;" 
d="M501 96l114 105h-528v106h622l42 42l-61 62h-603v106h508l-94 85l75 90l338 -343l-338 -343z" />
    <glyph glyph-name="arrowdblboth" unicode="&#x21d4;" 
d="M40 349l338 343l75 -90l-94 -85h282l-94 85l75 90l338 -343l-338 -343l-75 90l114 105h-322l114 -105l-75 -90zM245 307h510l42 42l-61 62h-472l-61 -62z" />
    <glyph glyph-name="universal" unicode="&#x2200;" 
d="M317.5 -12q-78.5 38 -123 112.5t-44.5 180.5v466h212v-272h277v272h211v-465q0 -106 -44.5 -181t-124 -113t-182.5 -38t-181.5 38zM601 84.5q38 55.5 38 163.5v147h-277v-146q0 -109 37.5 -164.5t100.5 -55.5t101 55.5z" />
    <glyph glyph-name="partialdiff" unicode="&#x2202;" horiz-adv-x="737" 
d="M157 -18.5q-69 30.5 -101 85t-20 123.5q12 70 63.5 124.5t131 85.5t174.5 31q53 0 102 -11q-12 77 -82 103l-33 12q-53 19 -96 37t-83 42l3 76q55 -29 111.5 -45t131.5 -31q101 -20 159 -69.5t76 -135t-3 -214.5l-1 -5q-12 -69 -63.5 -123.5t-131 -85t-174.5 -30.5
t-164 30.5zM425 74.5q40 44.5 53 114.5l1 9l1 3q8 67 -16.5 109t-72.5 42q-50 0 -90.5 -46t-52.5 -117q-8 -46 0 -82t31 -56.5t56 -20.5q50 0 90 44.5z" />
    <glyph glyph-name="existential" unicode="&#x2203;" horiz-adv-x="689" 
d="M60 42h356v270h-346v80h346v270h-356v80h569v-780h-569v80z" />
    <glyph glyph-name="gradient" unicode="&#x2207;" horiz-adv-x="862" 
d="M276 -29q-59 24 -90.5 72t-46.5 128l-104 571h792l-102 -571q-14 -79 -45.5 -127.5t-91 -72.5t-156.5 -24t-156 24zM482.5 50.5q17.5 26.5 24.5 84.5l64 527h-280l67 -527q8 -59 25 -85t49 -26q33 0 50.5 26.5z" />
    <glyph glyph-name="element" unicode="&#x2208;" horiz-adv-x="620" 
d="M319 -42q-78 0 -137.5 31t-91.5 87t-32 129q0 72 32 128t91.5 87t137.5 31h243v-80h-181q-55 0 -87.5 -34.5t-32.5 -91.5h301v-80h-301q0 -57 32.5 -92t87.5 -35h181v-80h-243z" />
    <glyph glyph-name="suchthat" unicode="&#x220b;" horiz-adv-x="620" 
d="M58 38h181q55 0 87.5 35t32.5 92h-301v80h301q0 57 -32.5 91.5t-87.5 34.5h-181v80h243q78 0 137.5 -31t91.5 -87t32 -128q0 -73 -32 -129t-91.5 -87t-137.5 -31h-243v80z" />
    <glyph glyph-name="product" unicode="&#x220f;" horiz-adv-x="760" 
d="M142 662h-84v80h644v-80h-84l-1 -907h-178l1 907h-120l-1 -907h-178z" />
    <glyph glyph-name="summation" unicode="&#x2211;" horiz-adv-x="651" 
d="M69 -245q-27 0 -38 19.5t0 44.5l180 429l-180 430q-9 24 1.5 44t36.5 20h531v-80h-356l180 -414l-180 -413h356v-80h-531z" />
    <glyph glyph-name="radical" unicode="&#x221a;" horiz-adv-x="672" 
d="M154 181h-119v80h167q30 3 55 -11.5t30 -41.5l24 -123l20 114l172 610l259 -1l-2 -80h-126l-189 -660q-21 -73 -74.5 -101.5t-107.5 -1.5t-76 103z" />
    <glyph glyph-name="proportional" unicode="&#x221d;" 
d="M227 133q-44 22 -71.5 64.5t-27.5 101.5t27.5 102t71 65t90.5 22q73 0 130 -31.5t106 -87.5q48 55 107 87t129 32q23 0 42 -3l-15 -101q-54 9 -105.5 -14t-96.5 -71q40 -41 81.5 -64t95.5 -23q9 0 25 2l15 -100q-19 -3 -42 -3q-72 0 -129 31t-107 87q-49 -56 -106 -87
t-130 -31q-46 0 -90 22zM400.5 232q39.5 19 77.5 57q-31 44 -66.5 69.5t-83.5 29.5q-29 3 -53.5 -18.5t-28.5 -59.5t16.5 -64t50.5 -29q48 -4 87.5 15z" />
    <glyph glyph-name="infinity" unicode="&#x221e;" 
d="M153.5 172q-56.5 26 -88 72.5t-31.5 105.5t31.5 105.5t88 72.5t128.5 26q69 0 130.5 -28.5t87.5 -73.5q26 45 87.5 73.5t130.5 28.5q72 0 128.5 -26t88 -72.5t31.5 -105.5t-31.5 -105.5t-88 -72.5t-128.5 -26q-70 0 -131.5 28.5t-86.5 73.5q-25 -45 -86.5 -73.5
t-131.5 -28.5q-72 0 -128.5 26zM367.5 260q27.5 34 27.5 90t-27.5 90t-72.5 34t-72.5 -34t-27.5 -90t27.5 -90t72.5 -34t72.5 34zM777.5 260q27.5 34 27.5 90t-27.5 90t-72.5 34t-72.5 -34t-27.5 -90t27.5 -90t72.5 -34t72.5 34z" />
    <glyph glyph-name="angle" unicode="&#x2220;" 
d="M308 115q-29 0 -52.5 13.5t-26 36.5t25.5 51l402 409l85 -82l-335 -332h427v-96h-526z" />
    <glyph glyph-name="uni2225" unicode="&#x2225;" 
d="M598 700h142v-805h-142v805zM260 700h142v-805h-142v805z" />
    <glyph glyph-name="logicaland" unicode="&#x2227;" 
d="M118 19l363 692h38l363 -692l-119 -52l-263 525l-263 -525z" />
    <glyph glyph-name="logicalor" unicode="&#x2228;" 
d="M118 659l119 52l263 -525l263 525l119 -52l-363 -692h-38z" />
    <glyph glyph-name="intersection" unicode="&#x2229;" 
d="M159 420q0 167 89 252t252 85t252 -85t89 -252v-461h-165v459q0 259 -176 259t-176 -259v-459h-165v461z" />
    <glyph glyph-name="union" unicode="&#x222a;" 
d="M248 30q-89 85 -89 252v461h165v-459q0 -259 176 -259t176 259v459h165v-461q0 -167 -89 -252t-252 -85t-252 85z" />
    <glyph glyph-name="integral" unicode="&#x222b;" horiz-adv-x="443" 
d="M40 32q37 0 52 3.5t19 13.5t4 37v500q0 75 28 107.5t83 40.5t177 8v-73q-37 0 -52 -3.5t-19 -13.5t-4 -37v-500q0 -75 -28 -107.5t-83 -40.5t-177 -8v73z" />
    <glyph glyph-name="uni222C" unicode="&#x222c;" 
d="M445 -179.5q-34 15.5 -63 40.5l104 60q17 -32 40 -35q25 -1 38.5 44t18.5 108.5t10 171.5q0 19 2 55q6 129 23 226.5t64.5 165t133.5 68.5q46 1 80 -14.5t63 -40.5l-104 -60q-17 32 -40 35q-25 1 -38.5 -44t-18.5 -109t-10 -172q0 -19 -2 -55q-6 -129 -23 -226
t-64.5 -164.5t-133.5 -68.5q-46 -1 -80 14.5zM105 -179.5q-34 15.5 -63 40.5l104 60q17 -32 40 -35q25 -1 38.5 44t18.5 108.5t10 171.5q0 19 2 55q6 129 23 226.5t64.5 165t133.5 68.5q46 1 80 -14.5t63 -40.5l-104 -60q-17 32 -40 35q-25 1 -38.5 -44t-18.5 -109t-10 -172
q0 -19 -2 -55q-6 -129 -23 -226t-64.5 -164.5t-133.5 -68.5q-46 -1 -80 14.5z" />
    <glyph glyph-name="uni222E" unicode="&#x222e;" 
d="M225 -139l99 60q17 -32 38 -35q20 -1 32.5 33.5t19.5 98.5q-111 20 -175.5 87t-64.5 165q0 71 35 127.5t99.5 90.5t150.5 41q22 90 65 142.5t115 53.5q76 1 136 -55l-99 -60q-17 32 -38 35q-20 1 -32 -31t-19 -90q112 -20 176.5 -88t64.5 -166q0 -71 -35 -126.5
t-99.5 -89.5t-149.5 -41q-46 -204 -183 -207q-76 -1 -136 55zM428 265q6 122 14 177q-48 -18 -71.5 -65.5t-23.5 -107.5q0 -52 18 -94.5t56 -64.5q3 43 7 155zM631.5 163q23.5 46 23.5 106q0 53 -18.5 97t-56.5 66q-4 -62 -5 -99l-3 -68q-3 -90 -13 -166q49 18 72.5 64z" />
    <glyph glyph-name="therefore" unicode="&#x2234;" 
d="M437.5 406.5q-28.5 27.5 -28.5 67.5t28.5 68t69.5 28q40 0 67.5 -28t27.5 -68t-27.5 -67.5t-67.5 -27.5q-41 0 -69.5 27.5zM217.5 66.5q-28.5 27.5 -28.5 67.5t28.5 68t69.5 28q40 0 67.5 -28t27.5 -68t-27.5 -67.5t-67.5 -27.5q-41 0 -69.5 27.5zM647.5 66.5
q-28.5 27.5 -28.5 67.5t28.5 68t69.5 28q40 0 67.5 -28t27.5 -68t-27.5 -67.5t-67.5 -27.5q-41 0 -69.5 27.5z" />
    <glyph glyph-name="uni2235" unicode="&#x2235;" 
d="M647.5 407q-28.5 28 -28.5 68t28.5 67.5t69.5 27.5q40 0 67.5 -27.5t27.5 -67.5t-27.5 -68t-67.5 -28q-41 0 -69.5 28zM437.5 67q-28.5 28 -28.5 68t28.5 67.5t69.5 27.5q40 0 67.5 -27.5t27.5 -67.5t-27.5 -68t-67.5 -28q-41 0 -69.5 28zM217.5 407q-28.5 28 -28.5 68
t28.5 67.5t69.5 27.5q40 0 67.5 -27.5t27.5 -67.5t-27.5 -68t-67.5 -28q-41 0 -69.5 28z" />
    <glyph glyph-name="similar" unicode="&#x223c;" 
d="M533 251.5q-41 21.5 -78 73.5q-28 41 -42 57t-32 16q-23 0 -39 -37.5t-19 -106.5l-198 3q5 104 68.5 163t167.5 59q65 0 106 -21.5t78 -73.5q28 -41 42 -57t32 -16q23 0 39 37.5t19 106.5l198 -3q-5 -104 -68.5 -163t-167.5 -59q-65 0 -106 21.5z" />
    <glyph glyph-name="uni223D" unicode="&#x223d;" 
d="M680 212q67 0 93 20t26 62q0 39 -17 60t-48 22q-59 1 -107 -27.5t-90 -82.5q-56 -72 -119.5 -113.5t-147.5 -41.5q-47 0 -90.5 22t-71 64.5t-27.5 101.5q0 91 66 140t177 49l-9 -112q-58 0 -85 -19.5t-27 -57.5q0 -35 20 -56t45 -21q44 0 75.5 12t55.5 34.5t55 62.5
q54 69 122 113t146 44q88 0 143 -51.5t55 -142.5q0 -193 -242 -193z" />
    <glyph glyph-name="uni2252" unicode="&#x2252;" horiz-adv-x="640" 
d="M58 492h524v-80h-524v80zM407.5 -28q-28.5 28 -28.5 68t28.5 67.5t69.5 27.5q40 0 67.5 -27.5t27.5 -67.5t-27.5 -68t-67.5 -28q-41 0 -69.5 28zM58 302h524v-80h-524v80zM96.5 607q-28.5 28 -28.5 68t28.5 67.5t69.5 27.5q40 0 67.5 -27.5t27.5 -67.5t-27.5 -68
t-67.5 -28q-41 0 -69.5 28z" />
    <glyph glyph-name="notequal" unicode="&#x2260;" horiz-adv-x="640" 
d="M172 202h-114v80h158l83 150h-241v80h285l41 75h127l-41 -75h112v-80h-156l-83 -150h239v-80h-283l-43 -78h-127z" />
    <glyph glyph-name="equivalence" unicode="&#x2261;" 
d="M150 597h700v-80h-700v80zM150 197h700v-80h-700v80zM150 397h700v-80h-700v80z" />
    <glyph glyph-name="lessequal" unicode="&#x2264;" horiz-adv-x="684" 
d="M128 252q-39 12 -54 44t0 64t54 44l445 138l34 -100l-391 -114l391 -114l-34 -100zM58 55h568v-96h-568v96z" />
    <glyph glyph-name="greaterequal" unicode="&#x2265;" horiz-adv-x="684" 
d="M77 214l391 114l-391 114l34 100l445 -138q39 -12 54 -44t0 -64t-54 -44l-445 -138zM58 55h568v-96h-568v96z" />
    <glyph glyph-name="uni226A" unicode="&#x226a;" 
d="M493 298q-38 21 -51 48t0.5 54.5t50.5 47.5l354 193l47 -97l-308 -171l308 -170l-47 -98zM183 298q-38 21 -51 48t0.5 54t50.5 48l344 193l47 -97l-298 -171l298 -170l-47 -98z" />
    <glyph glyph-name="uni226B" unicode="&#x226b;" 
d="M106 203l308 170l-308 171l47 97l354 -193q37 -20 50.5 -47.5t0.5 -54.5t-51 -48l-354 -193zM426 203l298 170l-298 171l47 97l344 -193q37 -21 50.5 -48t0.5 -54t-51 -48l-344 -193z" />
    <glyph glyph-name="propersubset" unicode="&#x2282;" horiz-adv-x="620" 
d="M319 -43q-78 0 -137.5 31t-91.5 86.5t-32 127.5q0 74 32 130t91.5 87.5t137.5 31.5h243v-80h-141q-80 0 -120 -40.5t-40 -128.5q0 -165 160 -165h141v-80h-243z" />
    <glyph glyph-name="propersuperset" unicode="&#x2283;" horiz-adv-x="620" 
d="M58 37h141q160 0 160 165q0 88 -40 128.5t-120 40.5h-141v80h243q78 0 137.5 -31.5t91.5 -87.5t32 -130q0 -72 -32 -127.5t-91.5 -86.5t-137.5 -31h-243v80z" />
    <glyph glyph-name="reflexsubset" unicode="&#x2286;" horiz-adv-x="640" 
d="M329 97q-77 0 -136.5 30t-92 81.5t-32.5 113.5q0 64 32.5 116.5t91.5 82.5t137 30h243v-80h-141q-78 0 -119 -37.5t-41 -111.5q0 -71 41 -108t119 -37h141v-80h-243zM58 37h524v-80h-524v80z" />
    <glyph glyph-name="reflexsuperset" unicode="&#x2287;" horiz-adv-x="640" 
d="M68 177h141q78 0 119 37t41 108q0 74 -41 111.5t-119 37.5h-141v80h243q78 0 137 -30t91.5 -82.5t32.5 -116.5q0 -62 -32.5 -113.5t-92 -81.5t-136.5 -30h-243v80zM58 37h524v-80h-524v80z" />
    <glyph glyph-name="uni2299" unicode="&#x2299;" 
d="M265 -99q-105 60 -165 165t-60 235t60 235t165 165t235 60t235 -60t165 -165t60 -235t-60 -235t-165 -165t-235 -60t-235 60zM673 -11q77 47 121.5 129t44.5 183t-44.5 183t-121.5 129t-173 47t-173 -47t-121.5 -129t-44.5 -183t44.5 -183t121.5 -129t173 -47t173 47z
M397.5 116.5q-45.5 27.5 -71.5 76t-26 108.5t26 108.5t71.5 76t102.5 27.5t102.5 -27.5t71.5 -76t26 -108.5t-26 -108.5t-71.5 -76t-102.5 -27.5t-102.5 27.5z" />
    <glyph glyph-name="uni22A5" unicode="&#x22a5;" 
d="M165 42h236v558q0 34 31 54t75 20q42 0 74.5 -20t32.5 -54v-558h236v-80h-685v80z" />
    <glyph glyph-name="uni2312" unicode="&#x2312;" 
d="M73 600q197 154 427 154q231 0 428 -154l-56 -109q-91 61 -179.5 93.5t-192.5 32.5t-192 -32t-179 -94z" />
    <glyph glyph-name="uni2460" unicode="&#x2460;" 
d="M265 -99q-105 60 -165 165t-60 235t60 235t165 165t235 60t235 -60t165 -165t60 -235t-60 -235t-165 -165t-235 -60t-235 60zM678.5 -20.5q79.5 48.5 125 133t45.5 188.5t-45.5 188.5t-125 133t-178.5 48.5t-178.5 -48.5t-125 -133t-45.5 -188.5t45.5 -188.5t125 -133
t178.5 -48.5t178.5 48.5zM338 103h101v301h-94v61h94v44q0 23 23 37.5t54 14.5q30 0 53.5 -14t23.5 -38v-406h70v-61h-325v61z" />
    <glyph glyph-name="uni2461" unicode="&#x2461;" 
d="M265 -99q-105 60 -165 165t-60 235t60 235t165 165t235 60t235 -60t165 -165t60 -235t-60 -235t-165 -165t-235 -60t-235 60zM678.5 -20.5q79.5 48.5 125 133t45.5 188.5t-45.5 188.5t-125 133t-178.5 48.5t-178.5 -48.5t-125 -133t-45.5 -188.5t45.5 -188.5t125 -133
t178.5 -48.5t178.5 48.5zM305 98q1 18 23.5 42t67.5 64q53 48 81 77t47.5 63.5t19.5 71.5q0 41 -11.5 62.5t-34.5 21.5q-25 0 -38 -28t-14 -76l-146 1q18 164 201 164q92 0 144 -43t52 -125q0 -43 -20 -82t-47.5 -69.5t-69.5 -70.5q-27 -26 -40.5 -40.5t-20.5 -28.5l201 1
v-61h-395v56z" />
    <glyph glyph-name="uni2462" unicode="&#x2462;" 
d="M265 -99q-105 60 -165 165t-60 235t60 235t165 165t235 60t235 -60t165 -165t60 -235t-60 -235t-165 -165t-235 -60t-235 60zM678.5 -20.5q79.5 48.5 125 133t45.5 188.5t-45.5 188.5t-125 133t-178.5 48.5t-178.5 -48.5t-125 -133t-45.5 -188.5t45.5 -188.5t125 -133
t178.5 -48.5t178.5 48.5zM346 77q-60 38 -67 113l146 -1q1 -47 19.5 -68.5t53.5 -21.5q69 0 69 88q0 87 -72 87h-144v61h135q56 0 56 85q0 38 -13 61t-36 23q-28 0 -41 -23.5t-15 -67.5l-146 -1q7 71 62 111.5t142 40.5q62 0 108 -19t70 -51.5t24 -73.5q0 -71 -58 -110
q82 -32 82 -121q0 -72 -63 -111t-158 -39q-94 0 -154 38z" />
    <glyph glyph-name="uni2463" unicode="&#x2463;" 
d="M265 -99q-105 60 -165 165t-60 235t60 235t165 165t235 60t235 -60t165 -165t60 -235t-60 -235t-165 -165t-235 -60t-235 60zM678.5 -20.5q79.5 48.5 125 133t45.5 188.5t-45.5 188.5t-125 133t-178.5 48.5t-178.5 -48.5t-125 -133t-45.5 -188.5t45.5 -188.5t125 -133
t178.5 -48.5t178.5 48.5zM520 174h-89q-61 0 -93.5 6t-50.5 28.5t-18 70.5v230q0 24 24 38t54 14q31 0 54 -14t23 -38v-244q0 -17 1.5 -22t7 -6.5t22.5 -1.5h65v274q0 24 23 38t54 14q30 0 53.5 -14t23.5 -38v-274h57v-61h-57v-133h-154v133z" />
    <glyph glyph-name="uni2464" unicode="&#x2464;" 
d="M265 -99q-105 60 -165 165t-60 235t60 235t165 165t235 60t235 -60t165 -165t60 -235t-60 -235t-165 -165t-235 -60t-235 60zM678.5 -20.5q79.5 48.5 125 133t45.5 188.5t-45.5 188.5t-125 133t-178.5 48.5t-178.5 -48.5t-125 -133t-45.5 -188.5t45.5 -188.5t125 -133
t178.5 -48.5t178.5 48.5zM341 92q-58 49 -60 135h145q3 -60 22.5 -91.5t52.5 -31.5q30 0 47 26.5t17 79.5q0 55 -15.5 85t-44.5 30q-14 0 -26 -7t-19 -20h-151v261h369v-61h-215v-120q24 7 54 7q97 0 149.5 -46t52.5 -127q0 -79 -59 -124t-159 -45q-102 0 -160 49z" />
    <glyph glyph-name="uni2465" unicode="&#x2465;" 
d="M265 -99q-105 60 -165 165t-60 235t60 235t165 165t235 60t235 -60t165 -165t60 -235t-60 -235t-165 -165t-235 -60t-235 60zM548.5 129q16.5 29 16.5 78q0 50 -16.5 78.5t-40.5 28.5q-31 0 -49.5 -28t-18.5 -79q0 -50 18.5 -78.5t49.5 -28.5q24 0 40.5 29zM678.5 -20.5
q79.5 48.5 125 133t45.5 188.5t-45.5 188.5t-125 133t-178.5 48.5t-178.5 -48.5t-125 -133t-45.5 -188.5t45.5 -188.5t125 -133t178.5 -48.5t178.5 48.5zM337.5 103q-56.5 64 -56.5 199q0 129 60 195.5t167 66.5q67 0 123 -36t72 -103h-142q-7 41 -21.5 60t-31.5 19
q-30 0 -48 -32.5t-24 -114.5q34 18 75 18q66 0 113 -23.5t71 -62t24 -82.5t-24 -82.5t-72 -62t-115 -23.5q-114 0 -170.5 64z" />
    <glyph glyph-name="uni2466" unicode="&#x2466;" 
d="M265 -99q-105 60 -165 165t-60 235t60 235t165 165t235 60t235 -60t165 -165t60 -235t-60 -235t-165 -165t-235 -60t-235 60zM678.5 -20.5q79.5 48.5 125 133t45.5 188.5t-45.5 188.5t-125 133t-178.5 48.5t-178.5 -48.5t-125 -133t-45.5 -188.5t45.5 -188.5t125 -133
t178.5 -48.5t178.5 48.5zM532 496h-223v61l382 -1v-45l-121 -465h-154z" />
    <glyph glyph-name="uni2467" unicode="&#x2467;" 
d="M265 -99q-105 60 -165 165t-60 235t60 235t165 165t235 60t235 -60t165 -165t60 -235t-60 -235t-165 -165t-235 -60t-235 60zM555 124.5q19 25.5 19 67.5t-19 67.5t-54 25.5q-36 0 -55 -25.5t-19 -67.5t19 -67.5t55 -25.5q35 0 54 25.5zM678.5 -20.5q79.5 48.5 125 133
t45.5 188.5t-45.5 188.5t-125 133t-178.5 48.5t-178.5 -48.5t-125 -133t-45.5 -188.5t45.5 -188.5t125 -133t178.5 -48.5t178.5 48.5zM383.5 58q-51.5 19 -80.5 53.5t-29 80.5q0 85 97 125q-85 38 -85 108q0 41 28.5 72.5t77.5 49t109 17.5q59 0 107.5 -17.5t77 -49
t28.5 -72.5q0 -70 -84 -108q97 -40 97 -125q0 -46 -29 -80.5t-80.5 -53.5t-116.5 -19q-66 0 -117.5 19zM545 368q17 22 17 57q0 36 -17 57.5t-44 21.5q-28 0 -45 -21.5t-17 -57.5q0 -35 17 -57t45 -22q27 0 44 22z" />
    <glyph glyph-name="uni2468" unicode="&#x2468;" 
d="M265 -99q-105 60 -165 165t-60 235t60 235t165 165t235 60t235 -60t165 -165t60 -235t-60 -235t-165 -165t-235 -60t-235 60zM678.5 -20.5q79.5 48.5 125 133t45.5 188.5t-45.5 188.5t-125 133t-178.5 48.5t-178.5 -48.5t-125 -133t-45.5 -188.5t45.5 -188.5t125 -133
t178.5 -48.5t178.5 48.5zM361 72.5q-59 33.5 -72 105.5h142q9 -43 25 -61t42 -18q27 0 42.5 32.5t21.5 113.5q-29 -12 -71 -12q-68 0 -115 22t-70.5 59.5t-23.5 83.5q0 43 23.5 81t72 61.5t119.5 23.5q105 0 163 -65t58 -198q0 -130 -56.5 -196t-163.5 -66q-78 0 -137 33.5z
M541.5 321q16.5 27 16.5 77t-16.5 77.5t-44.5 27.5t-44 -27.5t-16 -77.5t16 -77t44 -27t44.5 27z" />
    <glyph glyph-name="uni2469" unicode="&#x2469;" 
d="M265 -99q-105 60 -165 165t-60 235t60 235t165 165t235 60t235 -60t165 -165t60 -235t-60 -235t-165 -165t-235 -60t-235 60zM678.5 -20.5q79.5 48.5 125 133t45.5 188.5t-45.5 188.5t-125 133t-178.5 48.5t-178.5 -48.5t-125 -133t-45.5 -188.5q0 -62 17 -118t48 -102
v22h70v301h-65v61h65v44q0 22 19 37t46 15q26 0 45.5 -14t19.5 -38v-406h49v-61h-219q48 -53 113 -82t141 -29q99 0 178.5 48.5zM508 107.5q-45 68.5 -45 194.5q0 124 45.5 193t122.5 69t122 -69t45 -193q0 -125 -45 -194t-122 -69q-78 0 -123 68.5zM658 150q11 51 11 152
q0 100 -11 151t-27 51t-27.5 -51t-11.5 -151q0 -101 11.5 -152t27.5 -51t27 51z" />
    <glyph glyph-name="uni246A" unicode="&#x246a;" 
d="M265 -99q-105 60 -165 165t-60 235t60 235t165 165t235 60t235 -60t165 -165t60 -235t-60 -235t-165 -165t-235 -60t-235 60zM246 103h70v301h-65v61h65v44q0 22 19 37t46 15q26 0 45.5 -14t19.5 -38v-406h49v-61h-249v61zM641 -40q65 29 113 82h-238v61h70v301h-65v61
h65v44q0 22 19 37t46 15q26 0 45.5 -14t19.5 -38v-406h49v-48q40 49 62 112t22 134q0 104 -45.5 188.5t-125 133t-178.5 48.5t-178.5 -48.5t-125 -133t-45.5 -188.5q0 -76 25 -142t70 -117q48 -53 113 -82t141 -29t141 29z" />
    <glyph glyph-name="uni246B" unicode="&#x246b;" 
d="M265 -99q-105 60 -165 165t-60 235t60 235t165 165t235 60t235 -60t165 -165t60 -235t-60 -235t-165 -165t-235 -60t-235 60zM641 -40q65 29 113 82h-281v56q0 16 15.5 40t49.5 66q36 46 55 74.5t33 63.5t14 74q0 41 -6 62.5t-15 21.5q-11 0 -18 -28.5t-8 -75.5l-124 1
q6 80 44 122t108 42t109 -43.5t39 -124.5q0 -59 -25.5 -108.5t-72.5 -113.5q-29 -38 -42 -69l142 1v-40q37 48 57.5 109t20.5 129q0 104 -45.5 188.5t-125 133t-178.5 48.5t-178.5 -48.5t-125 -133t-45.5 -188.5q0 -62 17 -118t48 -102v22h70v301h-65v61h65v44q0 22 19 37
t46 15q26 0 45.5 -14t19.5 -38v-406h39v-61h-209q48 -53 113 -82t141 -29t141 29z" />
    <glyph glyph-name="uni246C" unicode="&#x246c;" 
d="M265 -99q-105 60 -165 165t-60 235t60 235t165 165t235 60t235 -60t165 -165t60 -235t-60 -235t-165 -165t-235 -60t-235 60zM678.5 -20.5q79.5 48.5 125 133t45.5 188.5t-45.5 188.5t-125 133t-178.5 48.5t-178.5 -48.5t-125 -133t-45.5 -188.5q0 -122 63 -217v19h70
v301h-65v61h65v44q0 22 19 37t46 15q26 0 45.5 -14t19.5 -38v-406h49v-61h-217q48 -53 113 -82t141 -29q99 0 178.5 48.5zM512.5 77q-45.5 38 -50.5 113l124 -1q1 -48 11.5 -69t29.5 -21q37 0 37 88q0 87 -39 87h-112v61h105q14 0 21 22t7 63q0 37 -7 60.5t-16 23.5
q-12 0 -19 -24t-9 -67l-124 -1q5 71 46 111.5t108 40.5q70 0 111 -41t41 -103q0 -34 -10 -60.5t-35 -50.5q34 -19 48 -48t14 -72q0 -73 -47.5 -111.5t-118.5 -38.5q-70 0 -115.5 38z" />
    <glyph glyph-name="uni246D" unicode="&#x246d;" 
d="M265 -99q-105 60 -165 165t-60 235t60 235t165 165t235 60t235 -60t165 -165t60 -235t-60 -235t-165 -165t-235 -60t-235 60zM641 -40q65 29 112 81h-115v133h-51q-45 0 -70 5.5t-40 28.5t-15 71v230q0 23 20.5 37.5t45.5 14.5q26 0 45.5 -14t19.5 -38v-244
q0 -13 0.5 -20t2.5 -8.5t8 -1.5h34v274q0 24 19.5 38t45.5 14q25 0 45 -14.5t20 -37.5v-274h40v-61h-40v-115q39 49 60 111t21 131q0 104 -45.5 188.5t-125 133t-178.5 48.5t-178.5 -48.5t-125 -133t-45.5 -188.5q0 -122 63 -217v19h70v301h-65v61h65v44q0 22 19 37t46 15
q26 0 45.5 -14t19.5 -38v-406h59v-61h-227q48 -53 113 -82t141 -29t141 29z" />
    <glyph glyph-name="uni246E" unicode="&#x246e;" 
d="M265 -99q-105 60 -165 165t-60 235t60 235t165 165t235 60t235 -60t165 -165t60 -235t-60 -235t-165 -165t-235 -60t-235 60zM678.5 -20.5q79.5 48.5 125 133t45.5 188.5t-45.5 188.5t-125 133t-178.5 48.5t-178.5 -48.5t-125 -133t-45.5 -188.5q0 -122 63 -217v19h70
v301h-65v61h65v44q0 22 19 37t46 15q26 0 45.5 -14t19.5 -38v-406h49v-61h-217q48 -53 113 -82t141 -29q99 0 178.5 48.5zM498 81q-40 48 -42 136h123q2 -66 11 -94.5t31 -28.5q14 0 24 27t10 79q0 54 -9 84.5t-22 30.5q-10 0 -22 -27h-127v261h281v-61h-151v-116q14 3 27 3
q75 0 113.5 -46.5t38.5 -126.5t-45 -124.5t-118 -44.5q-83 0 -123 48z" />
    <glyph glyph-name="uni2474" unicode="&#x2474;" 
d="M730 -100q44 100 65 209t21 217t-21 217t-65 209h110q60 -90 90.5 -200t30.5 -226t-30.5 -226t-90.5 -200h-110zM161 -100q-60 90 -90.5 200t-30.5 226t30.5 226t90.5 200h110q-44 -100 -65 -209t-21 -217t21 -217t65 -209h-110zM338 103h101v301h-94v61h94v44
q0 23 23 37.5t54 14.5q30 0 53.5 -14t23.5 -38v-406h70v-61h-325v61z" />
    <glyph glyph-name="uni2475" unicode="&#x2475;" 
d="M305 98q1 18 23.5 42t67.5 64q53 48 81 77t47.5 63.5t19.5 71.5q0 41 -11.5 62.5t-34.5 21.5q-25 0 -38 -28t-14 -76l-146 1q18 164 201 164q92 0 144 -43t52 -125q0 -43 -20 -82t-47.5 -69.5t-69.5 -70.5q-27 -26 -40.5 -40.5t-20.5 -28.5l201 1v-61h-395v56zM161 -100
q-60 90 -90.5 200t-30.5 226t30.5 226t90.5 200h110q-44 -100 -65 -209t-21 -217t21 -217t65 -209h-110zM730 -100q44 100 65 209t21 217t-21 217t-65 209h110q60 -90 90.5 -200t30.5 -226t-30.5 -226t-90.5 -200h-110z" />
    <glyph glyph-name="uni2476" unicode="&#x2476;" 
d="M346 77q-60 38 -67 113l146 -1q1 -47 19.5 -68.5t53.5 -21.5q69 0 69 88q0 87 -72 87h-144v61h135q56 0 56 85q0 38 -13 61t-36 23q-28 0 -41 -23.5t-15 -67.5l-146 -1q7 71 62 111.5t142 40.5q62 0 108 -19t70 -51.5t24 -73.5q0 -71 -58 -110q82 -32 82 -121
q0 -72 -63 -111t-158 -39q-94 0 -154 38zM161 -100q-60 90 -90.5 200t-30.5 226t30.5 226t90.5 200h110q-44 -100 -65 -209t-21 -217t21 -217t65 -209h-110zM730 -100q44 100 65 209t21 217t-21 217t-65 209h110q60 -90 90.5 -200t30.5 -226t-30.5 -226t-90.5 -200h-110z
" />
    <glyph glyph-name="uni2477" unicode="&#x2477;" 
d="M520 174h-89q-61 0 -93.5 6t-50.5 28.5t-18 70.5v230q0 24 24 38t54 14q31 0 54 -14t23 -38v-244q0 -17 1.5 -22t7 -6.5t22.5 -1.5h65v274q0 24 23 38t54 14q30 0 53.5 -14t23.5 -38v-274h57v-61h-57v-133h-154v133zM161 -100q-60 90 -90.5 200t-30.5 226t30.5 226
t90.5 200h110q-44 -100 -65 -209t-21 -217t21 -217t65 -209h-110zM730 -100q44 100 65 209t21 217t-21 217t-65 209h110q60 -90 90.5 -200t30.5 -226t-30.5 -226t-90.5 -200h-110z" />
    <glyph glyph-name="uni2478" unicode="&#x2478;" 
d="M341 92q-58 49 -60 135h145q3 -60 22.5 -91.5t52.5 -31.5q30 0 47 26.5t17 79.5q0 55 -15.5 85t-44.5 30q-14 0 -26 -7t-19 -20h-151v261h369v-61h-215v-120q24 7 54 7q97 0 149.5 -46t52.5 -127q0 -79 -59 -124t-159 -45q-102 0 -160 49zM161 -100q-60 90 -90.5 200
t-30.5 226t30.5 226t90.5 200h110q-44 -100 -65 -209t-21 -217t21 -217t65 -209h-110zM730 -100q44 100 65 209t21 217t-21 217t-65 209h110q60 -90 90.5 -200t30.5 -226t-30.5 -226t-90.5 -200h-110z" />
    <glyph glyph-name="uni2479" unicode="&#x2479;" 
d="M337.5 103q-56.5 64 -56.5 199q0 129 60 195.5t167 66.5q67 0 123 -36t72 -103h-142q-7 41 -21.5 60t-31.5 19q-30 0 -48 -32.5t-24 -114.5q34 18 75 18q66 0 113 -23.5t71 -62t24 -82.5t-24 -82.5t-72 -62t-115 -23.5q-114 0 -170.5 64zM161 -100q-60 90 -90.5 200
t-30.5 226t30.5 226t90.5 200h110q-44 -100 -65 -209t-21 -217t21 -217t65 -209h-110zM548.5 129q16.5 29 16.5 78q0 50 -16.5 78.5t-40.5 28.5q-31 0 -49.5 -28t-18.5 -79q0 -50 18.5 -78.5t49.5 -28.5q24 0 40.5 29zM730 -100q44 100 65 209t21 217t-21 217t-65 209h110
q60 -90 90.5 -200t30.5 -226t-30.5 -226t-90.5 -200h-110z" />
    <glyph glyph-name="uni247A" unicode="&#x247a;" 
d="M730 -100q44 100 65 209t21 217t-21 217t-65 209h110q60 -90 90.5 -200t30.5 -226t-30.5 -226t-90.5 -200h-110zM161 -100q-60 90 -90.5 200t-30.5 226t30.5 226t90.5 200h110q-44 -100 -65 -209t-21 -217t21 -217t65 -209h-110zM532 496h-223v61l382 -1v-45l-121 -465
h-154z" />
    <glyph glyph-name="uni247B" unicode="&#x247b;" 
d="M383.5 58q-51.5 19 -80.5 53.5t-29 80.5q0 85 97 125q-85 38 -85 108q0 41 28.5 72.5t77.5 49t109 17.5q59 0 107.5 -17.5t77 -49t28.5 -72.5q0 -70 -84 -108q97 -40 97 -125q0 -46 -29 -80.5t-80.5 -53.5t-116.5 -19q-66 0 -117.5 19zM161 -100q-60 90 -90.5 200
t-30.5 226t30.5 226t90.5 200h110q-44 -100 -65 -209t-21 -217t21 -217t65 -209h-110zM555 124.5q19 25.5 19 67.5t-19 67.5t-54 25.5q-36 0 -55 -25.5t-19 -67.5t19 -67.5t55 -25.5q35 0 54 25.5zM545 368q17 22 17 57q0 36 -17 57.5t-44 21.5q-28 0 -45 -21.5t-17 -57.5
q0 -35 17 -57t45 -22q27 0 44 22zM730 -100q44 100 65 209t21 217t-21 217t-65 209h110q60 -90 90.5 -200t30.5 -226t-30.5 -226t-90.5 -200h-110z" />
    <glyph glyph-name="uni247C" unicode="&#x247c;" 
d="M361 72.5q-59 33.5 -72 105.5h142q9 -43 25 -61t42 -18q27 0 42.5 32.5t21.5 113.5q-29 -12 -71 -12q-68 0 -115 22t-70.5 59.5t-23.5 83.5q0 43 23.5 81t72 61.5t119.5 23.5q105 0 163 -65t58 -198q0 -130 -56.5 -196t-163.5 -66q-78 0 -137 33.5zM161 -100
q-60 90 -90.5 200t-30.5 226t30.5 226t90.5 200h110q-44 -100 -65 -209t-21 -217t21 -217t65 -209h-110zM541.5 321q16.5 27 16.5 77t-16.5 77.5t-44.5 27.5t-44 -27.5t-16 -77.5t16 -77t44 -27t44.5 27zM730 -100q44 100 65 209t21 217t-21 217t-65 209h110
q60 -90 90.5 -200t30.5 -226t-30.5 -226t-90.5 -200h-110z" />
    <glyph glyph-name="uni247D" unicode="&#x247d;" 
d="M730 -100q44 100 65 209t21 217t-21 217t-65 209h110q60 -90 90.5 -200t30.5 -226t-30.5 -226t-90.5 -200h-110zM161 -100q-60 90 -90.5 200t-30.5 226t30.5 226t90.5 200h110q-44 -100 -65 -209t-21 -217t21 -217t65 -209h-110zM231 103h65v301h-60v61h60v44
q0 22 19.5 37t46.5 15q26 0 45.5 -14.5t19.5 -37.5v-406h46v-61h-242v61zM503.5 107.5q-42.5 68.5 -42.5 194.5q0 124 43 193t118 69t118 -69t43 -193q0 -125 -43 -194t-118 -69q-76 0 -118.5 68.5zM647.5 150q10.5 51 10.5 152q0 100 -10.5 151t-25.5 51t-25.5 -51
t-10.5 -151q0 -101 10.5 -152t25.5 -51t25.5 51z" />
    <glyph glyph-name="uni247E" unicode="&#x247e;" 
d="M730 -100q44 100 65 209t21 217t-21 217t-65 209h110q60 -90 90.5 -200t30.5 -226t-30.5 -226t-90.5 -200h-110zM161 -100q-60 90 -90.5 200t-30.5 226t30.5 226t90.5 200h110q-44 -100 -65 -209t-21 -217t21 -217t65 -209h-110zM259 103h65v301h-60v61h60v44
q0 22 19.5 37t46.5 15q25 0 45 -14.5t20 -37.5v-406h46v-61h-242v61zM510 103h65v301h-60v61h60v44q0 22 19.5 37t46.5 15q26 0 45.5 -14.5t19.5 -37.5v-406h46v-61h-242v61z" />
    <glyph glyph-name="uni247F" unicode="&#x247f;" 
d="M730 -100q44 100 65 209t21 217t-21 217t-65 209h110q60 -90 90.5 -200t30.5 -226t-30.5 -226t-90.5 -200h-110zM161 -100q-60 90 -90.5 200t-30.5 226t30.5 226t90.5 200h110q-44 -100 -65 -209t-21 -217t21 -217t65 -209h-110zM230 103h66v301h-61v61h61v44q0 22 19 37
t46 15q26 0 45.5 -14.5t19.5 -37.5v-406h37v-61h-233v61zM469 98q0 15 14.5 38t47.5 68q32 45 50 73.5t31 64t13 74.5t-5 61.5t-10 22.5q-6 0 -12 -29.5t-7 -74.5l-125 1q5 79 41.5 121.5t104.5 42.5t105.5 -43.5t37.5 -124.5q0 -41 -13 -79t-30.5 -67t-48.5 -76
q-26 -35 -38 -69l132 1v-61h-288v56z" />
    <glyph glyph-name="uni2480" unicode="&#x2480;" 
d="M730 -100q44 100 65 209t21 217t-21 217t-65 209h110q60 -90 90.5 -200t30.5 -226t-30.5 -226t-90.5 -200h-110zM161 -100q-60 90 -90.5 200t-30.5 226t30.5 226t90.5 200h110q-44 -100 -65 -209t-21 -217t21 -217t65 -209h-110zM229 103h65v301h-60v61h60v44
q0 22 19.5 37t46.5 15q26 0 45.5 -14.5t19.5 -37.5v-406h46v-61h-242v61zM508 77.5q-44 38.5 -48 112.5l125 -1q3 -90 33 -90q13 0 21.5 21t8.5 67q0 44 -8.5 65.5t-22.5 21.5h-110v61h103q9 0 15 22t6 63q0 36 -5.5 60t-10.5 24q-8 0 -14 -25t-7 -66l-126 -1
q5 71 44.5 111.5t104.5 40.5q67 0 106.5 -41t39.5 -103q0 -35 -9 -60.5t-35 -50.5q33 -20 46.5 -48.5t13.5 -71.5q0 -72 -46 -111t-114 -39q-67 0 -111 38.5z" />
    <glyph glyph-name="uni2481" unicode="&#x2481;" 
d="M730 -100q44 100 65 209t21 217t-21 217t-65 209h110q60 -90 90.5 -200t30.5 -226t-30.5 -226t-90.5 -200h-110zM161 -100q-60 90 -90.5 200t-30.5 226t30.5 226t90.5 200h110q-44 -100 -65 -209t-21 -217t21 -217t65 -209h-110zM230 103h65v301h-61v61h61v44
q0 22 19.5 37t45.5 15t46 -14.5t20 -37.5v-406h55v-61h-251v61zM624 174h-42q-43 0 -67 5.5t-39.5 28t-15.5 71.5v230q0 23 20.5 37.5t46.5 14.5q27 0 46 -14.5t19 -37.5v-244q0 -17 0.5 -23.5t4.5 -6.5h27v274q0 23 19.5 37.5t46.5 14.5q25 0 45 -14.5t20 -37.5v-274h37
v-61h-37v-133h-131v133z" />
    <glyph glyph-name="uni2482" unicode="&#x2482;" 
d="M730 -100q44 100 65 209t21 217t-21 217t-65 209h110q60 -90 90.5 -200t30.5 -226t-30.5 -226t-90.5 -200h-110zM161 -100q-60 90 -90.5 200t-30.5 226t30.5 226t90.5 200h110q-44 -100 -65 -209t-21 -217t21 -217t65 -209h-110zM229 103h65v301h-60v61h60v44
q0 22 19.5 37t45.5 15t46 -14.5t20 -37.5v-406h46v-61h-242v61zM454 217h124q2 -65 9.5 -94t24.5 -29q10 0 18.5 27t8.5 79q0 53 -7.5 84t-16.5 31q-6 0 -15 -27h-128v261h271v-61h-140v-115q12 2 20 2q73 0 109.5 -46.5t36.5 -126.5t-43 -124.5t-114 -44.5q-155 0 -158 184
z" />
    <glyph glyph-name="uni249C" unicode="&#x249c;" 
d="M730 -100q44 100 65 209t21 217t-21 217t-65 209h110q60 -90 90.5 -200t30.5 -226t-30.5 -226t-90.5 -200h-110zM161 -100q-60 90 -90.5 200t-30.5 226t30.5 226t90.5 200h110q-44 -100 -65 -209t-21 -217t21 -217t65 -209h-110zM330.5 173.5q-54.5 43.5 -54.5 127.5
q0 85 55.5 128t146.5 43q51 0 92 -19q24 16 57 16q31 0 54 -14.5t23 -38.5v-283h-156v7q-31 -10 -77 -10q-86 0 -140.5 43.5zM530.5 196q13.5 5 17.5 11v187q-6 7 -19 12t-28 5q-69 0 -69 -106q0 -59 18.5 -86.5t51.5 -27.5q15 0 28.5 5z" />
    <glyph glyph-name="uni249D" unicode="&#x249d;" 
d="M462 58v-7h-156v468q0 24 23 38.5t54 14.5t55 -14t24 -39v-139q33 9 77 9q83 0 139 -43t56 -128q0 -86 -54 -128.5t-148 -42.5q-37 0 -70 11zM161 -100q-60 90 -90.5 200t-30.5 226t30.5 226t90.5 200h110q-44 -100 -65 -209t-21 -217t21 -217t65 -209h-110zM578 214
q0 59 -18.5 87t-51.5 28q-15 0 -28.5 -5.5t-17.5 -11.5v-186q6 -7 19 -12t28 -5q69 0 69 105zM730 -100q44 100 65 209t21 217t-21 217t-65 209h110q60 -90 90.5 -200t30.5 -226t-30.5 -226t-90.5 -200h-110z" />
    <glyph glyph-name="uni249E" unicode="&#x249e;" 
d="M730 -100q44 100 65 209t21 217t-21 217t-65 209h110q60 -90 90.5 -200t30.5 -226t-30.5 -226t-90.5 -200h-110zM161 -100q-60 90 -90.5 200t-30.5 226t30.5 226t90.5 200h110q-44 -100 -65 -209t-21 -217t21 -217t65 -209h-110zM345.5 178q-56.5 48 -56.5 125
q0 74 56 121.5t159 47.5q52 0 96.5 -15t72 -41.5t31.5 -59.5h-145q-9 30 -22 42.5t-33 12.5q-31 0 -45 -30t-14 -78q0 -51 15 -81.5t48 -30.5q23 0 37 13.5t19 47.5h147q-6 -58 -61.5 -90t-141.5 -32q-106 0 -162.5 48z" />
    <glyph glyph-name="uni249F" unicode="&#x249f;" 
d="M320.5 90.5q-54.5 43.5 -54.5 127.5q0 86 55.5 128.5t146.5 42.5q36 0 70 -10v140q0 25 24 39t55 14t54 -14.5t23 -38.5v-468h-156v7q-35 -11 -77 -11q-86 0 -140.5 43.5zM161 -100q-60 90 -90.5 200t-30.5 226t30.5 226t90.5 200h110q-44 -100 -65 -209t-21 -217
t21 -217t65 -209h-110zM520.5 114q13.5 5 17.5 10v187q-7 7 -19.5 12.5t-27.5 5.5q-69 0 -69 -107q0 -59 18.5 -86t51.5 -27q15 0 28.5 5zM730 -100q44 100 65 209t21 217t-21 217t-65 209h110q60 -90 90.5 -200t30.5 -226t-30.5 -226t-90.5 -200h-110z" />
    <glyph glyph-name="uni24A0" unicode="&#x24a0;" 
d="M730 -100q44 100 65 209t21 217t-21 217t-65 209h110q60 -90 90.5 -200t30.5 -226t-30.5 -226t-90.5 -200h-110zM161 -100q-60 90 -90.5 200t-30.5 226t30.5 226t90.5 200h110q-44 -100 -65 -209t-21 -217t21 -217t65 -209h-110zM342 178q-57 48 -57 126q0 77 57 123
t161 46q98 0 155 -52.5t58 -138.5l-77 -1h-197q2 -41 17 -65.5t44 -24.5q23 0 38 13t23 47l146 1q-9 -60 -62.5 -91t-144.5 -31q-104 0 -161 48zM558 342q-12 70 -55 70q-23 0 -38.5 -18t-20.5 -52h114z" />
    <glyph glyph-name="uni24A1" unicode="&#x24a1;" 
d="M730 -100q44 100 65 209t21 217t-21 217t-65 209h110q60 -90 90.5 -200t30.5 -226t-30.5 -226t-90.5 -200h-110zM161 -100q-60 90 -90.5 200t-30.5 226t30.5 226t90.5 200h110q-44 -100 -65 -209t-21 -217t21 -217t65 -209h-110zM411 319h-75v61h75v77q0 104 142 104h91
v-60q-33 1 -49.5 -4.5t-22 -18t-5.5 -34.5v-64h87v-61h-87v-267h-156v267z" />
    <glyph glyph-name="uni24A2" unicode="&#x24a2;" 
d="M361 120h93q38 0 56.5 6t26.5 23t10 52q-33 -9 -76 -9q-86 0 -140.5 42.5t-54.5 125.5t55.5 125.5t146.5 42.5q50 0 91 -19q23 16 58 16q31 0 54 -14.5t23 -38.5v-221q0 -69 -18.5 -109.5t-72.5 -61.5t-159 -21h-93v61zM161 -100q-60 90 -90.5 200t-30.5 226t30.5 226
t90.5 200h110q-44 -100 -65 -209t-21 -217t21 -217t65 -209h-110zM530.5 258q13.5 5 17.5 11v180q-6 7 -19 12t-28 5q-69 0 -69 -102q0 -57 19 -84t51 -27q15 0 28.5 5zM730 -100q44 100 65 209t21 217t-21 217t-65 209h110q60 -90 90.5 -200t30.5 -226t-30.5 -226
t-90.5 -200h-110z" />
    <glyph glyph-name="uni24A3" unicode="&#x24a3;" 
d="M302 529q0 23 23.5 37.5t54.5 14.5q30 0 54 -14t24 -38v-149q45 19 96 19q83 0 123.5 -45t40.5 -131v-162h-156v176q0 55 -10 77.5t-36 22.5q-30 0 -58 -25v-251h-156v468zM161 -100q-60 90 -90.5 200t-30.5 226t30.5 226t90.5 200h110q-44 -100 -65 -209t-21 -217
t21 -217t65 -209h-110zM730 -100q44 100 65 209t21 217t-21 217t-65 209h110q60 -90 90.5 -200t30.5 -226t-30.5 -226t-90.5 -200h-110z" />
    <glyph glyph-name="uni24A4" unicode="&#x24a4;" 
d="M730 -100q44 100 65 209t21 217t-21 217t-65 209h110q60 -90 90.5 -200t30.5 -226t-30.5 -226t-90.5 -200h-110zM161 -100q-60 90 -90.5 200t-30.5 226t30.5 226t90.5 200h110q-44 -100 -65 -209t-21 -217t21 -217t65 -209h-110zM426 380h156v-329h-156v329zM437 429.5
q-26 24.5 -26 58.5q0 33 26 58t63 25t63 -25t26 -58q0 -34 -26 -58.5t-63 -24.5t-63 24.5z" />
    <glyph glyph-name="uni24A5" unicode="&#x24a5;" 
d="M730 -100q44 100 65 209t21 217t-21 217t-65 209h110q60 -90 90.5 -200t30.5 -226t-30.5 -226t-90.5 -200h-110zM161 -100q-60 90 -90.5 200t-30.5 226t30.5 226t90.5 200h110q-44 -100 -65 -209t-21 -217t21 -217t65 -209h-110zM382 38q29 -1 40.5 7.5t15 36.5t3.5 99
v258h158v-270q0 -70 -17.5 -111t-64 -61.5t-135.5 -19.5v61zM457.5 489.5q-25.5 24.5 -25.5 57.5q0 34 25.5 59t62.5 25t62.5 -25t25.5 -59q0 -33 -25.5 -57.5t-62.5 -24.5t-62.5 24.5z" />
    <glyph glyph-name="uni24A6" unicode="&#x24a6;" 
d="M324 519q0 23 23.5 37.5t54.5 14.5q30 0 54.5 -14t24.5 -38v-267l139 128h89l-112 -102l139 -227h-164l-71 138l-20 -18v-120h-157v468zM161 -100q-60 90 -90.5 200t-30.5 226t30.5 226t90.5 200h110q-44 -100 -65 -209t-21 -217t21 -217t65 -209h-110zM730 -100
q44 100 65 209t21 217t-21 217t-65 209h110q60 -90 90.5 -200t30.5 -226t-30.5 -226t-90.5 -200h-110z" />
    <glyph glyph-name="uni24A7" unicode="&#x24a7;" 
d="M730 -100q44 100 65 209t21 217t-21 217t-65 209h110q60 -90 90.5 -200t30.5 -226t-30.5 -226t-90.5 -200h-110zM161 -100q-60 90 -90.5 200t-30.5 226t30.5 226t90.5 200h110q-44 -100 -65 -209t-21 -217t21 -217t65 -209h-110zM612 41q-85 0 -123.5 4.5t-59.5 26.5
t-21 73v364q0 24 24 38t54 14q32 0 55.5 -14.5t23.5 -37.5v-382q0 -17 2 -22t9.5 -6t35.5 -1v-57z" />
    <glyph glyph-name="uni24A8" unicode="&#x24a8;" 
d="M730 -100q44 100 65 209t21 217t-21 217t-65 209h110q60 -90 90.5 -200t30.5 -226t-30.5 -226t-90.5 -200h-110zM161 -100q-60 90 -90.5 200t-30.5 226t30.5 226t90.5 200h110q-44 -100 -65 -209t-21 -217t21 -217t65 -209h-110zM244 415q0 24 23 38.5t51 14.5
q14 0 30 -5t28 -14q32 22 83 22q57 0 84 -31q34 31 94 31q62 0 91 -35t29 -108v-196h-150v225q0 52 -11 52q-16 0 -29 -24q5 -27 5 -57v-196h-143v225q0 52 -12 52t-23 -14v-263h-150v283z" />
    <glyph glyph-name="uni24A9" unicode="&#x24a9;" 
d="M730 -100q44 100 65 209t21 217t-21 217t-65 209h110q60 -90 90.5 -200t30.5 -226t-30.5 -226t-90.5 -200h-110zM161 -100q-60 90 -90.5 200t-30.5 226t30.5 226t90.5 200h110q-44 -100 -65 -209t-21 -217t21 -217t65 -209h-110zM552 307q0 56 -10 79t-36 23
q-29 0 -57 -25v-251h-157v283q0 24 23 38.5t55 14.5q19 0 37 -6t29 -17q47 25 108 25q83 0 123.5 -45t40.5 -131v-163h-156v175z" />
    <glyph glyph-name="uni24AA" unicode="&#x24aa;" 
d="M730 -100q44 100 65 209t21 217t-21 217t-65 209h110q60 -90 90.5 -200t30.5 -226t-30.5 -226t-90.5 -200h-110zM161 -100q-60 90 -90.5 200t-30.5 226t30.5 226t90.5 200h110q-44 -100 -65 -209t-21 -217t21 -217t65 -209h-110zM385 151.5q-50 21.5 -77 60t-27 88.5
q0 51 27 90t77 60.5t115 21.5t115 -21.5t77 -60.5t27 -90q0 -50 -27 -88.5t-77 -60t-115 -21.5t-115 21.5zM547.5 221.5q15.5 30.5 15.5 78.5t-15.5 79.5t-47.5 31.5t-47.5 -31.5t-15.5 -79.5t15.5 -78.5t47.5 -30.5t47.5 30.5z" />
    <glyph glyph-name="uni24AB" unicode="&#x24ab;" 
d="M306 468q0 24 24 38.5t54 14.5q35 0 58 -17q41 19 97 19q83 0 139 -43.5t56 -127.5q0 -87 -53.5 -129t-148.5 -42q-36 0 -70 10v-139h-156v416zM161 -100q-60 90 -90.5 200t-30.5 226t30.5 226t90.5 200h110q-44 -100 -65 -209t-21 -217t21 -217t65 -209h-110zM578 347
q0 114 -70 114q-15 0 -28.5 -5t-17.5 -10v-187q6 -7 19 -12t28 -5q69 0 69 105zM730 -100q44 100 65 209t21 217t-21 217t-65 209h110q60 -90 90.5 -200t30.5 -226t-30.5 -226t-90.5 -200h-110z" />
    <glyph glyph-name="uni24AC" unicode="&#x24ac;" 
d="M548 191q-31 -10 -77 -10q-87 0 -141 42.5t-54 128.5q0 85 55.5 128t146.5 43q53 0 91 -19q23 17 58 17q31 0 54 -15t23 -38v-416h-156v139zM161 -100q-60 90 -90.5 200t-30.5 226t30.5 226t90.5 200h110q-44 -100 -65 -209t-21 -217t21 -217t65 -209h-110zM530.5 247
q13.5 5 17.5 11v187q-7 7 -19.5 11.5t-27.5 4.5q-69 0 -69 -105q0 -59 18.5 -86.5t51.5 -27.5q15 0 28.5 5zM730 -100q44 100 65 209t21 217t-21 217t-65 209h110q60 -90 90.5 -200t30.5 -226t-30.5 -226t-90.5 -200h-110z" />
    <glyph glyph-name="uni24AD" unicode="&#x24ad;" 
d="M730 -100q44 100 65 209t21 217t-21 217t-65 209h110q60 -90 90.5 -200t30.5 -226t-30.5 -226t-90.5 -200h-110zM161 -100q-60 90 -90.5 200t-30.5 226t30.5 226t90.5 200h110q-44 -100 -65 -209t-21 -217t21 -217t65 -209h-110zM344 415q0 24 23.5 38.5t55.5 14.5
q18 0 35.5 -6t29.5 -17q48 26 106 26q38 0 62 -11l1 -104q-21 21 -39 30t-41 9q-42 0 -75 -21v-242h-158v283z" />
    <glyph glyph-name="uni24AE" unicode="&#x24ae;" 
d="M730 -100q44 100 65 209t21 217t-21 217t-65 209h110q60 -90 90.5 -200t30.5 -226t-30.5 -226t-90.5 -200h-110zM161 -100q-60 90 -90.5 200t-30.5 226t30.5 226t90.5 200h110q-44 -100 -65 -209t-21 -217t21 -217t65 -209h-110zM367.5 159.5q-57.5 28.5 -62.5 89.5h147
q6 -29 21.5 -45t33.5 -16q40 0 40 31q0 12 -10.5 21t-40.5 20q-84 26 -127 54.5t-43 63.5q0 45 48.5 69.5t127.5 24.5q83 0 135 -31t54 -85l-153 -1q0 60 -36 60q-13 0 -21 -8t-8 -21q0 -16 11 -24.5t39 -18.5q81 -27 126.5 -53.5t45.5 -66.5q0 -47 -51.5 -69.5
t-136.5 -22.5q-82 0 -139.5 28.5z" />
    <glyph glyph-name="uni24AF" unicode="&#x24af;" 
d="M730 -100q44 100 65 209t21 217t-21 217t-65 209h110q60 -90 90.5 -200t30.5 -226t-30.5 -226t-90.5 -200h-110zM161 -100q-60 90 -90.5 200t-30.5 226t30.5 226t90.5 200h110q-44 -100 -65 -209t-21 -217t21 -217t65 -209h-110zM659 77q-110 0 -157 5t-70 26.5t-23 73.5
v162h-75v61h75v62q0 24 24.5 38t54.5 14q32 0 55 -14t23 -38v-62h99l1 -61h-100v-181q0 -17 4 -22.5t20 -6.5t69 -1v-56z" />
    <glyph glyph-name="uni24B0" unicode="&#x24b0;" 
d="M730 -100q44 100 65 209t21 217t-21 217t-65 209h110q60 -90 90.5 -200t30.5 -226t-30.5 -226t-90.5 -200h-110zM161 -100q-60 90 -90.5 200t-30.5 226t30.5 226t90.5 200h110q-44 -100 -65 -209t-21 -217t21 -217t65 -209h-110zM333 175.5q-39 41.5 -39 133.5v107
q0 24 23 38.5t55 14.5q29 0 54 -14.5t25 -38.5v-119q0 -53 7.5 -77.5t29.5 -24.5q32 0 62 23v198q0 24 23.5 38.5t55.5 14.5q29 0 53.5 -14.5t24.5 -38.5l-1 -282h-157l1 17q-36 -17 -92 -17q-86 0 -125 41.5z" />
    <glyph glyph-name="uni24B1" unicode="&#x24b1;" 
d="M730 -100q44 100 65 209t21 217t-21 217t-65 209h110q60 -90 90.5 -200t30.5 -226t-30.5 -226t-90.5 -200h-110zM161 -100q-60 90 -90.5 200t-30.5 226t30.5 226t90.5 200h110q-44 -100 -65 -209t-21 -217t21 -217t65 -209h-110zM301 466h158l84 -215l76 215h81
l-116 -329h-152z" />
    <glyph glyph-name="uni24B2" unicode="&#x24b2;" 
d="M730 -100q44 100 65 209t21 217t-21 217t-65 209h110q60 -90 90.5 -200t30.5 -226t-30.5 -226t-90.5 -200h-110zM161 -100q-60 90 -90.5 200t-30.5 226t30.5 226t90.5 200h110q-44 -100 -65 -209t-21 -217t21 -217t65 -209h-110zM239 466h145l37 -194l37 174q1 9 11 14.5
t23 5.5h14q14 0 23 -5.5t11 -14.5l39 -175l37 195l145 -1l-75 -328h-142l-45 203l-43 -203h-142z" />
    <glyph glyph-name="uni24B3" unicode="&#x24b3;" 
d="M730 -100q44 100 65 209t21 217t-21 217t-65 209h110q60 -90 90.5 -200t30.5 -226t-30.5 -226t-90.5 -200h-110zM161 -100q-60 90 -90.5 200t-30.5 226t30.5 226t90.5 200h110q-44 -100 -65 -209t-21 -217t21 -217t65 -209h-110zM434 286l-139 180h158l63 -90l73 90h87
l-117 -146l146 -183h-158l-69 94l-75 -94h-88z" />
    <glyph glyph-name="uni24B4" unicode="&#x24b4;" 
d="M730 -100q44 100 65 209t21 217t-21 217t-65 209h110q60 -90 90.5 -200t30.5 -226t-30.5 -226t-90.5 -200h-110zM161 -100q-60 90 -90.5 200t-30.5 226t30.5 226t90.5 200h110q-44 -100 -65 -209t-21 -217t21 -217t65 -209h-110zM364 109h92q41 0 59.5 7t25.5 27t8 63
q-32 -21 -81 -21q-82 0 -128 43t-46 133v101q0 23 23 38t55 15q29 0 54 -15t25 -38v-114q0 -101 40 -101q17 0 31 9.5t28 30.5v175q0 23 25 38t54 15q31 0 54.5 -15t23.5 -38v-222q0 -70 -18.5 -110t-72.5 -61t-160 -21h-92v61z" />
    <glyph glyph-name="uni24B5" unicode="&#x24b5;" 
d="M730 -100q44 100 65 209t21 217t-21 217t-65 209h110q60 -90 90.5 -200t30.5 -226t-30.5 -226t-90.5 -200h-110zM161 -100q-60 90 -90.5 200t-30.5 226t30.5 226t90.5 200h110q-44 -100 -65 -209t-21 -217t21 -217t65 -209h-110zM334 168l147 237h-153v61h328v-32
l-147 -236h163v-61h-338v31z" />
    <glyph glyph-name="uni24D0" unicode="&#x24d0;" 
d="M265 -99q-105 60 -165 165t-60 235t60 235t165 165t235 60t235 -60t165 -165t60 -235t-60 -235t-165 -165t-235 -60t-235 60zM330.5 173.5q-54.5 43.5 -54.5 127.5q0 85 55.5 128t146.5 43q51 0 92 -19q24 16 57 16q31 0 54 -14.5t23 -38.5v-283h-156v7q-31 -10 -77 -10
q-86 0 -140.5 43.5zM530.5 196q13.5 5 17.5 11v187q-6 7 -19 12t-28 5q-69 0 -69 -106q0 -59 18.5 -86.5t51.5 -27.5q15 0 28.5 5zM678.5 -20.5q79.5 48.5 125 133t45.5 188.5t-45.5 188.5t-125 133t-178.5 48.5t-178.5 -48.5t-125 -133t-45.5 -188.5t45.5 -188.5t125 -133
t178.5 -48.5t178.5 48.5z" />
    <glyph glyph-name="uni24D1" unicode="&#x24d1;" 
d="M265 -99q-105 60 -165 165t-60 235t60 235t165 165t235 60t235 -60t165 -165t60 -235t-60 -235t-165 -165t-235 -60t-235 60zM578 214q0 59 -18.5 87t-51.5 28q-14 0 -27.5 -5.5t-17.5 -11.5v-186q7 -7 19.5 -12t26.5 -5q69 0 69 105zM678.5 -20.5q79.5 48.5 125 133
t45.5 188.5t-45.5 188.5t-125 133t-178.5 48.5t-178.5 -48.5t-125 -133t-45.5 -188.5t45.5 -188.5t125 -133t178.5 -48.5t178.5 48.5zM463 59v-7h-157v467q0 24 23 38.5t55 14.5q31 0 55 -14t24 -39v-139q33 10 76 10q83 0 139.5 -43t56.5 -128q0 -86 -54 -128.5t-148 -42.5
q-37 0 -70 11z" />
    <glyph glyph-name="uni24D2" unicode="&#x24d2;" 
d="M265 -99q-105 60 -165 165t-60 235t60 235t165 165t235 60t235 -60t165 -165t60 -235t-60 -235t-165 -165t-235 -60t-235 60zM678.5 -20.5q79.5 48.5 125 133t45.5 188.5t-45.5 188.5t-125 133t-178.5 48.5t-178.5 -48.5t-125 -133t-45.5 -188.5t45.5 -188.5t125 -133
t178.5 -48.5t178.5 48.5zM345 178q-57 48 -57 125q0 48 24.5 86.5t73.5 60.5t118 22q52 0 96.5 -15t72 -41.5t31.5 -59.5h-145q-9 30 -22 42.5t-33 12.5q-31 0 -45 -30t-14 -78q0 -51 15 -81.5t48 -30.5q22 0 36.5 13.5t19.5 47.5h147q-6 -59 -61.5 -90.5t-141.5 -31.5
q-106 0 -163 48z" />
    <glyph glyph-name="uni24D3" unicode="&#x24d3;" 
d="M265 -99q-105 60 -165 165t-60 235t60 235t165 165t235 60t235 -60t165 -165t60 -235t-60 -235t-165 -165t-235 -60t-235 60zM519.5 114q13.5 5 17.5 11v186q-6 8 -18.5 13t-27.5 5q-69 0 -69 -106q0 -114 70 -114q14 0 27.5 5zM320 91q-55 43 -55 128t55.5 128t146.5 43
q37 0 70 -11v140q0 25 24 39t55 14q32 0 55 -14.5t23 -38.5v-467h-157v6q-38 -10 -76 -10q-86 0 -141 43zM678.5 -20.5q79.5 48.5 125 133t45.5 188.5t-45.5 188.5t-125 133t-178.5 48.5t-178.5 -48.5t-125 -133t-45.5 -188.5t45.5 -188.5t125 -133t178.5 -48.5t178.5 48.5z
" />
    <glyph glyph-name="uni24D4" unicode="&#x24d4;" 
d="M265 -99q-105 60 -165 165t-60 235t60 235t165 165t235 60t235 -60t165 -165t60 -235t-60 -235t-165 -165t-235 -60t-235 60zM678.5 -20.5q79.5 48.5 125 133t45.5 188.5t-45.5 188.5t-125 133t-178.5 48.5t-178.5 -48.5t-125 -133t-45.5 -188.5t45.5 -188.5t125 -133
t178.5 -48.5t178.5 48.5zM341.5 178q-57.5 48 -57.5 126q0 77 57.5 122.5t161.5 45.5q98 0 155 -52.5t58 -137.5h-77v-1h-197q2 -42 17 -66.5t44 -24.5q22 0 37.5 13.5t23.5 47.5h147q-10 -59 -64 -90t-144 -31q-104 0 -161.5 48zM558 342q-12 70 -55 70q-23 0 -38.5 -18
t-20.5 -52h114z" />
    <glyph glyph-name="uni24D5" unicode="&#x24d5;" 
d="M265 -99q-105 60 -165 165t-60 235t60 235t165 165t235 60t235 -60t165 -165t60 -235t-60 -235t-165 -165t-235 -60t-235 60zM678.5 -20.5q79.5 48.5 125 133t45.5 188.5t-45.5 188.5t-125 133t-178.5 48.5t-178.5 -48.5t-125 -133t-45.5 -188.5t45.5 -188.5t125 -133
t178.5 -48.5t178.5 48.5zM410 320h-74v60h74v78q0 50 35.5 77t107.5 27h91v-61q-33 1 -49.5 -4.5t-22 -18t-5.5 -34.5v-64h86v-60h-86v-268h-157v268z" />
    <glyph glyph-name="uni24D6" unicode="&#x24d6;" 
d="M265 -99q-105 60 -165 165t-60 235t60 235t165 165t235 60t235 -60t165 -165t60 -235t-60 -235t-165 -165t-235 -60t-235 60zM361 120h93q37 0 55.5 6t26.5 23t10 52q-34 -9 -75 -9q-86 0 -141 42t-55 126q0 83 56 125.5t146 42.5q50 0 91 -19q26 16 59 16q31 0 54 -14.5
t23 -38.5v-221q0 -69 -18.5 -109.5t-72.5 -61.5t-159 -21h-93v61zM678.5 -20.5q79.5 48.5 125 133t45.5 188.5t-45.5 188.5t-125 133t-178.5 48.5t-178.5 -48.5t-125 -133t-45.5 -188.5t45.5 -188.5t125 -133t178.5 -48.5t178.5 48.5zM530 258q13 5 17 11v181q-7 7 -19 11.5
t-27 4.5q-69 0 -69 -102q0 -57 19 -84t51 -27q15 0 28 5z" />
    <glyph glyph-name="uni24D7" unicode="&#x24d7;" 
d="M265 -99q-105 60 -165 165t-60 235t60 235t165 165t235 60t235 -60t165 -165t60 -235t-60 -235t-165 -165t-235 -60t-235 60zM678.5 -20.5q79.5 48.5 125 133t45.5 188.5t-45.5 188.5t-125 133t-178.5 48.5t-178.5 -48.5t-125 -133t-45.5 -188.5t45.5 -188.5t125 -133
t178.5 -48.5t178.5 48.5zM302 530q0 23 23.5 37t55.5 14q30 0 54 -13.5t24 -37.5v-149q41 19 96 19q82 0 122.5 -45.5t40.5 -130.5v-162h-156v175q0 56 -10 78.5t-36 22.5q-29 0 -57 -25v-251h-157v468z" />
    <glyph glyph-name="uni24D8" unicode="&#x24d8;" 
d="M265 -99q-105 60 -165 165t-60 235t60 235t165 165t235 60t235 -60t165 -165t60 -235t-60 -235t-165 -165t-235 -60t-235 60zM426 380h156v-328h-156v328zM678.5 -20.5q79.5 48.5 125 133t45.5 188.5t-45.5 188.5t-125 133t-178.5 48.5t-178.5 -48.5t-125 -133
t-45.5 -188.5t45.5 -188.5t125 -133t178.5 -48.5t178.5 48.5zM437 429.5q-26 24.5 -26 58.5t26 58.5t63 24.5t63 -24.5t26 -58.5t-26 -58.5t-63 -24.5t-63 24.5z" />
    <glyph glyph-name="uni24D9" unicode="&#x24d9;" 
d="M265 -99q-105 60 -165 165t-60 235t60 235t165 165t235 60t235 -60t165 -165t60 -235t-60 -235t-165 -165t-235 -60t-235 60zM382 38q29 -1 40.5 8t15 37t3.5 99v257h158v-270q0 -70 -17.5 -111t-64 -61t-135.5 -19v60zM678.5 -20.5q79.5 48.5 125 133t45.5 188.5
t-45.5 188.5t-125 133t-178.5 48.5t-178.5 -48.5t-125 -133t-45.5 -188.5t45.5 -188.5t125 -133t178.5 -48.5t178.5 48.5zM457.5 489.5q-25.5 24.5 -25.5 57.5q0 34 25.5 59t62.5 25t62.5 -25t25.5 -59q0 -33 -25.5 -57.5t-62.5 -24.5t-62.5 24.5z" />
    <glyph glyph-name="uni24DA" unicode="&#x24da;" 
d="M265 -99q-105 60 -165 165t-60 235t60 235t165 165t235 60t235 -60t165 -165t60 -235t-60 -235t-165 -165t-235 -60t-235 60zM678.5 -20.5q79.5 48.5 125 133t45.5 188.5t-45.5 188.5t-125 133t-178.5 48.5t-178.5 -48.5t-125 -133t-45.5 -188.5t45.5 -188.5t125 -133
t178.5 -48.5t178.5 48.5zM325 519q0 23 23.5 37.5t54.5 14.5q30 0 54 -14t24 -38v-266l140 127h89l-112 -102l139 -226h-164l-71 138l-21 -19v-119h-156v467z" />
    <glyph glyph-name="uni24DB" unicode="&#x24db;" 
d="M265 -99q-105 60 -165 165t-60 235t60 235t165 165t235 60t235 -60t165 -165t60 -235t-60 -235t-165 -165t-235 -60t-235 60zM678.5 -20.5q79.5 48.5 125 133t45.5 188.5t-45.5 188.5t-125 133t-178.5 48.5t-178.5 -48.5t-125 -133t-45.5 -188.5t45.5 -188.5t125 -133
t178.5 -48.5t178.5 48.5zM612 41q-85 0 -123.5 4.5t-59.5 26.5t-21 73v364q0 24 24.5 38t54.5 14q31 0 54.5 -14.5t23.5 -37.5v-382q0 -17 2 -22t9.5 -6t35.5 -1v-57z" />
    <glyph glyph-name="uni24DC" unicode="&#x24dc;" 
d="M265 -99q-105 60 -165 165t-60 235t60 235t165 165t235 60t235 -60t165 -165t60 -235t-60 -235t-165 -165t-235 -60t-235 60zM678.5 -20.5q79.5 48.5 125 133t45.5 188.5t-45.5 188.5t-125 133t-178.5 48.5t-178.5 -48.5t-125 -133t-45.5 -188.5t45.5 -188.5t125 -133
t178.5 -48.5t178.5 48.5zM244 415q0 24 23 38.5t51 14.5q15 0 31 -5t27 -14q32 21 82 21q58 0 85 -30q33 30 93 30q63 0 92.5 -35t28.5 -108v-195h-150v224q0 53 -12 53q-15 0 -28 -24q5 -21 5 -58v-195h-144v224q1 53 -12 53q-11 0 -22 -15v-262h-150v283z" />
    <glyph glyph-name="uni24DD" unicode="&#x24dd;" 
d="M265 -99q-105 60 -165 165t-60 235t60 235t165 165t235 60t235 -60t165 -165t60 -235t-60 -235t-165 -165t-235 -60t-235 60zM678.5 -20.5q79.5 48.5 125 133t45.5 188.5t-45.5 188.5t-125 133t-178.5 48.5t-178.5 -48.5t-125 -133t-45.5 -188.5t45.5 -188.5t125 -133
t178.5 -48.5t178.5 48.5zM552 307q0 56 -10 79t-36 23q-29 0 -57 -25v-251h-157v283q0 24 23 38.5t55 14.5q19 0 37 -6t29 -17q47 25 108 25q83 0 123.5 -45t40.5 -131v-163h-156v175z" />
    <glyph glyph-name="uni24DE" unicode="&#x24de;" 
d="M265 -99q-105 60 -165 165t-60 235t60 235t165 165t235 60t235 -60t165 -165t60 -235t-60 -235t-165 -165t-235 -60t-235 60zM678.5 -20.5q79.5 48.5 125 133t45.5 188.5t-45.5 188.5t-125 133t-178.5 48.5t-178.5 -48.5t-125 -133t-45.5 -188.5t45.5 -188.5t125 -133
t178.5 -48.5t178.5 48.5zM385.5 151.5q-49.5 21.5 -77 60t-27.5 88.5q0 51 27 90t77 60.5t115 21.5t115 -21.5t77 -60.5t27 -90q0 -50 -27.5 -88.5t-77 -60t-114.5 -21.5t-114.5 21.5zM547.5 221.5q15.5 30.5 15.5 78.5t-15.5 79.5t-47.5 31.5t-47.5 -31.5t-15.5 -79.5
t15.5 -78.5t47.5 -30.5t47.5 30.5z" />
    <glyph glyph-name="uni24DF" unicode="&#x24df;" 
d="M265 -99q-105 60 -165 165t-60 235t60 235t165 165t235 60t235 -60t165 -165t60 -235t-60 -235t-165 -165t-235 -60t-235 60zM678.5 -20.5q79.5 48.5 125 133t45.5 188.5t-45.5 188.5t-125 133t-178.5 48.5t-178.5 -48.5t-125 -133t-45.5 -188.5t45.5 -188.5t125 -133
t178.5 -48.5t178.5 48.5zM306 468q0 24 24.5 38t54.5 14q35 0 58 -17q41 19 96 19q83 0 139.5 -43t56.5 -128q0 -86 -54 -128.5t-148 -42.5q-37 0 -70 11v-139h-157v416zM578 346q0 115 -70 115q-14 0 -27.5 -5t-17.5 -11v-186q7 -7 19.5 -12.5t26.5 -5.5q69 0 69 105z" />
    <glyph glyph-name="uni24E0" unicode="&#x24e0;" 
d="M265 -99q-105 60 -165 165t-60 235t60 235t165 165t235 60t235 -60t165 -165t60 -235t-60 -235t-165 -165t-235 -60t-235 60zM547 190q-33 -10 -76 -10q-86 0 -141 43t-55 128t55.5 128t146.5 43q52 0 91 -18q26 16 59 16q31 0 54 -14.5t23 -37.5v-416h-157v138z
M678.5 -20.5q79.5 48.5 125 133t45.5 188.5t-45.5 188.5t-125 133t-178.5 48.5t-178.5 -48.5t-125 -133t-45.5 -188.5t45.5 -188.5t125 -133t178.5 -48.5t178.5 48.5zM530 246.5q13 5.5 17 11.5v186q-7 7 -19 12t-27 5q-69 0 -69 -105q0 -59 18.5 -87t51.5 -28q15 0 28 5.5z
" />
    <glyph glyph-name="uni24E1" unicode="&#x24e1;" 
d="M265 -99q-105 60 -165 165t-60 235t60 235t165 165t235 60t235 -60t165 -165t60 -235t-60 -235t-165 -165t-235 -60t-235 60zM678.5 -20.5q79.5 48.5 125 133t45.5 188.5t-45.5 188.5t-125 133t-178.5 48.5t-178.5 -48.5t-125 -133t-45.5 -188.5t45.5 -188.5t125 -133
t178.5 -48.5t178.5 48.5zM344 415q0 24 23.5 38t55.5 14q18 0 35.5 -5.5t29.5 -15.5q47 24 106 24q38 0 62 -11l1 -104q-21 21 -38.5 30t-41.5 9q-44 0 -75 -20v-242h-158v283z" />
    <glyph glyph-name="uni24E2" unicode="&#x24e2;" 
d="M265 -99q-105 60 -165 165t-60 235t60 235t165 165t235 60t235 -60t165 -165t60 -235t-60 -235t-165 -165t-235 -60t-235 60zM678.5 -20.5q79.5 48.5 125 133t45.5 188.5t-45.5 188.5t-125 133t-178.5 48.5t-178.5 -48.5t-125 -133t-45.5 -188.5t45.5 -188.5t125 -133
t178.5 -48.5t178.5 48.5zM367.5 159.5q-57.5 28.5 -62.5 90.5h146q7 -31 22 -47t34 -16t29.5 8.5t10.5 22.5q0 13 -10.5 22.5t-40.5 19.5q-83 25 -126.5 53.5t-43.5 64.5q0 45 48 69t128 24q83 0 135 -30.5t54 -85.5h-153q0 60 -36 60q-13 0 -21 -7.5t-8 -21.5
q0 -16 11 -24.5t39 -18.5q81 -27 126.5 -53.5t45.5 -67.5q0 -47 -51.5 -69t-136.5 -22q-82 0 -139.5 28.5z" />
    <glyph glyph-name="uni24E3" unicode="&#x24e3;" 
d="M265 -99q-105 60 -165 165t-60 235t60 235t165 165t235 60t235 -60t165 -165t60 -235t-60 -235t-165 -165t-235 -60t-235 60zM678.5 -20.5q79.5 48.5 125 133t45.5 188.5t-45.5 188.5t-125 133t-178.5 48.5t-178.5 -48.5t-125 -133t-45.5 -188.5t45.5 -188.5t125 -133
t178.5 -48.5t178.5 48.5zM659 76q-110 0 -157 5t-70 27t-23 74v162h-75v61h75v62q0 24 24.5 38t54.5 14q32 0 55 -14t23 -38v-62h99l1 -61h-100v-181q0 -17 4 -22.5t20 -6.5t69 -1v-57z" />
    <glyph glyph-name="uni24E4" unicode="&#x24e4;" 
d="M265 -99q-105 60 -165 165t-60 235t60 235t165 165t235 60t235 -60t165 -165t60 -235t-60 -235t-165 -165t-235 -60t-235 60zM678.5 -20.5q79.5 48.5 125 133t45.5 188.5t-45.5 188.5t-125 133t-178.5 48.5t-178.5 -48.5t-125 -133t-45.5 -188.5t45.5 -188.5t125 -133
t178.5 -48.5t178.5 48.5zM332 176q-39 42 -39 133v107q0 24 23.5 38t55.5 14q30 0 54 -14t24 -38v-120q0 -53 7.5 -77.5t29.5 -24.5q32 0 63 24v198q0 24 23 38t55 14q30 0 54.5 -14t24.5 -38v-282h-157v16q-37 -16 -93 -16q-86 0 -125 42z" />
    <glyph glyph-name="uni24E5" unicode="&#x24e5;" 
d="M265 -99q-105 60 -165 165t-60 235t60 235t165 165t235 60t235 -60t165 -165t60 -235t-60 -235t-165 -165t-235 -60t-235 60zM678.5 -20.5q79.5 48.5 125 133t45.5 188.5t-45.5 188.5t-125 133t-178.5 48.5t-178.5 -48.5t-125 -133t-45.5 -188.5t45.5 -188.5t125 -133
t178.5 -48.5t178.5 48.5zM301 465h158l85 -214l75 214h81l-115 -328h-153z" />
    <glyph glyph-name="uni24E6" unicode="&#x24e6;" 
d="M265 -99q-105 60 -165 165t-60 235t60 235t165 165t235 60t235 -60t165 -165t60 -235t-60 -235t-165 -165t-235 -60t-235 60zM678.5 -20.5q79.5 48.5 125 133t45.5 188.5t-45.5 188.5t-125 133t-178.5 48.5t-178.5 -48.5t-125 -133t-45.5 -188.5t45.5 -188.5t125 -133
t178.5 -48.5t178.5 48.5zM239 465h145l37 -195l37 176q1 8 11 13.5t23 5.5h14q14 0 23 -5.5t11 -13.5l38 -177l38 196h145l-75 -328h-142l-45 204l-43 -204h-142z" />
    <glyph glyph-name="uni24E7" unicode="&#x24e7;" 
d="M265 -99q-105 60 -165 165t-60 235t60 235t165 165t235 60t235 -60t165 -165t60 -235t-60 -235t-165 -165t-235 -60t-235 60zM678.5 -20.5q79.5 48.5 125 133t45.5 188.5t-45.5 188.5t-125 133t-178.5 48.5t-178.5 -48.5t-125 -133t-45.5 -188.5t45.5 -188.5t125 -133
t178.5 -48.5t178.5 48.5zM434 285l-139 180h158l64 -89l72 89h87l-117 -145l146 -183h-158l-69 94l-75 -94h-88z" />
    <glyph glyph-name="uni24E8" unicode="&#x24e8;" 
d="M265 -99q-105 60 -165 165t-60 235t60 235t165 165t235 60t235 -60t165 -165t60 -235t-60 -235t-165 -165t-235 -60t-235 60zM364 108h92q40 0 59 7.5t26 27t8 62.5q-33 -20 -81 -20q-83 0 -128.5 42.5t-45.5 133.5v101q0 23 23 37.5t55 14.5q29 0 54 -14.5t25 -37.5
v-115q0 -101 40 -101q17 0 30.5 10t28.5 31v175q0 23 24.5 37.5t54.5 14.5q31 0 54.5 -14.5t23.5 -37.5v-223q0 -69 -18.5 -109t-72.5 -61t-160 -21h-92v60zM678.5 -20.5q79.5 48.5 125 133t45.5 188.5t-45.5 188.5t-125 133t-178.5 48.5t-178.5 -48.5t-125 -133
t-45.5 -188.5t45.5 -188.5t125 -133t178.5 -48.5t178.5 48.5z" />
    <glyph glyph-name="uni24E9" unicode="&#x24e9;" 
d="M265 -99q-105 60 -165 165t-60 235t60 235t165 165t235 60t235 -60t165 -165t60 -235t-60 -235t-165 -165t-235 -60t-235 60zM678.5 -20.5q79.5 48.5 125 133t45.5 188.5t-45.5 188.5t-125 133t-178.5 48.5t-178.5 -48.5t-125 -133t-45.5 -188.5t45.5 -188.5t125 -133
t178.5 -48.5t178.5 48.5zM334 168l147 237h-153v60h328v-31l-147 -237h163v-60h-338v31z" />
    <glyph glyph-name="uni2500" unicode="&#x2500;" 
d="M0 320h1000v-40h-1000v40z" />
    <glyph glyph-name="uni2501" unicode="&#x2501;" 
d="M0 340h1000v-80h-1000v80z" />
    <glyph glyph-name="uni2502" unicode="&#x2502;" 
d="M480 800h40v-1000h-40v1000z" />
    <glyph glyph-name="uni2503" unicode="&#x2503;" 
d="M458 800h84v-1000h-84v1000z" />
    <glyph glyph-name="uni250C" unicode="&#x250c;" 
d="M480 320h520v-40h-480v-480h-40v520z" />
    <glyph glyph-name="uni250D" unicode="&#x250d;" 
d="M480 340h520v-80h-480v-460h-40v540z" />
    <glyph glyph-name="uni250E" unicode="&#x250e;" 
d="M458 320h542v-40h-458v-480h-84v520z" />
    <glyph glyph-name="uni250F" unicode="&#x250f;" 
d="M458 340h542v-80h-458v-460h-84v540z" />
    <glyph glyph-name="uni2510" unicode="&#x2510;" 
d="M480 280h-480v40h520v-520h-40v480z" />
    <glyph glyph-name="uni2511" unicode="&#x2511;" 
d="M480 260h-480v80h520v-540h-40v460z" />
    <glyph glyph-name="uni2512" unicode="&#x2512;" 
d="M458 280h-458v40h542v-520h-84v480z" />
    <glyph glyph-name="uni2513" unicode="&#x2513;" 
d="M458 260h-458v80h542v-540h-84v460z" />
    <glyph glyph-name="uni2514" unicode="&#x2514;" 
d="M480 800h40v-480h480v-40h-520v520z" />
    <glyph glyph-name="uni2515" unicode="&#x2515;" 
d="M480 800h40v-460h480v-80h-520v540z" />
    <glyph glyph-name="uni2516" unicode="&#x2516;" 
d="M457 799l85 1v-480h458v-40l-543 -1v520z" />
    <glyph glyph-name="uni2517" unicode="&#x2517;" 
d="M458 800h84v-460h458v-80h-542v540z" />
    <glyph glyph-name="uni2518" unicode="&#x2518;" 
d="M0 320h480v480h40v-520h-520v40z" />
    <glyph glyph-name="uni2519" unicode="&#x2519;" 
d="M0 340h480v460h40v-540h-520v80z" />
    <glyph glyph-name="uni251A" unicode="&#x251a;" 
d="M0 320h458v480h84v-520h-542v40z" />
    <glyph glyph-name="uni251B" unicode="&#x251b;" 
d="M0 340h458v460h84v-540h-542v80z" />
    <glyph glyph-name="uni251C" unicode="&#x251c;" 
d="M480 800h40v-480h480v-40h-480v-480h-40v1000z" />
    <glyph glyph-name="uni251D" unicode="&#x251d;" 
d="M480 800h40v-460h480v-80h-480v-460h-40v1000z" />
    <glyph glyph-name="uni251E" unicode="&#x251e;" 
d="M454 307h-27v593h145v-508h428v-85h-452v-507h-94v507z" />
    <glyph glyph-name="uni251F" unicode="&#x251f;" 
d="M458 320h22v480h40v-480h480v-40h-458v-480h-84v520z" />
    <glyph glyph-name="uni2520" unicode="&#x2520;" 
d="M458 800h84v-480h458v-40h-458v-480h-84v1000z" />
    <glyph glyph-name="uni2521" unicode="&#x2521;" 
d="M480 260h-22v540h84v-460h458v-80h-480v-460h-40v460z" />
    <glyph glyph-name="uni2522" unicode="&#x2522;" 
d="M458 340h22v460h40v-460h480v-80h-458v-460h-84v540z" />
    <glyph glyph-name="uni2523" unicode="&#x2523;" 
d="M458 800h84v-460h458v-80h-458v-460h-84v1000z" />
    <glyph glyph-name="uni2524" unicode="&#x2524;" 
d="M480 280h-480v40h480v480h40v-1000h-40v480z" />
    <glyph glyph-name="uni2525" unicode="&#x2525;" 
d="M480 260h-480v80h480v460h40v-1000h-40v460z" />
    <glyph glyph-name="uni2526" unicode="&#x2526;" 
d="M480 280h-480v40h458v480h84v-520h-22v-480h-40v480z" />
    <glyph glyph-name="uni2527" unicode="&#x2527;" 
d="M458 280h-458v40h480v480h40v-480h22v-520h-84v480z" />
    <glyph glyph-name="uni2528" unicode="&#x2528;" 
d="M458 280h-458v40h458v480h84v-1000h-84v480z" />
    <glyph glyph-name="uni2529" unicode="&#x2529;" 
d="M480 260h-480v80h458v460h84v-540h-22v-460h-40v460z" />
    <glyph glyph-name="uni252A" unicode="&#x252a;" 
d="M458 260h-458v80h480v460h40v-460h22v-540h-84v460z" />
    <glyph glyph-name="uni252B" unicode="&#x252b;" 
d="M458 260h-458v80h458v460h84v-1000h-84v460z" />
    <glyph glyph-name="uni252C" unicode="&#x252c;" 
d="M480 280h-480v40h1000v-40h-480v-480h-40v480z" />
    <glyph glyph-name="uni252D" unicode="&#x252d;" 
d="M480 260h-480v80h520v-20h480v-40h-480v-480h-40v460z" />
    <glyph glyph-name="uni252E" unicode="&#x252e;" 
d="M480 280h-480v40h480v20h520v-80h-480v-460h-40v480z" />
    <glyph glyph-name="uni252F" unicode="&#x252f;" 
d="M480 260h-480v80h1000v-80h-480v-460h-40v460z" />
    <glyph glyph-name="uni2530" unicode="&#x2530;" 
d="M458 280h-458v40h1000v-40h-458v-480h-84v480z" />
    <glyph glyph-name="uni2531" unicode="&#x2531;" 
d="M458 260h-458v80h542v-20h458v-40h-458v-480h-84v460z" />
    <glyph glyph-name="uni2532" unicode="&#x2532;" 
d="M458 280h-458v40h458v20h542v-80h-458v-460h-84v480z" />
    <glyph glyph-name="uni2533" unicode="&#x2533;" 
d="M458 260h-458v80h1000v-80h-458v-460h-84v460z" />
    <glyph glyph-name="uni2534" unicode="&#x2534;" 
d="M0 320h480v480h40v-480h480v-40h-1000v40z" />
    <glyph glyph-name="uni2535" unicode="&#x2535;" 
d="M0 340h480v460h40v-480h480v-40h-480v-20h-520v80z" />
    <glyph glyph-name="uni2536" unicode="&#x2536;" 
d="M480 280h-480v40h480v480h40v-460h480v-80h-520v20z" />
    <glyph glyph-name="uni2537" unicode="&#x2537;" 
d="M0 340h480v460h40v-460h480v-80h-1000v80z" />
    <glyph glyph-name="uni2538" unicode="&#x2538;" 
d="M0 320h458v480h84v-480h458v-40h-1000v40z" />
    <glyph glyph-name="uni2539" unicode="&#x2539;" 
d="M0 340h458v460h84v-480h458v-40h-458v-20h-542v80z" />
    <glyph glyph-name="uni253A" unicode="&#x253a;" 
d="M458 280h-458v40h458v480h84v-460h458v-80h-542v20z" />
    <glyph glyph-name="uni253B" unicode="&#x253b;" 
d="M0 340h458v460h84v-460h458v-80h-1000v80z" />
    <glyph glyph-name="uni253C" unicode="&#x253c;" 
d="M480 280h-480v40h480v480h40v-480h480v-40h-480v-480h-40v480z" />
    <glyph glyph-name="uni253D" unicode="&#x253d;" 
d="M480 260h-480v80h480v460h40v-480h480v-40h-480v-480h-40v460z" />
    <glyph glyph-name="uni253E" unicode="&#x253e;" 
d="M480 280h-480v40h480v480h40v-460h480v-80h-480v-460h-40v480z" />
    <glyph glyph-name="uni253F" unicode="&#x253f;" 
d="M480 260h-480v80h480v460h40v-460h480v-80h-480v-460h-40v460z" />
    <glyph glyph-name="uni2540" unicode="&#x2540;" 
d="M480 280h-480v40h458v480h84v-480h458v-40h-480v-480h-40v480z" />
    <glyph glyph-name="uni2541" unicode="&#x2541;" 
d="M458 280h-458v40h480v480h40v-480h480v-40h-458v-480h-84v480z" />
    <glyph glyph-name="uni2542" unicode="&#x2542;" 
d="M458 280h-458v40h458v480h84v-480h458v-40h-458v-480h-84v480z" />
    <glyph glyph-name="uni2543" unicode="&#x2543;" 
d="M480 260h-480v80h458v460h84v-480h458v-40h-458v-20h-22v-460h-40v460z" />
    <glyph glyph-name="uni2544" unicode="&#x2544;" 
d="M480 260h-22v20h-458v40h458v480h84v-460h458v-80h-480v-460h-40v460z" />
    <glyph glyph-name="uni2545" unicode="&#x2545;" 
d="M458 260h-458v80h480v460h40v-460h22v-20h458v-40h-458v-480h-84v460z" />
    <glyph glyph-name="uni2546" unicode="&#x2546;" 
d="M458 280h-458v40h458v20h22v460h40v-460h480v-80h-458v-460h-84v480z" />
    <glyph glyph-name="uni2547" unicode="&#x2547;" 
d="M480 260h-480v80h458v460h84v-460h458v-80h-480v-460h-40v460z" />
    <glyph glyph-name="uni2548" unicode="&#x2548;" 
d="M458 260h-458v80h480v460h40v-460h480v-80h-458v-460h-84v460z" />
    <glyph glyph-name="uni2549" unicode="&#x2549;" 
d="M458 260h-458v80h458v460h84v-480h458v-40h-458v-480h-84v460z" />
    <glyph glyph-name="uni254A" unicode="&#x254a;" 
d="M458 280h-458v40h458v480h84v-460h458v-80h-458v-460h-84v480z" />
    <glyph glyph-name="uni254B" unicode="&#x254b;" 
d="M458 260h-458v80h458v460h84v-460h458v-80h-458v-460h-84v460z" />
    <glyph glyph-name="shade" unicode="&#x2592;" 
d="M120 615v46l25 25h16l695 -695v-46l-25 -25h-16zM120 195l275 -275h-112l-163 163v112zM120 372l452 -452h-112l-340 340v112zM120 549l629 -629h-112l-517 517v112zM339 686l517 -517v-112l-629 629h112zM516 686l340 -340v-112l-452 452h112zM693 686l163 -163v-112
l-275 275h112z" />
    <glyph glyph-name="filledbox" unicode="&#x25a0;" 
d="M83 717h834v-834h-834v834z" />
    <glyph glyph-name="uni25A1" unicode="&#x25a1;" 
d="M83 717h834v-834h-834v834zM796 -16v632h-592v-632h592z" />
    <glyph glyph-name="uni25A3" unicode="&#x25a3;" 
d="M83 717h834v-834h-834v834zM817 -39v678h-634v-678h634zM292 532h416v-464h-416v464z" />
    <glyph glyph-name="uni25A4" unicode="&#x25a4;" 
d="M83 717h834v-834h-834v834zM837 -49v42h-674v-42h674zM837 61v42h-674v-42h674zM837 171v42h-674v-42h674zM837 281v41h-674v-41h674zM837 390v41h-674v-41h674zM837 499v41h-674v-41h674zM837 608v41h-674v-41h674z" />
    <glyph glyph-name="uni25A5" unicode="&#x25a5;" 
d="M83 717h834v-834h-834v834zM190 -49v698h-27v-698h27zM297 -49v698h-27v-698h27zM405 -49v698h-28v-698h28zM513 -49v698h-28v-698h28zM621 -49v698h-28v-698h28zM729 -49v698h-28v-698h28zM837 -49v698h-28v-698h28z" />
    <glyph glyph-name="uni25A6" unicode="&#x25a6;" 
d="M83 717h834v-834h-834v834zM190 -49v42h-27v-42h27zM190 61v42h-27v-42h27zM190 171v42h-27v-42h27zM190 281v41h-27v-41h27zM190 390v41h-27v-41h27zM190 499v41h-27v-41h27zM190 608v41h-27v-41h27zM297 -49v42h-27v-42h27zM297 61v42h-27v-42h27zM297 171v42h-27v-42
h27zM297 281v41h-27v-41h27zM297 390v41h-27v-41h27zM297 499v41h-27v-41h27zM297 608v41h-27v-41h27zM405 -49v42h-28v-42h28zM405 61v42h-28v-42h28zM405 171v42h-28v-42h28zM405 281v41h-28v-41h28zM405 390v41h-28v-41h28zM405 499v41h-28v-41h28zM405 608v41h-28v-41
h28zM513 -49v42h-28v-42h28zM513 61v42h-28v-42h28zM513 171v42h-28v-42h28zM513 281v41h-28v-41h28zM513 390v41h-28v-41h28zM513 499v41h-28v-41h28zM513 608v41h-28v-41h28zM621 -49v42h-28v-42h28zM621 61v42h-28v-42h28zM621 171v42h-28v-42h28zM621 281v41h-28v-41h28
zM621 390v41h-28v-41h28zM621 499v41h-28v-41h28zM621 608v41h-28v-41h28zM729 -49v42h-28v-42h28zM729 61v42h-28v-42h28zM729 171v42h-28v-42h28zM729 281v41h-28v-41h28zM729 390v41h-28v-41h28zM729 499v41h-28v-41h28zM729 608v41h-28v-41h28zM837 -49v42h-28v-42h28z
M837 61v42h-28v-42h28zM837 171v42h-28v-42h28zM837 281v41h-28v-41h28zM837 390v41h-28v-41h28zM837 499v41h-28v-41h28zM837 608v41h-28v-41h28z" />
    <glyph glyph-name="uni25A7" unicode="&#x25a7;" 
d="M83 717h834v-834h-834v834zM276 -49l-113 113v-113h113zM388 -49h65l-290 290v-65zM565 -49h65l-467 467v-65zM742 -49h66l-645 645v-66zM837 34v66l-549 549h-66zM837 212v65l-372 372h-65zM837 389v65l-195 195h-65zM837 566v83h-83z" />
    <glyph glyph-name="uni25A8" unicode="&#x25a8;" 
d="M83 717h834v-834h-834v834zM778 649h-66l-549 -549v-66zM600 649h-65l-372 -372v-65zM423 649h-65l-195 -195v-65zM246 649h-83v-83zM258 -49l579 579v66l-645 -645h66zM435 -49l402 402v65l-467 -467h65zM612 -49l225 225v65l-290 -290h65zM837 -49v113l-113 -113h113z
" />
    <glyph glyph-name="uni25A9" unicode="&#x25a9;" 
d="M83 717h834v-834h-834v834zM178 49l-15 15v-30zM178 227l-15 14v-29zM178 404l-15 14v-29zM178 581l-15 15v-30zM258 -49l9 9l-33 33l-42 -42h66zM234 105l33 33l-33 33l-33 -33zM234 283l32 32l-32 33l-33 -33zM234 460l33 33l-33 32l-33 -33zM234 637l12 12h-24z
M323 16l33 33l-33 33l-33 -33zM323 194l32 32l-33 33l-32 -32zM322 371l33 33l-32 33l-33 -33zM323 549l33 33l-33 32l-33 -33zM411 282l33 33l-33 33l-33 -33zM388 -49h47l9 9l-32 32l-33 -32zM412 105l32 32l-33 33l-32 -32zM411 460l33 33l-32 33l-33 -33zM412 638l11 11
h-23zM500 193l33 33l-33 33l-33 -33zM500 371l33 33l-33 33l-33 -33zM500 16l33 33l-33 32l-32 -32zM500 549l33 33l-33 32l-32 -32zM565 -49h47l9 9l-32 32l-33 -32zM589 105l33 33l-33 32l-33 -33zM589 282l33 33l-33 33l-33 -33zM589 460l33 33l-33 33l-33 -33zM589 638
l11 11h-23zM677 16l33 33l-32 33l-33 -33zM678 194l33 33l-33 32l-33 -33zM678 371l33 33l-33 33l-33 -33zM678 549l32 32l-33 33l-32 -32zM742 -49h66l-42 42l-33 -33zM766 105l33 33l-32 33l-33 -33zM767 283l32 32l-32 33l-33 -33zM767 460l32 32l-33 33l-32 -32z
M766 637l12 12h-24zM837 34v30l-15 -15zM837 566v30l-15 -15zM837 212v29l-14 -14zM837 389v29l-14 -14z" />
    <glyph glyph-name="triagup" unicode="&#x25b2;" 
d="M500 717l417 -834h-834z" />
    <glyph glyph-name="uni25B3" unicode="&#x25b3;" 
d="M500 717l417 -834h-834zM756 -29l-256 522l-256 -522h512z" />
    <glyph glyph-name="uni25B6" unicode="&#x25b6;" 
d="M83 717l834 -417l-834 -417v834z" />
    <glyph glyph-name="uni25B7" unicode="&#x25b7;" 
d="M83 717l834 -417l-834 -417v834zM708 300l-522 256v-512z" />
    <glyph glyph-name="triagdn" unicode="&#x25bc;" 
d="M83 717h834l-417 -834z" />
    <glyph glyph-name="uni25BD" unicode="&#x25bd;" 
d="M83 717h834l-417 -834zM500 107l256 522h-512z" />
    <glyph glyph-name="uni25C0" unicode="&#x25c0;" 
d="M83 300l834 417v-834z" />
    <glyph glyph-name="uni25C1" unicode="&#x25c1;" 
d="M83 300l834 417v-834zM814 44v512l-522 -256z" />
    <glyph glyph-name="uni25C6" unicode="&#x25c6;" 
d="M30 315l470 470l470 -470l-470 -470z" />
    <glyph glyph-name="uni25C7" unicode="&#x25c7;" 
d="M30 315l470 470l470 -470l-470 -470zM500 1l314 314l-314 314l-314 -314z" />
    <glyph glyph-name="uni25C8" unicode="&#x25c8;" 
d="M30 315l470 470l470 -470l-470 -470zM500 -9l324 324l-324 324l-324 -324zM500 519l204 -204l-204 -204l-204 204z" />
    <glyph glyph-name="circle" unicode="&#x25cb;" 
d="M265 -99q-105 60 -165 165t-60 235t60 235t165 165t235 60t235 -60t165 -165t60 -235t-60 -235t-165 -165t-235 -60t-235 60zM673 -11q77 47 121.5 129t44.5 183t-44.5 183t-121.5 129t-173 47t-173 -47t-121.5 -129t-44.5 -183t44.5 -183t121.5 -129t173 -47t173 47z
" />
    <glyph glyph-name="uni25CE" unicode="&#x25ce;" 
d="M265 -99q-105 60 -165 165t-60 235t60 235t165 165t235 60t235 -60t165 -165t60 -235t-60 -235t-165 -165t-235 -60t-235 60zM673 -11q77 47 121.5 129t44.5 183t-44.5 183t-121.5 129t-173 47t-173 -47t-121.5 -129t-44.5 -183t44.5 -183t121.5 -129t173 -47t173 47z
M375 88.5q-56 31.5 -87.5 87.5t-31.5 125t31.5 125t87.5 87.5t125 31.5t125 -31.5t87.5 -87.5t31.5 -125t-31.5 -125t-87.5 -87.5t-125 -31.5t-125 31.5zM588 208.5q35 37.5 35 92.5t-35 92.5t-88 37.5t-88 -37.5t-35 -92.5t35 -92.5t88 -37.5t88 37.5z" />
    <glyph glyph-name="uni25CF" unicode="&#x25cf;" 
d="M265 -99q-105 60 -165 165t-60 235t60 235t165 165t235 60t235 -60t165 -165t60 -235t-60 -235t-165 -165t-235 -60t-235 60z" />
    <glyph glyph-name="uni25D0" unicode="&#x25d0;" 
d="M265 -99q-105 60 -165 165t-60 235t60 235t165 165t235 60t235 -60t165 -165t60 -235t-60 -235t-165 -165t-235 -60t-235 60zM500 -58q96 0 173 47t121.5 129t44.5 183t-44.5 183t-121.5 129t-173 47v-718z" />
    <glyph glyph-name="uni25D1" unicode="&#x25d1;" 
d="M265 -99q-105 60 -165 165t-60 235t60 235t165 165t235 60t235 -60t165 -165t60 -235t-60 -235t-165 -165t-235 -60t-235 60zM500 660q-96 0 -173 -47t-121.5 -129t-44.5 -183t44.5 -183t121.5 -129t173 -47v718z" />
    <glyph glyph-name="uni2605" unicode="&#x2605;" 
d="M329 200l-273 198v2h337l106 323h2l106 -323h337v-2l-273 -198l106 -324h-1l-276 199l-276 -199h-1z" />
    <glyph glyph-name="uni2606" unicode="&#x2606;" 
d="M329 200l-273 198v2h337l106 323h2l106 -323h337v-2l-273 -198l106 -324h-1l-276 199l-276 -199h-1zM372 215l-82 -247h2l208 152l209 -152h1l-82 247l206 147v2h-254l-79 243h-2l-79 -243h-254v-2z" />
    <glyph glyph-name="uni260E" unicode="&#x260e;" 
d="M151 -54q-43 0 -43 48q0 18 11 34q12 22 13 28q4 20 7 30q4 18 5 27q11 46 24 64q18 27 61 75q40 40 63 81q27 50 27 122v43q0 11 -6 11q-18 0 -35 -14.5t-17 -31.5q0 -9 8 -31t8 -32q0 -37 -78 -66q-60 -22 -110 -22q-49 0 -49 66q0 140 174 203q117 40 285 40
q162 0 281 -40q178 -63 178 -194q0 -68 -52 -68q-49 0 -106 20q-77 26 -77 59q0 14 9 39q11 24 11 34q0 12 -16.5 21.5t-35.5 9.5q-14 0 -14 -16l2 -30q0 -78 30 -125q35 -47 66 -84q44 -45 61 -94q9 -17 12 -49l10 -49q2 -6 5 -10l8 -15q9 -16 9 -27q0 -25 -21.5 -41
t-52.5 -16h-655zM617 60q50 53 50 128t-48 129q-49 52 -122 52q-75 0 -126 -51q-49 -54 -49 -130t47 -129q50 -50 125 -50q72 0 123 51zM556 434q39 0 39 25v47q-39 -9 -96 -9t-97 11v-50q0 -24 37 -24h117z" />
    <glyph glyph-name="uni260F" unicode="&#x260f;" 
d="M151 -54q-43 0 -43 48q0 18 11 34q12 22 13 28q4 20 7 30q4 18 5 27q11 46 24 64q18 27 61 75q40 40 63 81q27 50 27 122v43q0 11 -6 11q-18 0 -35 -14.5t-17 -31.5q0 -9 8 -31t8 -32q0 -37 -78 -66q-60 -22 -110 -22q-49 0 -49 66q0 140 174 203q117 40 285 40
q162 0 281 -40q178 -63 178 -194q0 -68 -52 -68q-49 0 -106 20q-77 26 -77 59q0 14 9 39q11 24 11 34q0 12 -16.5 21.5t-35.5 9.5q-14 0 -14 -16l2 -30q0 -78 30 -125q35 -47 66 -84q44 -45 61 -94q9 -17 12 -49l10 -49q2 -6 5 -10l8 -15q9 -16 9 -27q0 -25 -21.5 -41
t-52.5 -16h-655zM355 46q-57 57 -57 141q0 90 55 145q57 57 143 57q87 0 142 -57q56 -56 56 -145q0 -85 -57 -142q-56 -56 -141 -56q-84 0 -141 57zM617 60q50 53 50 128t-48 129q-49 52 -122 52q-75 0 -126 -51q-49 -54 -49 -130t47 -129q50 -50 125 -50q72 0 123 51z
M798 -31q54 0 54 34q0 10 -9 32l-14 32q-6 39 -20 88q-19 46 -65 93q-52 55 -64 83q-30 56 -30 142q0 54 29 54q30 0 56 -14q35 -17 35 -41q0 -18 -10 -37q-10 -21 -10 -36q0 -23 64 -41q48 -16 82 -16t34 40q0 121 -166 178q-115 39 -264 39t-268 -40q-167 -57 -167 -179
q0 -46 30 -46q27 0 89 19q69 21 69 47q0 8 -10 28q-10 21 -10 36q0 25 31 47q28 22 58 22q27 0 27 -49q0 -118 -57 -200l-98 -114q-15 -21 -26 -60l-14 -61q-2 -12 -11 -29q-8 -19 -8 -29q0 -22 25 -22h638zM437 412q-60 0 -60 42v77q69 -12 123 -12q53 0 120 10v-73
q0 -44 -68 -44h-115zM556 434q39 0 39 25v47q-39 -9 -96 -9t-97 11v-50q0 -24 37 -24h117z" />
    <glyph glyph-name="uni261C" unicode="&#x261c;" 
d="M512 102q-32 -13 -53 -13q-22 0 -50 11q-29 14 -29 35q0 8 3 14q-86 14 -86 57q0 15 14 23q-52 12 -52 55q0 33 38 50q-216 0 -238 17q-17 14 -17 28q0 33 46 40q275 38 451 38q88 0 142 -12q24 -5 62 -25q38 -22 55 -30q21 -8 56 -14v42h94v-304h-94v31q-31 -1 -94 -27
q-88 -38 -175 -38q-47 0 -73 22zM539 127q42 28 55 58q2 6 2 9q0 19 -20 19q-30 -22 -62 -39q-34 -21 -94 -26l-10 -1h-8q-5 0 -6 -1q-3 -3 -3 -11q0 -17 30 -26q18 -7 42 -7q34 0 74 25zM509.5 184.5q40.5 21.5 66.5 54.5l2 10q0 23 -23 23q-5 0 -10 -3q-11 -9 -28 -18
l-30 -20q-47 -26 -83 -26q-13 0 -43 6q-29 8 -34 8q-15 0 -15 -14q0 -23 44 -37q31 -10 61 -10q52 5 92.5 26.5zM473 238q42 23 62 42q4 4 4 9q0 16 -21 16q-3 0 -17 -8l-43 -26q-52 -33 -85 -33q-19 0 -32 10q-15 11 -15 26q0 18 23 32q25 16 25 22q0 7 -17 7
q-29 0 -53 -10q-30 -15 -30 -41q0 -27 50 -50q43 -17 76 -17q28 0 73 21zM716 114l61 24q36 16 77 18v206q-25 2 -63 17q-47 26 -113 53q-37 10 -139 10q-196 0 -450 -36q-30 -4 -30 -27q0 -25 51 -28l224 -4h7l13 1q10 1 19 0l9 -3l9 -6q54 44 96 62q52 17 169 22l1 -13
q-113 -1 -168 -22q-23 -9 -56 -35l-57 -43q-36 -21 -36 -37q0 -21 35 -21q32 0 79 32q49 34 64 34q12 0 31 -3q17 -4 31 -4l17 1l17 1q10 0 10 -6q0 -4 -7 -8q34 -83 121 -106l-1 -8q-45 10 -85 43t-54 74q-6 3 -17 3q-25 0 -25 -10t19 -17q18 -7 18 -23q0 -18 -10 -31
q24 -10 24 -36q0 -33 -77 -80q15 -16 55 -15q69 3 131 21zM933 127v279h-62v-279h62z" />
    <glyph glyph-name="uni261E" unicode="&#x261e;" 
d="M238 118q-63 26 -94 27v-31h-94v304h94v-42q35 6 56 14q18 8 55 30q38 20 62 25q54 12 142 12q176 0 451 -38q46 -7 46 -40q0 -14 -17 -28q-22 -17 -238 -17q38 -17 38 -50q0 -43 -52 -55q14 -8 14 -23q0 -43 -86 -57q3 -6 3 -14q0 -21 -29 -35q-28 -11 -50 -11
q-20 0 -53 13q-26 -22 -73 -22q-87 0 -175 38zM127 127v279h-62v-279h62zM575 109q30 9 30 26q0 8 -3 11q-1 1 -6 1h-7l-11 1q-60 5 -94 26q-32 17 -62 39q-20 0 -20 -19q0 -3 2 -9q13 -30 55 -58q40 -25 74 -25q24 0 42 7zM642 168q44 14 44 37q0 14 -15 14q-5 0 -34 -8
q-30 -6 -43 -6q-36 0 -83 26l-29 20q-16 8 -29 18q-4 3 -10 3q-23 0 -23 -23l2 -10q26 -33 66.5 -54.5t92.5 -26.5q30 0 61 10zM468 108q-77 47 -77 80q0 26 24 36q-10 13 -10 31q0 16 18 23q19 7 19 17t-25 10q-11 0 -17 -3q-14 -41 -54 -74t-85 -43l-1 8q87 23 121 106
q-7 4 -7 8q0 6 10 6l17 -1l17 -1q15 0 32 4q20 3 30 3q15 0 64 -34q47 -32 79 -32q35 0 35 21q0 16 -36 37l-57 43q-33 26 -56 35q-55 21 -168 22l1 13q117 -5 169 -22q42 -18 96 -62l9 6l9 3q9 1 19 0l13 -1h7l224 4q51 2 51 28q0 23 -30 27q-253 36 -450 36
q-102 0 -139 -10q-66 -27 -113 -53q-38 -15 -63 -17v-206q41 -2 77 -18l61 -24q62 -18 131 -21q40 -1 55 15zM674 234q50 23 50 50q0 26 -30 41q-24 10 -53 10q-17 0 -17 -7q0 -6 25 -22q23 -14 23 -32q0 -15 -15 -26q-13 -10 -32 -10q-32 0 -85 33l-42 26q-15 8 -18 8
q-21 0 -21 -16q0 -5 4 -9q20 -19 62 -42q45 -21 73 -21q33 0 76 17z" />
    <glyph glyph-name="female" unicode="&#x2640;" 
d="M477 170h-280v46h280v123q-46 5 -84.5 32t-61.5 69t-23 90q0 53 25.5 97t69.5 69.5t97 25.5t97 -25.5t69.5 -69.5t25.5 -97q0 -48 -23 -90t-61.5 -69t-84.5 -32v-123h280v-46h-280v-292h-46v292zM572.5 403.5q33.5 19.5 53.5 53t20 73.5t-19.5 73.5t-53 53t-73.5 19.5
t-73.5 -19.5t-53 -53t-19.5 -73.5t20 -73.5t53.5 -53t72.5 -19.5t72.5 19.5z" />
    <glyph glyph-name="male" unicode="&#x2642;" 
d="M231 -38.5q-44 25.5 -69.5 69.5t-25.5 97q0 54 26 98t70 69t96 25q65 0 119 -42l311 311h-271v43h345v-345h-43v270l-310 -310q41 -55 41 -119q0 -53 -26 -97t-70.5 -69.5t-95.5 -25.5q-53 0 -97 25.5zM400 0.5q33 19.5 52.5 53.5t19.5 73t-19.5 72.5t-53 53t-72.5 19.5
t-73 -19.5t-53.5 -52.5t-19.5 -73t19.5 -73.5t53 -53t73.5 -19.5t73 19.5z" />
    <glyph glyph-name="spade" unicode="&#x2660;" 
d="M376 -121q-3 0 -5 6q-3 5 5 13q44 38 67.5 83t27.5 115q0 17 -6 17q-5 0 -7 -5l-8 -16q-18 -42 -61 -67.5t-97 -25.5q-55 0 -99 29t-68.5 77t-24.5 104q0 63 28 117.5t61 91t93 93.5q70 69 130 135t86 108q1 2 2 2t2 -2q26 -42 86 -108t130 -135q60 -57 93 -93.5t61 -91
t28 -117.5q0 -57 -24.5 -105t-68 -76.5t-99.5 -28.5q-54 0 -97 25.5t-61 67.5l-7 16q-3 5 -8 5q-6 0 -6 -17q4 -70 27.5 -115t67.5 -83q7 -7 6 -13q-3 -6 -6 -6h-248z" />
    <glyph glyph-name="uni2661" unicode="&#x2661;" 
d="M411 17q-62 74 -129 139q-59 57 -94.5 96.5t-64 96t-28.5 121.5t26.5 118t72.5 83t101 30q60 0 113 -34t91 -111q1 -3 2 -3t2 3q37 79 91 112t113 33q55 0 101 -30t72.5 -83t26.5 -118q0 -66 -28.5 -122.5t-62.5 -94t-96 -97.5q-67 -65 -129 -139t-88 -119q-1 -2 -2 -2
t-2 2q-26 45 -88 119zM501 -39q1 0 2 2q74 105 188 217l15 14q49 47 82 84.5t57.5 87t24.5 104.5q0 54 -22.5 98.5t-60 70t-80.5 25.5q-57 0 -102.5 -34.5t-72.5 -100.5q-7 -15 -13.5 -23.5t-17.5 -8.5t-17.5 8.5t-13.5 23.5q-27 66 -72.5 100.5t-102.5 34.5
q-43 0 -80.5 -25.5t-60 -70t-22.5 -98.5q0 -55 25 -105t57.5 -87.5t82.5 -84.5l15 -14q112 -108 187 -216q1 -2 2 -2z" />
    <glyph glyph-name="club" unicode="&#x2663;" 
d="M377 -122q-5 0 -6.5 6.5t5.5 12.5q44 38 67.5 83t27.5 115q0 18 -6 18q-4 0 -6 -5q-2 -7 -9 -17q-27 -44 -74 -71.5t-102 -27.5q-54 0 -98 25t-69.5 69.5t-25.5 99.5t25.5 100t69.5 70.5t99 25.5q41 0 83 -22q1 -1 3 -1q3 0 4 3q2 3 0 6l-3 3q-28 24 -44 59.5t-16 78.5
q0 54 26.5 100t72 73t99.5 27t99.5 -27t72 -72.5t26.5 -99.5q0 -43 -16.5 -79t-43.5 -60l-3 -3q-1 -4 0 -6q2 -3 4 -3l3 1q18 10 40.5 16t41.5 6q56 0 100.5 -26t69.5 -71t25 -99q0 -56 -25.5 -100t-70 -69t-97.5 -25q-54 0 -100 26.5t-76 72.5q-6 8 -8 17q-2 5 -7 5
q-6 0 -6 -18q6 -71 28.5 -116t66.5 -82q7 -7 6 -13q-3 -6 -6 -6h-247z" />
    <glyph glyph-name="uni2664" unicode="&#x2664;" 
d="M360 -123q-3 0 -6 5t6 14q30 28 47.5 56t29.5 63q8 26 9 48v23l-3 -6q-28 -42 -70 -63.5t-85 -21.5q-59 0 -102.5 29t-67 77.5t-23.5 105.5q0 63 28.5 119t65.5 96.5t91 91.5q64 60 128 131.5t90 114.5q1 2 2 2t2 -2q26 -43 90 -114.5t128 -131.5q54 -51 91 -91.5
t65.5 -96.5t28.5 -119q0 -57 -23.5 -105.5t-67 -77.5t-102.5 -29q-45 0 -86 21t-69 64q-3 2 -3 4l1 -24q0 -19 8 -45q12 -35 29.5 -63t47.5 -56q9 -9 6 -14t-6 -5h-280zM572 -86q3 0 -1 4l-9 13q-43 67 -43 150q0 26 4.5 43t19.5 17q13 0 20 -12q8 -13 18 -23
q27 -36 57.5 -54.5t75.5 -18.5q43 0 78.5 23.5t55.5 63.5t20 87q0 54 -27.5 105.5t-61.5 89.5t-83 84q-55 51 -112.5 113t-81.5 98q-1 2 -2 2t-2 -2q-23 -34 -78 -94t-115 -117q-51 -48 -84.5 -85t-61 -88.5t-27.5 -105.5q0 -47 20 -87t55.5 -63.5t78.5 -23.5q79 0 133 73
q10 10 18 23q8 12 20 12q15 0 19.5 -17t4.5 -43q0 -81 -43 -150q-6 -10 -9 -13q-4 -4 -1 -4h144z" />
    <glyph glyph-name="heart" unicode="&#x2665;" 
d="M406.5 20.5q-62.5 73.5 -124.5 134.5q-61 58 -94.5 95t-62.5 94.5t-29 123.5q0 63 27 116t73 84t100 31q72 0 125 -38t74 -115q1 -7 5 -7t5 7q19 75 73 114t126 39q54 0 100 -31t73 -84t27 -116q0 -66 -29 -123.5t-62.5 -94.5t-94.5 -95q-62 -61 -124.5 -134.5
t-91.5 -120.5q-1 -2 -2 -2t-2 2q-29 47 -91.5 120.5z" />
    <glyph glyph-name="uni2667" unicode="&#x2667;" 
d="M360 -124q-3 0 -6 5t6 14q33 33 51.5 62t30.5 73q7 33 5 53l-4 -6l-6 -10q-30 -37 -74.5 -56.5t-91.5 -19.5q-54 0 -98 26t-69.5 71.5t-25.5 101.5q0 58 25 103t69 70t100 25q23 0 47.5 -6.5t33.5 -13.5q5 -1 1 2q-21 24 -37 61.5t-16 82.5q0 54 27 99.5t72.5 72.5
t99.5 27q55 0 100.5 -26.5t72 -72.5t26.5 -100q0 -45 -16 -82.5t-37 -61.5q-3 -3 1 -2q9 7 33.5 13.5t47.5 6.5q56 0 100 -25t69 -70t25 -103q0 -56 -25.5 -101.5t-69.5 -71.5t-98 -26q-47 0 -91.5 19.5t-74.5 56.5l-3 5l-3 5l-4 6q2 -46 5 -53q12 -44 30.5 -73t51.5 -62
q9 -9 6 -14t-6 -5h-280zM572 -87q3 0 -1 4q-5 5 -10 13q-43 70 -43 149q0 28 5.5 44t21.5 16q12 0 19 -12q10 -16 17 -23q29 -37 64.5 -56.5t83.5 -19.5q42 0 78 21.5t57 58.5t21 82q0 70 -43 116t-114 46q-37 0 -83 -22q-31 -16 -47 3q-7 10 -4 20.5t12 22t17 21.5
q35 47 39 117q1 42 -21 79t-60 59.5t-81 22.5q-42 0 -79.5 -22t-60 -59t-22.5 -80q0 -65 39 -117q8 -10 17 -21.5t12 -22t-4 -20.5q-16 -19 -47 -3q-46 22 -83 22q-48 0 -83.5 -22t-54.5 -59t-19 -81q0 -45 21 -82t57 -58.5t78 -21.5q49 0 83.5 19t64.5 57q10 10 18 23
q8 12 18 12q16 0 21.5 -16t5.5 -44q0 -81 -43 -149q-6 -10 -9 -13q-4 -4 -2 -4h144z" />
    <glyph glyph-name="uni2668" unicode="&#x2668;" 
d="M344.5 -65.5q-72.5 17.5 -127.5 50.5q-56 33 -87 76t-31 93q0 67 39 109.5t110 58.5l2 -4q-101 -32 -101 -117q0 -39 27 -73.5t76 -59.5q48 -25 112 -39t136 -14t136 14t113 39q48 25 75 59.5t27 73.5q0 85 -101 117l2 4q71 -16 110 -58.5t39 -109.5q0 -50 -30.5 -93
t-86.5 -76q-55 -33 -128.5 -50.5t-155.5 -17.5q-83 0 -155.5 17.5zM292 124q26 26 35 56.5t9 68.5q0 27 -11 57t-32 70q-40 78 -40 125q0 45 26.5 88.5t80.5 75.5l5 -6q-26 -26 -35.5 -57t-9.5 -67q0 -27 11 -55.5t33 -72.5q39 -76 39 -126q0 -45 -26.5 -88t-80.5 -75z
M458 88q26 30 35.5 65.5t9.5 76.5q0 31 -11 65t-32 79q-42 87 -42 141q0 51 27 100.5t83 85.5l5 -7q-27 -29 -36 -64t-9 -77q0 -31 11 -65t32 -79q41 -87 41 -142q0 -51 -27 -100t-82 -85zM629 124q26 26 35 57t9 68q0 27 -11 57t-32 70q-40 78 -40 126q0 45 26.5 88
t80.5 75l5 -6q-27 -27 -36 -57.5t-9 -66.5q0 -27 11 -55.5t33 -72.5q39 -73 39 -125q0 -45 -26.5 -88.5t-80.5 -75.5z" />
    <glyph glyph-name="uni2669" unicode="&#x2669;" 
d="M314 -123.5q-26 18.5 -26 52.5t25 64.5t64 49.5t77 19q36 0 60 -13v693h38v-720q0 -49 -24 -86.5t-64.5 -57.5t-86.5 -20q-37 0 -63 18.5z" />
    <glyph glyph-name="musicalnote" unicode="&#x266a;" 
d="M286 -123.5q-26 18.5 -26 52.5t25 64.5t64 49.5t77 19q37 0 61 -13v693h24q0 -116 111 -212q124 -106 124 -216q0 -105 -81 -234h-25q61 122 61 202q0 82 -49.5 143t-126.5 79v-482q0 -49 -24.5 -86.5t-65 -57.5t-86.5 -20q-37 0 -63 18.5z" />
    <glyph glyph-name="uni266C" unicode="&#x266c;" 
d="M67 -137.5q-27 18.5 -27 52.5q0 33 25.5 64t64 50t76.5 19q37 0 61 -13v598l562 123v-626q0 -49 -24 -86t-64.5 -57t-87.5 -20q-37 0 -63 18.5t-26 52.5q0 32 24.5 63t63.5 50t78 19q38 0 60 -12v328l-485 -105v-374q0 -48 -24 -85.5t-64 -57.5t-87 -20q-36 0 -63 18.5z
M790 582v69l-485 -105v-69z" />
    <glyph glyph-name="uni266D" unicode="&#x266d;" 
d="M353 729h37v-479q37 62 90.5 98t117.5 36q63 0 101.5 -36.5t38.5 -89.5q0 -67 -36 -116.5t-103 -92.5l-40 -25q-72 -45 -117 -78t-81 -75h-8v858zM390 -61q16 19 39 39t44 37q46 36 73 64t45 67.5t18 93.5q0 80 -69 80q-35 0 -75 -30.5t-75 -89.5v-261z" />
    <glyph glyph-name="uni3000" unicode="&#x3000;" 
 />
    <glyph glyph-name="uni3001" unicode="&#x3001;" 
d="M220 -155q-38 70 -77 126q-44 63 -93 107l93 54q52 -37 112 -97q58 -62 97 -122z" />
    <glyph glyph-name="uni3002" unicode="&#x3002;" 
d="M105 -119q-35 20 -55 54.5t-20 75.5q0 40 20 74t55 54t77 20q41 0 75.5 -20t54 -54t19.5 -74q0 -41 -19.5 -75.5t-54 -54.5t-75.5 -20q-42 0 -77 20zM222 -38q17 20 17 48t-17 48t-41 20q-25 0 -42 -19.5t-17 -48.5t17 -48.5t42 -19.5q24 0 41 20z" />
    <glyph glyph-name="uni3003" unicode="&#x3003;" horiz-adv-x="545" 
d="M260 206l95 293l130 -52l-136 -277zM155 519l130 -53l-136 -276l-89 36z" />
    <glyph glyph-name="uni3008" unicode="&#x3008;" horiz-adv-x="386" 
d="M25 326l202 426h119l-172 -426l172 -427h-119z" />
    <glyph glyph-name="uni3009" unicode="&#x3009;" horiz-adv-x="386" 
d="M212 326l-172 426h119l202 -426l-202 -427h-119z" />
    <glyph glyph-name="uni300A" unicode="&#x300a;" horiz-adv-x="616" 
d="M255 326l192 426h129l-172 -426l172 -427h-129zM217 752h129l-172 -426l172 -427h-129l-192 427z" />
    <glyph glyph-name="uni300B" unicode="&#x300b;" horiz-adv-x="616" 
d="M442 326l-172 426h129l192 -426l-192 -427h-129zM212 326l-172 426h129l192 -426l-192 -427h-129z" />
    <glyph glyph-name="uni300C" unicode="&#x300c;" horiz-adv-x="342" 
d="M80 792h222v-106h-95v-199h-127v305z" />
    <glyph glyph-name="uni300D" unicode="&#x300d;" horiz-adv-x="342" 
d="M40 -37h95v199h127v-305h-222v106z" />
    <glyph glyph-name="uni300E" unicode="&#x300e;" horiz-adv-x="391" 
d="M80 452l1 339l270 2v-152l-85 -1l-1 -190zM198 507v188l85 1v40h-134v-229h49z" />
    <glyph glyph-name="uni300F" unicode="&#x300f;" horiz-adv-x="391" 
d="M40 8l85 1l1 190l185 -2l-1 -339l-270 -2v152zM242 -87v229h-49v-188l-85 -1v-40h134z" />
    <glyph glyph-name="uni3010" unicode="&#x3010;" horiz-adv-x="332" 
d="M80 752h222v-6q-55 -79 -83 -191.5t-28 -228.5q0 -115 28 -228t83 -192v-6h-222v852z" />
    <glyph glyph-name="uni3011" unicode="&#x3011;" horiz-adv-x="332" 
d="M30 -94q55 79 83 192t28 228q0 116 -28 228.5t-83 191.5v6h222v-852h-222v6z" />
    <glyph glyph-name="uni3013" unicode="&#x3013;" horiz-adv-x="800" 
d="M50 522h700v-80h-700v80zM50 272h700v-80h-700v80z" />
    <glyph glyph-name="uni3014" unicode="&#x3014;" horiz-adv-x="367" 
d="M80 -22v704l247 110v-104l-115 -52v-612l115 -52v-104z" />
    <glyph glyph-name="uni3015" unicode="&#x3015;" horiz-adv-x="367" 
d="M40 -28l115 52v612l-115 52v104l247 -110v-704l-247 -110v104z" />
    <glyph glyph-name="uni3041" unicode="&#x3041;" 
d="M522 -37q-35 -8 -64 -18q-34 -11 -67 -18l-6 25q-49 -17 -100 -17q-66 0 -105.5 28t-39.5 90q0 71 57 141.5t144 119.5q1 52 7 116q-95 0 -170 8l-3 97q135 -16 184 -16l4 48l3 47l172 -3q-13 -55 -19 -88q129 8 278 43l1 -100q-59 -10 -138 -18.5t-154 -12.5l-6 -69
q38 6 79 6q6 22 7 32l2 21l150 -37l-9 -25h-17v-8q77 -29 128.5 -85.5t51.5 -119.5q0 -90 -71 -157q-84 -78 -250 -107zM358 50q-10 51 -16 137q-22 -24 -34.5 -53.5t-12.5 -60.5q0 -41 11 -41q14 0 52 18zM678.5 44q47.5 49 47.5 116q0 31 -9 56t-26 40q-56 -126 -167 -224
q5 -22 14 -52q93 15 140.5 64zM555 289l-29 -5l-30 -7v-30q0 -44 2 -63q30 44 57 105z" />
    <glyph glyph-name="uni3042" unicode="&#x3042;" 
d="M520 -34l-147 -44l-10 35q-67 -25 -133 -25q-71 0 -116.5 34.5t-45.5 106.5q0 58 32.5 118.5t88.5 112t124 85.5l6 94l4 47q-74 0 -209 9l-3 110q39 -7 104 -12.5t119 -5.5l3 44q1 19 5 69l181 -3q-16 -53 -22 -107q163 8 338 51l1 -113q-130 -25 -354 -39q-2 -11 -3 -26
t-2 -32l-2 -33q56 11 114 12q8 40 9 68l168 -41l-11 -39h-19v-8q96 -33 154 -97t58 -143q0 -136 -106.5 -213.5t-270.5 -101.5zM287.5 51.5q19.5 6.5 45.5 20.5q-11 58 -16.5 97.5t-5.5 78.5v3q-38 -40 -61.5 -89t-24.5 -83t23 -34q20 0 39.5 6.5zM713 55q62 61 62 144
q0 88 -59 127v-1q-35 -84 -88.5 -155.5t-116.5 -125.5q4 -14 9 -34.5t9 -30.5q122 15 184 76zM480 210q54 75 85 150q-43 -4 -90 -18q0 -36 3 -72l2 -58v-2z" />
    <glyph glyph-name="uni3043" unicode="&#x3043;" 
d="M253 -37q-68 73 -86 230q-5 47 -7.5 120.5t-2.5 123.5l-1 81l176 -1l-1 -95q0 -16 -1 -26q-1 -52 -0.5 -90.5t8.5 -90.5q9 -78 23 -129q13 -49 30 -49q15 0 32.5 59t35.5 150l132 -150q-35 -103 -82 -148t-119 -45q-82 0 -137 60zM734 28q-17 133 -48 250t-88 179l142 47
q46 -53 83.5 -129.5t60.5 -152.5t26 -127z" />
    <glyph glyph-name="uni3044" unicode="&#x3044;" 
d="M195 9q-75 96 -93 277q-12 106 -12 270l-1 97l190 -2l-2 -118q0 -147 6 -211q9 -88 28 -167.5t52 -79.5q31 0 90 242l139 -168q-47 -122 -103 -175q-54 -50 -129 -50q-100 0 -165 85zM785 81q-48 374 -162 504l156 51q47 -59 88.5 -145.5t69 -177t35.5 -161.5z" />
    <glyph glyph-name="uni3045" unicode="&#x3045;" 
d="M312 -28q161 19 241 70q90 55 90 151q0 45 -24.5 73t-68.5 28q-43 0 -103.5 -13t-107.5 -29l-78 -31l-29 -12l-34 125l125 25q153 34 240 34q117 0 187 -53t70 -148q0 -124 -115 -208.5t-333 -118.5zM732 450q-106 7 -232.5 20t-199.5 27l17 102q96 -19 215 -30t217 -14z
" />
    <glyph glyph-name="uni3046" unicode="&#x3046;" 
d="M261 -3q187 20 290 86q109 70 109 185q0 53 -31.5 88t-86.5 35q-64 0 -133 -15.5t-121 -33.5l-128 -42l-35 134l156 33q168 38 277 38q87 0 154 -29t104.5 -83.5t37.5 -129.5q0 -102 -65.5 -181t-184 -130.5t-274.5 -71.5zM750 581q-121 8 -269 22.5t-231 30.5l18 116
q102 -22 254.5 -37t246.5 -15z" />
    <glyph glyph-name="uni3047" unicode="&#x3047;" 
d="M164 -55l67 65l17 17q162 154 247 251l-33 -2q-91 -4 -134 -10q-55 -6 -106 -14l-10 118h70q147 0 334 16q11 1 64 17l62 -70q-37 -30 -49 -41q-20 -16 -66.5 -61t-70.5 -71q30 -5 57.5 -23t35.5 -43l11 -37q14 -46 23 -57q10 -13 19 -13q36 0 87 7t98 18l-7 -115
q-32 -6 -95 -10.5t-100 -4.5q-71 0 -109.5 17t-51.5 50q-9 23 -13 38l-12 40q-13 49 -19 49l-10 -10l-11 -12l-14 -15q-14 -14 -57 -65q-46 -55 -96 -118zM711 447q-81 7 -211.5 22.5t-189.5 26.5l18 102q79 -19 196 -33t202 -19z" />
    <glyph glyph-name="uni3048" unicode="&#x3048;" 
d="M91 -34l23 20l40 39l41 41q243 243 310 316q-94 -4 -230 -17q-61 -6 -115 -17l-10 129l120 3q52 0 172 6.5t182 14.5q49 9 71 20l76 -85q-38 -28 -62 -50q-29 -24 -79.5 -72t-86.5 -84v-1l20 -3q9 -1 11 -3q61 -18 78 -67l28 -91q14 -48 46 -48q101 0 221 23l-8 -127
q-42 -7 -107.5 -11.5t-114.5 -4.5q-83 0 -129.5 19.5t-64.5 63.5q-20 39 -27 67.5t-9 54.5q-2 18 -5 23.5t-17 5.5q-3 0 -16 -11l-31 -29q-22 -22 -69 -78q-53 -61 -117 -142zM731 587q-319 28 -461 55l19 111q173 -35 459 -57z" />
    <glyph glyph-name="uni3049" unicode="&#x3049;" 
d="M256.5 -103.5q-54.5 20.5 -92.5 55.5t-38 77q0 47 53 98t133 90v127h-19q-80 0 -144 8l-2 109q92 -12 146 -12h20v54q0 17 -1 38t-3 34h177q-5 -60 -6 -73v-9l-2 -31q78 14 147 34l1 -66l1 -42q-80 -18 -154 -29v-91q63 12 127 12q74 0 133.5 -22.5t93 -64.5t33.5 -97
q0 -70 -59.5 -125.5t-168.5 -81.5q-46 -11 -125 -11l-31 94v-1q-5 -51 -35.5 -73t-84.5 -22q-45 0 -99.5 20.5zM318 1v58l-1 40q-13 -12 -20.5 -29t-7.5 -34t10.5 -33t19.5 -16q-1 4 -1 14zM478 -12q77 0 108 5q44 10 72.5 36.5t28.5 67.5q0 44 -23.5 67.5t-66.5 23.5
q-55 0 -123 -15q4 -92 4 -175v-10zM853 279q-42 38 -114 85.5t-113 65.5l54 95q67 -33 140.5 -73.5t100.5 -60.5z" />
    <glyph glyph-name="uni304A" unicode="&#x304a;" 
d="M200.5 -79q-61.5 25 -102.5 67.5t-41 91.5q0 56 63.5 114.5t158.5 105.5v167h-27q-94 0 -165 8l-2 112q54 -7 86.5 -8.5t77.5 -1.5h31q1 17 1 50v38q0 21 -2 46t-4 37h189l-8 -82l-3 -69v-4q70 11 183 44l4 -123q-85 -19 -192 -33v-127q86 18 165 18q84 0 152.5 -25.5
t108.5 -74t40 -114.5q0 -89 -58.5 -151t-183.5 -92q-29 -7 -61 -9.5t-100 -6.5l-43 121q53 0 85 1t55 6q53 11 88 44.5t35 86.5t-32.5 82t-87.5 29q-68 0 -161 -22v-27q0 -19 1 -25l3 -100q1 -10 1 -27v-21q0 -86 -35 -118.5t-101 -32.5q-57 0 -118.5 25zM284 33q1 6 1 37
v73l-1 27v3q-50 -39 -50 -87q0 -23 16 -43t30 -20q3 0 4 10zM918 381q-52 46 -131.5 96t-135.5 78l56 99q76 -37 160 -84t120 -73z" />
    <glyph glyph-name="uni304B" unicode="&#x304b;" 
d="M51 -44q100 138 191 457v5q-43 -6 -55 -8l-35 -5q-21 -3 -50 -7.5t-57 -10.5l-11 132l77 1q68 0 156 8q23 128 22 216l200 -21l-22 -103l-15 -77q22 2 32 2h25q207 0 207 -187q0 -89 -15.5 -193.5t-43.5 -168.5q-24 -47 -70.5 -68.5t-117.5 -21.5q-30 0 -70.5 5.5
t-75.5 14.5l-24 132v1q-50 -111 -84 -167zM477 34q12 10 24 34q18 39 28 118t10 158q0 57 -17 76t-54 19l-41 -2q-63 -232 -127 -377v-6q39 -11 85 -20.5t65 -9.5q15 0 27 10zM830 195q-25 103 -70 217t-88 169l149 62q51 -71 99.5 -178.5t77.5 -193.5z" />
    <glyph glyph-name="uni304C" unicode="&#x304c;" 
d="M45 -51q100 138 191 457v5q-109 -12 -197 -31l-11 132l77 1q87 2 156 8q23 128 22 216l200 -21l-22 -103l-15 -77q22 2 32 2h25q207 0 207 -187q0 -89 -15.5 -193.5t-43.5 -168.5q-24 -47 -70.5 -68.5t-117.5 -21.5q-30 0 -70.5 5.5t-75.5 14.5l-24 132v1
q-50 -111 -84 -167zM471 27q12 10 24 34q18 39 28 118t10 158q0 57 -17 76t-54 19l-41 -2q-63 -232 -127 -377v-6q39 -11 85 -20.5t65 -9.5q15 0 27 10zM826 170q-20 84 -53 171.5t-71 155.5l146 67q47 -76 85 -162.5t61 -155.5zM763 553q-33 72 -70 143l89 33
q57 -95 78 -138zM899 603q-42 84 -75 140l88 36q63 -98 83 -135z" />
    <glyph glyph-name="uni304D" unicode="&#x304d;" 
d="M762 103q-48 9 -124 20.5t-139 19.5l10 87l110 -9l-43 101q-85 -9 -156 -9q-113 0 -241 12l-4 115q153 -22 235 -22q63 0 118 6l-21 49l-22 53q-47 -4 -112 -4q-92 0 -218 18l-5 109q134 -25 212 -25h38q14 0 40 2l-50 98l185 35q13 -59 31 -110q89 19 185 57l23 -109
q-76 -29 -167 -47l43 -99q74 19 175 66l26 -116q-58 -27 -153 -51l32 -64q37 -74 54 -106zM226 -65q-85 48 -85 148q0 50 16 132l175 -16q-13 -54 -13 -89q0 -52 34 -79t112 -27q139 0 273 28l-9 -123q-126 -22 -260 -22q-158 0 -243 48z" />
    <glyph glyph-name="uni304E" unicode="&#x304e;" 
d="M722 93q-48 9 -124 20.5t-139 19.5l10 87l110 -9l-43 101q-85 -9 -156 -9q-113 0 -241 12l-4 115q153 -22 235 -22q63 0 118 6l-21 49l-22 53q-47 -4 -112 -4q-92 0 -218 18l-5 109q134 -25 212 -25h38q14 0 40 2l-50 98l185 35q13 -59 31 -110q45 9 100 26l54 -97
q-47 -15 -113 -28l43 -99q74 19 175 66l26 -116q-58 -27 -153 -51l32 -64q37 -74 54 -106zM186 -75q-85 48 -85 148q0 50 16 132l175 -16q-13 -54 -13 -89q0 -52 34 -79t112 -27q139 0 273 28l-9 -123q-126 -22 -260 -22q-158 0 -243 48zM763 553q-33 72 -70 143l89 33
q57 -95 78 -138zM889 603q-42 84 -75 140l88 36q63 -98 83 -135z" />
    <glyph glyph-name="uni304F" unicode="&#x304f;" 
d="M531 -43q-62 62 -273 244l-23 20q-42 37 -61 61.5t-19 43.5q0 21 25 49.5t89 81.5l24 19q83 68 136.5 113.5t95.5 87.5l100 95l126 -112l-55 -41l-91 -71q-145 -114 -201 -164q-17 -14 -24 -25t-7 -28q0 -27 33 -55q22 -19 51 -43l47 -38q188 -154 265 -227l-132 -122z
" />
    <glyph glyph-name="uni3050" unicode="&#x3050;" 
d="M514 -43q-57 60 -245 220l-51 44q-42 37 -61 61.5t-19 43.5q0 21 25 49.5t89 81.5q177 144 256 220l100 95l126 -112l-55 -41l-91 -71q-145 -114 -201 -164q-17 -14 -24 -25t-7 -28q0 -27 33 -55q22 -19 51 -43l47 -38q188 -154 265 -227l-132 -122zM668 343
q-33 72 -70 143l94 33q57 -95 78 -138zM794 393q-42 84 -75 140l93 36q63 -98 83 -135z" />
    <glyph glyph-name="uni3051" unicode="&#x3051;" 
d="M435 -45q23 10 52 32t54 48q50 53 68 132q16 71 16 207v29q-15 -1 -42 -1h-42q-24 0 -82 2l-99 4v124q104 -15 178 -15h41q28 0 43 1q0 108 -3 138q-7 49 -10 64h196q-2 -14 -2 -28l-2 -36q-1 -5 -1 -21v-65q0 -25 1 -38v-4q75 7 149 22l-1 -125q-79 -11 -147 -15v-37
q0 -130 -16 -213.5t-68.5 -158t-160.5 -143.5zM129 -73q-23 66 -41 154t-18 167q0 109 10 202.5t24 184.5l15 85l186 -19l-6 -24q-5 -16 -13 -50q-42 -186 -42 -376q22 40 31 63l83 -52q-23 -64 -55 -204l-8 -31q-6 -30 -6 -49q0 -11 1 -17q1 -5 1 -19z" />
    <glyph glyph-name="uni3052" unicode="&#x3052;" 
d="M368 -63q55 26 105.5 79t68.5 133q7 31 10 79.5t3 157.5q-80 0 -212 4v124q88 -13 211 -13q0 68 -1 107q-1 65 -11 94h191v-195q126 10 200 25l-1 -125q-93 -13 -200 -17q-1 -130 -8 -194t-22 -110q-25 -72 -75 -131t-137 -115zM112 -92q-23 66 -41 154t-18 167
q0 115 12 222t37 250l186 -19l-6 -24q-25 -92 -40 -207.5t-15 -218.5q22 40 31 63l83 -52q-17 -49 -34.5 -114.5t-28.5 -120.5q-7 -37 -4 -85zM803 553q-33 72 -70 143l74 33q57 -95 78 -138zM914 603q-42 84 -75 140l73 36q63 -98 83 -135z" />
    <glyph glyph-name="uni3053" unicode="&#x3053;" 
d="M220.5 -43q-92.5 54 -92.5 155q0 35 4 60t15 82l184 -15q-6 -25 -11 -50t-5 -46q0 -52 43.5 -82.5t133.5 -30.5q96 0 194.5 13t182.5 36l1 -138q-165 -38 -373 -38q-184 0 -276.5 54zM195 666q136 -16 304 -15t308 17v-127q-321 -25 -612 -1v126z" />
    <glyph glyph-name="uni3054" unicode="&#x3054;" 
d="M198 -53.5q-93 53.5 -93 155.5q0 32 4.5 58t15.5 85l183 -17q-6 -25 -10.5 -49.5t-4.5 -45.5q0 -52 43.5 -82.5t133.5 -30.5q99 0 197.5 12.5t179.5 35.5l1 -137q-170 -38 -373 -38q-184 0 -277 53.5zM175 656q127 -15 279.5 -15t264.5 13l-21 42l94 33q57 -95 78 -138
l-102 -38l-21 45v-67q-125 -12 -274 -12.5t-298 11.5v126zM894 603q-42 84 -75 140l93 36q63 -98 83 -135z" />
    <glyph glyph-name="uni3055" unicode="&#x3055;" 
d="M772 154q-56 11 -137.5 24.5t-134.5 20.5l12 94l33 -4q28 -3 48.5 -5t36.5 -2q-18 48 -58 131l-19 41q-86 -11 -198 -7.5t-215 16.5l-7 128q107 -23 193 -30t175 2l-56 129q-9 20 -17 31l182 36q17 -56 63 -167q97 26 192 71l24 -128q-55 -23 -170 -52q61 -135 124 -249z
M218 -55q-84 52 -84 155q0 59 17 142l181 -15q-6 -20 -10.5 -45.5t-4.5 -47.5q0 -62 33 -93t117 -31q83 0 141.5 6.5t136.5 20.5l-6 -124q-107 -20 -272 -20t-249 52z" />
    <glyph glyph-name="uni3056" unicode="&#x3056;" 
d="M712 144q-56 11 -137.5 24.5t-134.5 20.5l12 94l33 -4q28 -3 48.5 -5t36.5 -2l-78 173q-194 -14 -362 8l-7 128q158 -35 320 -27l-58 128q-9 20 -17 31l182 36q20 -67 66 -174q75 15 130 35q-15 33 -30 60l-13 26l89 33q57 -95 78 -138l-76 -30l13 -62q-63 -19 -143 -33
q56 -125 119 -242zM206 -63q-84 52 -84 155q0 59 17 142l181 -15q-6 -20 -10.5 -45.5t-4.5 -47.5q0 -62 33 -93t117 -31q67 0 139 7t169 20l-6 -124q-62 -8 -150 -14t-152 -6q-165 0 -249 52zM899 603q-42 84 -75 140l88 36q63 -98 83 -135z" />
    <glyph glyph-name="uni3057" unicode="&#x3057;" 
d="M267.5 -58q-77.5 58 -77.5 180q0 130 3 206l1 48l3 95l2 248l200 -2q-5 -35 -12 -129q-4 -101 -8 -231.5t-4 -207.5q0 -73 29.5 -105.5t81.5 -32.5q103 0 185.5 63.5t152.5 169.5l113 -138q-60 -88 -157 -146q-128 -76 -295 -76q-140 0 -217.5 58z" />
    <glyph glyph-name="uni3058" unicode="&#x3058;" 
d="M251.5 -64q-77.5 58 -77.5 180q0 130 3 206l1 48l3 95l2 248l200 -2q-5 -35 -12 -129q-4 -101 -8 -231.5t-4 -207.5q0 -73 29.5 -105.5t81.5 -32.5q103 0 185.5 63.5t152.5 169.5l113 -138q-60 -88 -157 -146q-128 -76 -295 -76q-140 0 -217.5 58zM618 453
q-33 72 -70 143l94 33q57 -95 78 -138zM754 503q-42 84 -75 140l93 36q63 -98 83 -135z" />
    <glyph glyph-name="uni3059" unicode="&#x3059;" 
d="M267 -20q68 15 120.5 40t99.5 67q-8 -1 -30 -1q-46 0 -92 20t-76 60.5t-30 97.5q0 54 30.5 96t82 65t113.5 23h12l-1 71q-237 -5 -428 -18l-3 116h61q169 0 369 8q0 21 -3 56.5t-7 60.5h195q-3 -16 -4 -48.5t-1 -68.5h288l-1 -113q-122 8 -289 8v-4q0 -123 -4 -149
q42 -64 42 -137q0 -69 -35 -138t-116.5 -129.5t-211.5 -98.5zM513 215.5q9 27.5 9 61.5v24l2 15q-22 34 -42 34t-35 -22t-15 -61q0 -35 14 -57t35 -22q23 0 32 27.5z" />
    <glyph glyph-name="uni305A" unicode="&#x305a;" 
d="M237 -40q68 15 120.5 40t99.5 67q-8 -1 -30 -1q-46 0 -92 20t-76 60.5t-30 97.5q0 54 30.5 96t82 65t113.5 23h12l-1 71q-237 -5 -428 -18l-3 116h61q169 0 369 8q0 21 -3 56.5t-7 60.5h195q-3 -16 -4 -48.5t-1 -68.5h93q-18 39 -60 121l94 33q57 -95 78 -138l-43 -16
h126l-1 -113q-122 8 -289 8v-4q0 -123 -4 -149q42 -64 42 -137q0 -69 -35 -138t-116.5 -129.5t-211.5 -98.5zM483 195.5q9 27.5 9 61.5v24l2 15q-22 34 -42 34t-35 -22t-15 -61q0 -35 14 -57t35 -22q23 0 32 27.5zM884 613q-42 84 -75 140l93 36q63 -98 83 -135z" />
    <glyph glyph-name="uni305B" unicode="&#x305b;" 
d="M369.5 -77.5q-61.5 11.5 -94.5 37.5q-32 25 -44.5 66t-14.5 109l-1 229v4l-19 -3q-14 -2 -19 -2l-74 -10l-75 -10l-13 123q93 0 149 6l52 5v213h184q-5 -45 -5 -99v-40q0 -34 -1 -54v-4l219 21v206h179q-5 -20 -5 -81l-2 -105v-4l25 1l55 3q23 0 91 8v-120l-27 2h-19
q-37 0 -56 -1l-71 -3q-7 -161 -15 -204q-8 -37 -33.5 -50t-79.5 -13q-42 0 -177 18l3 105l36 -6q62 -11 82 -11l1 4q1 1 1 8l2 13q6 36 8 119v5l-219 -23v-197q0 -25 1 -34q2 -57 9.5 -80.5t34.5 -33t91 -9.5q72 0 160 9t164 23l-5 -132q-195 -20 -310 -20
q-106 0 -167.5 11.5z" />
    <glyph glyph-name="uni305C" unicode="&#x305c;" 
d="M349.5 -92.5q-61.5 11.5 -94.5 37.5q-32 25 -44.5 66t-14.5 109l-1 229v4l-19 -3q-14 -2 -19 -2l-74 -10l-75 -10l-13 123q82 0 149 6l52 5v213h184q-5 -45 -5 -99v-40l-1 -54v-4l169 17v210h179q-5 -20 -5 -81l-2 -113l82 6q113 6 139 10v-120l-27 2q-35 0 -95.5 -2.5
t-100.5 -5.5q-3 -76 -5.5 -117t-10.5 -83q-6 -37 -32 -50t-80 -13q-29 0 -77 6.5t-60 11.5l-17 105l20 -4q59 -13 82 -13q8 63 8 144v1l-169 -19v-197q0 -25 1 -34q2 -57 9.5 -80.5t34.5 -33t91 -9.5q72 0 160 9t164 23l-5 -132q-195 -20 -310 -20q-106 0 -167.5 11.5z
M798 543q-33 72 -70 143l84 33q56 -95 78 -138zM914 583q-42 84 -75 140l83 36q63 -98 83 -135z" />
    <glyph glyph-name="uni305D" unicode="&#x305d;" 
d="M409.5 -57q-100.5 58 -100.5 171q0 33 24 78t53 74v7q-116 -9 -308 -42l-12 116l151 16l34 4q50 37 141.5 111.5t137.5 117.5l9 7l-193 -13l-118 -12l-6 120l63 -2l31 1h28q36 0 141.5 5.5t145.5 10.5q34 4 88 20l78 -91q-46 -30 -78 -56q-53 -45 -109 -90l-31 -25
l-107 -85q107 11 227 18t213 7v-112q-102 6 -157 6q-74 0 -121 -6q-59 -13 -102.5 -58.5t-43.5 -105.5q0 -72 58.5 -99.5t154.5 -27.5l60 2l29 2l-23 -124q-22 0 -41.5 -1.5t-29.5 -1.5q-186 0 -286.5 58z" />
    <glyph glyph-name="uni305E" unicode="&#x305e;" 
d="M379.5 -57q-100.5 58 -100.5 171q0 33 24 78t53 74v7q-116 -9 -308 -42l-12 116l151 16l34 4q40 29 159 130q89 76 120 99l9 7l-193 -13l-83 -8l-35 -4l-6 120l63 -2l31 1h28q36 0 141.5 5.5t145.5 10.5q34 4 88 20l78 -91q-46 -30 -78 -56q-60 -51 -140 -115l-107 -85
q107 11 227 18t213 7v-112q-102 6 -157 6q-74 0 -121 -6q-59 -13 -102.5 -58.5t-43.5 -105.5q0 -72 58.5 -99.5t154.5 -27.5l60 2l29 2l-23 -124q-22 0 -41.5 -1.5t-29.5 -1.5q-186 0 -286.5 58zM738 413q-33 72 -70 143l84 33q57 -95 78 -138zM864 463q-42 84 -75 140
l83 36q63 -98 83 -135z" />
    <glyph glyph-name="uni305F" unicode="&#x305f;" 
d="M74 -53q35 55 83 186.5t83 252.5l22 86h-40q-79 0 -139 5l-4 1h-5l-3 118q50 -6 82 -8.5t70 -2.5h31q20 0 31 1l9 63l16 99l191 -15q-13 -75 -28 -127q47 8 167 37v-120q-82 -20 -191 -35l-28 -116q-33 -123 -78 -256t-91 -227zM501 -49.5q-70 39.5 -70 114.5
q0 58 16 132l171 -17q-12 -41 -12 -76q0 -39 23.5 -59.5t81.5 -20.5q86 0 233 25l-5 -121q-105 -17 -229 -17q-139 0 -209 39.5zM910 321q-118 14 -183 14q-94 0 -218 -14v109q117 13 217 13q111 0 201 -10l-3 -114z" />
    <glyph glyph-name="uni3060" unicode="&#x3060;" 
d="M44 -64q37 58 87.5 193t78.5 246l22 86h-40q-79 0 -139 5l-4 1h-5l-3 118q50 -6 82 -8.5t70 -2.5h31q20 0 31 1l9 63l16 99l191 -15q-13 -75 -28 -127q47 8 167 37v-120q-82 -20 -191 -35l-28 -116q-27 -112 -74 -249t-95 -234zM471 -60.5q-70 39.5 -70 114.5
q0 58 16 132l171 -17q-12 -41 -12 -76q0 -39 23.5 -59.5t81.5 -20.5q86 0 233 25l-5 -121q-105 -17 -229 -17q-139 0 -209 39.5zM880 310q-101 14 -183 14q-94 0 -218 -14v109q117 13 217 13q111 0 201 -10l-3 -114zM748 523q-33 72 -70 143l94 33q57 -95 78 -138zM884 563
q-42 84 -75 140l93 36q63 -98 83 -135z" />
    <glyph glyph-name="uni3061" unicode="&#x3061;" 
d="M307 -99l-36 124q120 -19 191 -19q112 0 180 38t68 118q0 48 -32 80.5t-90 32.5q-76 0 -142.5 -31t-111.5 -88q-17 -24 -30 -52l-156 56q23 44 47.5 123.5t55.5 192.5v5q-101 2 -169 11v119q124 -20 192 -24l8 56q5 37 6 56t-1 41l192 -8q-4 -15 -9 -40l-9 -47
q-7 -29 -11 -53q193 13 370 53l3 -116q-83 -15 -189.5 -27t-208.5 -18l-9 -35q-12 -53 -29 -114q50 21 101.5 30.5t114.5 9.5q88 0 154.5 -26t103.5 -73.5t37 -110.5q0 -136 -112.5 -205t-316.5 -69q-76 0 -162 10z" />
    <glyph glyph-name="uni3062" unicode="&#x3062;" 
d="M270 -109l-36 124q120 -19 191 -19q112 0 180 38t68 118q0 48 -32 80.5t-90 32.5q-76 0 -142.5 -31t-111.5 -88q-17 -24 -30 -52l-156 56q23 44 47.5 123.5t55.5 192.5v5q-101 2 -169 11v119q124 -20 192 -24l8 56q5 37 6 56t-1 41l192 -8q-4 -15 -9 -40l-9 -47
q-7 -29 -11 -53q156 11 283 35v-112q-141 -21 -308 -31l-9 -35q-12 -53 -29 -114q50 21 101.5 30.5t114.5 9.5q88 0 154.5 -26t103.5 -73.5t37 -110.5q0 -136 -112.5 -205t-316.5 -69q-76 0 -162 10zM758 543q-33 72 -70 143l94 33q57 -95 78 -138zM894 583q-42 84 -75 140
l93 36q63 -98 83 -135z" />
    <glyph glyph-name="uni3063" unicode="&#x3063;" 
d="M334 17q181 8 271 52q109 53 109 164q0 55 -31.5 90.5t-85.5 35.5q-65 0 -142.5 -26t-183.5 -70l-40 -17l-47 -18l-48 120l143 49q79 28 167.5 50t156.5 22q92 0 158.5 -30t101.5 -84t35 -124q0 -67 -31.5 -123.5t-93.5 -99.5q-132 -92 -390 -105z" />
    <glyph glyph-name="uni3064" unicode="&#x3064;" 
d="M286 61q212 6 332 68q130 67 130 195q0 72 -41 119.5t-118 47.5q-92 0 -216 -44.5t-276 -111.5l-55 139l182 57q115 35 208.5 57.5t170.5 22.5q101 0 178.5 -34.5t120.5 -100t43 -154.5q0 -81 -40 -149t-117 -118q-80 -52 -193 -83t-254 -38z" />
    <glyph glyph-name="uni3065" unicode="&#x3065;" 
d="M266 51q212 6 332 68q130 67 130 195q0 72 -41 119.5t-118 47.5q-92 0 -216 -44.5t-276 -111.5l-55 139l182 57q115 35 208.5 57.5t170.5 22.5q100 0 175 -33q79 -35 123 -100.5t44 -155.5q0 -81 -40 -149t-117 -118q-80 -52 -193 -83t-254 -38zM758 568q-33 72 -70 143
l94 33q57 -95 78 -138zM894 603q-42 84 -75 140l93 36q63 -98 83 -135z" />
    <glyph glyph-name="uni3066" unicode="&#x3066;" 
d="M784 -100q-121 7 -225.5 48t-168.5 116t-64 177q0 87 46.5 168.5t108.5 131.5l10 8q-103 -11 -225.5 -28t-204.5 -34l-13 130l121 10l117 11l315 27q119 9 311 18v-121h-43q-41 0 -89 -3.5t-80 -10.5q-51 -16 -94.5 -59.5t-69.5 -102.5t-26 -119q0 -117 89.5 -173
t227.5 -63z" />
    <glyph glyph-name="uni3067" unicode="&#x3067;" 
d="M782 -102q-121 7 -225.5 48t-168.5 116t-64 177q0 87 46.5 168.5t108.5 131.5l10 8q-103 -11 -225.5 -28t-204.5 -34l-13 130l121 10l54 5l63 6l315 27q108 10 282 17l29 1v-121h-43q-41 0 -89 -3.5t-80 -10.5q-51 -16 -94.5 -59.5t-69.5 -102.5t-26 -119
q0 -117 89.5 -173t227.5 -63zM728 283q-33 72 -70 143l94 33q57 -95 78 -138zM854 333q-42 84 -75 140l93 36q63 -98 83 -135z" />
    <glyph glyph-name="uni3068" unicode="&#x3068;" 
d="M242 -50q-107 57 -107 176q0 68 47.5 133t124.5 123q-41 77 -70 139.5t-70 156.5l167 67q47 -129 119 -270v-1l59 33l56 29q26 13 99 52q22 13 99 54l67 -111q-25 -17 -93 -52q-34 -17 -41 -20q-98 -50 -147.5 -76t-98.5 -58q-127 -90 -127 -184q0 -114 180 -114
q70 0 170 12.5t183 31.5l-2 -141q-168 -28 -347 -28q-176 0 -268 48z" />
    <glyph glyph-name="uni3069" unicode="&#x3069;" 
d="M222 -64q-107 57 -107 176q0 68 47.5 133t124.5 123q-41 77 -70 139.5t-70 156.5l167 67q47 -129 119 -270v-1l59 33l56 29l43 21q43 21 131 69l61 -112l-116 -61q-142 -72 -234 -128q-127 -90 -127 -184q0 -114 180 -114q70 0 170 12.5t183 31.5l-2 -141
q-168 -28 -347 -28q-176 0 -268 48zM783 553q-33 72 -70 143l84 33q57 -95 78 -138zM909 603q-42 84 -75 140l83 36q63 -98 83 -135z" />
    <glyph glyph-name="uni306A" unicode="&#x306a;" 
d="M58 136q50 62 100.5 154t88.5 183l2 6h-29q-91 0 -151 7l-9 115q43 -8 87.5 -12.5t72.5 -4.5h30q10 0 32 2l17 81l17 83l180 -18l-15 -61l-16 -61q45 10 134 37l4 -113q-68 -20 -172 -38q-40 -107 -100.5 -226.5t-122.5 -208.5zM571 90v27q-28 6 -54 6q-31 0 -49.5 -17.5
t-18.5 -45.5q0 -30 15 -48t44 -18q63 0 63 96zM347.5 -71q-69.5 42 -69.5 119q0 48 30 86.5t86.5 60.5t131.5 22h23l17 -1v4l-2 48l-3 48l-5 115h178v-57q0 -125 5 -200q62 -25 114 -57.5t86 -63.5l-77 -126l-62 57q-38 34 -55 47v-3q-6 -67 -59.5 -104t-158.5 -37
q-110 0 -179.5 42zM887 365q-51 44 -127.5 90.5t-135.5 73.5l65 101q69 -32 157 -78.5t122 -69.5z" />
    <glyph glyph-name="uni306B" unicode="&#x306b;" 
d="M118 -99q-17 53 -28 144t-11 180q0 82 9.5 163.5t26.5 190.5l6 39l18 97l181 -16q-26 -84 -44 -207t-23 -240l12 23l19 34l82 -53q-21 -54 -44.5 -133.5t-31.5 -126.5q-6 -30 -6 -48l2 -35zM442.5 -24.5q-70.5 41.5 -70.5 118.5q0 30 4 59t12 69l168 -14q-10 -41 -10 -78
q0 -38 26 -57t86 -19q63 0 128 8t148 26l2 -131q-117 -23 -283 -23q-140 0 -210.5 41.5zM425 517l-1 121q137 -13 223 -13q133 0 258 15v-123q-110 -11 -245 -11q-132 0 -235 11z" />
    <glyph glyph-name="uni306C" unicode="&#x306c;" 
d="M505 -47.5q-54 37.5 -54 104.5q0 10 5 35v3q-56 -75 -119 -118t-130 -43q-76 0 -126.5 45.5t-50.5 125.5q0 77 26 146.5t70 127.5l14 18q6 6 13 20q-10 22 -17 43t-18 61q-12 40 -28 74l162 68q12 -74 34 -139v-2q77 44 163 64q6 74 6 100q0 28 -3 48l190 -5
q-5 -26 -7.5 -48.5t-4.5 -36.5l-5 -46q86 -11 155 -51.5t109 -106.5t40 -148q0 -43 -5.5 -91t-14.5 -82q63 -50 89 -82l-94 -117q-8 9 -28 37q-11 16 -32 39q-33 -36 -83 -58.5t-111 -22.5q-91 0 -145 37.5zM245 76q19 18 46 54q-35 55 -58 98l-9 19q-12 -28 -19.5 -60.5
t-7.5 -59.5q0 -26 5 -49q5 -21 12 -21q11 0 31 19zM684.5 40.5q21.5 21.5 38.5 58.5q-47 21 -72 21q-18 0 -28.5 -15t-10.5 -36q0 -50 33 -50q18 0 39.5 21.5zM397 333q14 46 34 133l1 6q-26 -12 -52.5 -32.5t-48.5 -44.5q14 -32 19 -42l32 -67zM498 155q60 53 148 53
q50 0 99 -11v3q7 39 7 89q0 90 -38 144.5t-103 66.5v-3q-11 -69 -48 -195q-23 -69 -65 -142v-5z" />
    <glyph glyph-name="uni306D" unicode="&#x306d;" 
d="M216 -104q2 20 4 60q0 42 1 65l2 94v2l-26 -39q-56 -83 -73 -105l-98 138q142 179 207 283v2l4 67v4l-182 -25l-13 118q162 12 202 17l3 41q0 12 1 19t1 24q0 59 -4 86l197 -5q-7 -30 -22 -148l25 -31v-1l-15 -41q58 39 120.5 64t119.5 25q78 0 135 -36.5t87 -103
t30 -155.5q0 -112 -13 -170q53 -35 88 -76l-78 -124q-26 33 -59 69v-1q-30 -46 -80.5 -70t-126.5 -24q-101 0 -162 39.5t-61 118.5q0 44 28 78.5t79 54t117 19.5q57 0 88 -8v4q5 39 5 99q0 80 -27 130.5t-72 50.5q-50 0 -117.5 -50t-135.5 -122q-2 -34 -2 -55v-51v-27
q0 -149 6 -232q2 -44 6 -72h-189zM689.5 47.5q21.5 23.5 36.5 67.5q-50 21 -82 21q-23 0 -38 -14t-15 -39q0 -59 55 -59q22 0 43.5 23.5z" />
    <glyph glyph-name="uni306E" unicode="&#x306e;" 
d="M456 8q138 12 224 80.5t86 207.5q0 101 -41 169.5t-117 91.5v-3l-5 -28q-10 -55 -23.5 -118t-29.5 -118q-50 -157 -115 -234q-75 -88 -165 -88q-62 0 -115 37.5t-84 103.5t-31 146q0 113 64.5 210t176 155t245.5 58q127 0 225 -51t151.5 -139t53.5 -196q0 -76 -27 -141.5
t-81 -116.5q-114 -107 -320 -138zM315 164q23 46 55 151q30 95 51 232v5q-63 -21 -107.5 -67.5t-67.5 -104t-23 -112.5q0 -79 16 -115q17 -38 34 -38q18 0 42 49z" />
    <glyph glyph-name="uni306F" unicode="&#x306f;" 
d="M400.5 -59q-66.5 41 -66.5 117q0 50 30.5 88t86 58.5t130.5 20.5h21q12 0 18 -1v8q-1 3 -1 20q-5 94 -7 176v4h-44q-80 0 -200 8l-1 112q116 -12 201 -12h42v176h188q-3 -15 -5 -60q0 -30 -1 -45q-2 -32 -2 -55v-4l69 11q26 3 85 16v-120q-55 -9 -155 -19q2 -64 6 -129
q4 -85 5 -131q57 -26 105.5 -58t80.5 -62l-78 -124l-33 30q-50 47 -74 66v-2q-25 -130 -218 -130q-116 0 -182.5 41zM109 -105q-17 53 -28 144t-11 180q0 82 9.5 163.5t26.5 190.5l6 39l18 107l181 -16q-26 -86 -45 -214t-24 -243l24 40l85 -54q-39 -99 -57.5 -163.5
t-18.5 -126.5l2 -35zM611.5 33q12.5 23 12.5 72v24q-28 6 -53 6q-31 0 -50 -17t-19 -46q0 -32 18 -47t49 -15q30 0 42.5 23z" />
    </font>
</defs>
</svg>
